<mxfile host="Electron" agent="Mozilla/5.0 (Windows NT 10.0; Win64; x64) AppleWebKit/537.36 (KHTML, like Gecko) draw.io/25.0.2 Chrome/128.0.6613.186 Electron/32.2.5 Safari/537.36" version="25.0.2" pages="2">
  <diagram name="GUI" id="yt8RXL0OVZCDhy-01FNz">
    <mxGraphModel dx="1050" dy="655" grid="1" gridSize="10" guides="1" tooltips="1" connect="1" arrows="1" fold="1" page="1" pageScale="1" pageWidth="850" pageHeight="1100" math="0" shadow="0">
      <root>
        <mxCell id="0" />
        <mxCell id="1" parent="0" />
        <mxCell id="b_BCfy026zb7-EWfuFcW-1" value="" style="shape=image;verticalLabelPosition=bottom;labelBackgroundColor=default;verticalAlign=top;aspect=fixed;imageAspect=0;image=data:image/png,iVBORw0KGgoAAAANSUhEUgAAA6IAAADYCAYAAADxqV69AAAAAXNSR0IArs4c6QAAAARnQU1BAACxjwv8YQUAAAAJcEhZcwAAEnQAABJ0Ad5mH3gAABvDSURBVHhe7d1/cJXVve/xNySQ8MsdEkkoKhF6iDcdSAUbhkxJFWuutMqRYxHRQenoRUpzhClXPa1cHQar9dgeWvBGD/bqrZVWS9GLF3qrJ2qq0QlD2mIj0xw2LUwQkQQ2ZEsiO5DA/WMnkDwERQmPRN6vmT1j1vo+e+9n7cyOH9Z61tMnMzPzKJIkSZIkhaRvsEGSJEmSpDPJICpJkiRJCpVBVJIkSZIUKoOoJEmSJClUBlFJkiRJUqgMopIkSZKkUBlEJUmSJEmhMohKkiRJkkJlEJUkSZIkhcogKkmSJEkKlUFUkiRJkhQqg6gkSZIkKVQGUUmSJElSqAyikiRJkqRQGUQlSZIkSaEyiEqSJEmSQmUQlSRJkiSFyiAqSZIkSQqVQVSSJEmSFCqDqCRJkiQpVAZRSZIkSVKoDKKSJEmSpFAZRCVJkiRJoTKISpIkSZJCZRCVJEmSJIXKICpJkiRJCpVBVJIkSZIUKoOoJEmSJClUBlFJkiRJUqgMopIkSZKkUBlEJUmSJEmhMohKkiRJkkJlEJUkSZIkhcogKknSZ6KEpS/+mV31MWKxGLW/uT1YcEqWb4gRi1WxPNghSdJZzCAqSadkOVWxGLFtaykNdkmfWC6lL66kdHIu7IsSrY3S2JIeLDoN/r5Kks5uBlFJksI2ahGzJ0egoZx78osomlxE0a1lwSpJkj63DKKSpJO7YilrN21j15su/OxRU3PJAVp2vMOqYF9PisepCbZJknQWMIhKkk4uv4CCkRHSUoMd6gmJRGOwqWe1NFIZbJMk6SxgEJUk6XMnSn082CZJ0tnDICpJZ8Klt7Py1Vq27UruiBqLxYjt2kbVb5YyY1SwGCCXGT98jqroruP10SqeW1JC6YvbiMW2sXZ+8BgomLuSine2Hdt5NRaLsStaxXM/nEFuoDb5PDGqHg10wPHNbTZ0LMFt//mHxUQAxsw+9vzbXvy47W+6OZf6XWz7w3JmdJTMX8u2Lq/X1UftBNv9OVewfOanqevmvbZ/TiWdy+j+M921rZbn7upcVMDtj1dQu63r89X+ZlGyu+O828c1Mnlpe13y8/1kn5EkSb2XQVSSeljunc9R+/8eYcal2aTHolS/sobyDVEaWiPkXVXKypfXUtoljOZS+mIFK+eXkBdJUFdbTfkr1URbcim5cyWzL+hc2yGX0l/V8tLDMyjITie+vZry1eVUb22ASB4l81dS8WLpCWH01NURrY0S3d4+rdbckPy5Nkp0W32wuIuSR59jxfwS8gbHiW4op3xDlGgDREYmr4v89HIpfb6WimPnXEPli+VU10bZzXBysz5F3a9eSr7X9OR7Xf9mDXWJ5Of09JvLKe4oHVXK2tXJz5T6GipfqaSmto7EoGxyjw1yLqUvruWRmQVks5uaN8upfDtKXVOE7I6iWGBcO36ujVIX63geSZI+/wyiktSjFrHy7hKy0+JUPzqLEeOKmHrjPGZdU0T+yFmU/TEOWcUs/p/tM2QAd61k8eQIxCp58OrRTJg8lVk3TqVoXBHzVteTOyrS+QWOHzM1m7RYNWVzRpA/aSqz5s9i6qR8RswpozoGkcmLWdlltu6TWMacyUUUPVlDHGDXfyR3dp1cxNTvrQkWd3I7pVfnkdZaw5NfzafomlnMuqaIonEjmHL3qtPaOCf3h79g8RXZ7eM0gvxJU5h+2yymTi5iQl4+0x//ZHXMX85/n5pN4u0yZo1Mvtc5101hwuhZrNraQlr+DSzuGL8FsynOgoZXFjJ6/BSm3zidKZMnMHrSPP7tdx3v8PhOuAtHT2DKdbOY/vUiJuRNYN6P1ydLVi9kaqdxjdc+2T6uU1m4uuN5JEn6/DOISlIPyn14GoWDoOWPTzJvSXmgt5z7v7OGmlZI+8o0lra3Lr22kDRaqH5iOsve7lxfx5r591C+o3MbQC6PdBzzv+dx/0uB7pfuZ94LNUAahdd2vEpY0iEVSI2Qc0nXnprn15zGxjnFLL2mgDQaKF8SHKfOTrUOlt5YTKS1hjX/7X66flLlLHyxhhbSyCu6PdnUvllTJCO36yzz9jWsCY7/oAxyu8x417Hm+eDvgiRJ5zaDqCT1oGvzc4EWav7wIHXBToDtZUTfBVJzKZgLUErBSKB1Cxt/EiwGqGTjjuCuM9eSNxJorqHyR92+CnUro8nXH1FAe5QKSRnlm+JALtc+VUvFLxcz+9JgzacxI3nODX9hza+DfZ2dal37uKcWcPsfj1/zeexxVyFpAKnpyfLnNxJtgbSvLKJiw1qW31nczbLnNWysbYFBhSx6tYq1Py2luNvrgSVJkkFUknpQXk4ESHDyu3LUkWht/89UgDxyIkBznI++8rKz9mNaE5z0ZbYnaCH5Gu1RKjRl35rCPatraGjNpuCaRSx/Nca2Dc+xdGqw8hOY2359abyej1oYfMp1x8YwTl3Hta/dPTquh/3DQopuK6N8a5zImGJmL1nLn3fUUvH47Z0CaSULJ8+h7JUo8UF5FN+6lLUbdlH76kpuN5BKktSFQVSSelC0Pg6kk54R7AlqIREDaCDeHOzrKicSvEa0/dYcqel8/MskTi3gXpGRnAHsEXU8OX8K+SMnMH3JKqp3tBAZU0LpU1UsvyJY251iMoJv5pX6ZOhOyzi+gVB3TrXu2O1N6ljffu1rd48u18O+dD+zJo0m6+sLWfa7KPG0bApmPkLF8513ES7n/huLGJ0zhYU/W0+0OY3sS2fwyMtr+bi9hj9Wj35GkiR9tgyiktSD1u+oB9IomNxpM6LORj1CwSiguY6NqwG20NgMRC6h+OZgMcAiJo4Otq2nrgEYVEDxSTYjyn24gDygZdvGYzODZTuSkTRnxImLdXOnjuxmqenpqqPy0YVMHV/Esj+2QFoeE7/V3vV4XTIgZ+aeuHR41DRGjgi0bd9CQzMwchyzPyrMnmodNcTjQOolTDzJGJ7U26t48NYiRs9ZTx0QGV/STcisYdUDcygaPYv1O4CsAkq6uf1OUM99RmVMH51F1qSFwQ5Jks4KBlFJ6kF1y8qpaYG0Sf/MS0uCd6IsYNHPZlCQCg2Vq1gGwBrKKuuAbErufjqwhLOARS/+M4WDOrcB1LHsleRmOoV3vHTiktdLF7H8+gKggTd+lXwVAP5aTxyIFN7A4s6vM6q0vb4bsfYlvpGc4/cA/UjFzLg5eP1kHXWN7de5dixL7piRzJrIDT/oXJ1LafsYdbWMVZUNQC7TfhIcp85Ota6S//VmNLmh0x1rWRS8jvXSRTz36tPHA+bU2Sde67qlnnhr8pwSAJQw++bgOHbMvHY+94/waT4jSZJ6oT6ZmZlHg42SpKDlVMVmk9cap25rfTKcdRHlt5PnsAzIvXMtFUuKiQAtu6Js2RalPjWPL4/LI3sQtNSuYs7khZ12ai3ludqllGQDLQ1EN/2FaGsO4/ILyB0cpbI2h+JLofJ/jD5+65H2e48unRyB1hYatm9hy1/rSf/SlykYlU1aagvRX8+h6M7Ou7WWsHzD08wek3bsderI5cvj80jbVE3jpEJyt64KzKIt4qUdiykcBPEd1dTsiJCTWEXRjWWdajorZe22pRTTQHT7FqJ1MPJLl3DJmGzSYpXcf/V0yrYnK0sereLpm/NIo4WGrTX8pQ5yCwrIS6uhel8hhaOirMoq4vi76fT+W+PUbY0SfaeRjHG55I7IYMuPO27Nchp10QQ5X7qES0Zlkxav5J686TwJ8GgVsZm5xHfVEY3W0Di4gLz8PHIjncc5+TuSG6ujbmuUmqYMCvLyyBsZoWXrKuZM6vSZz1/Lth8Ww5v3M/q6zmP5yT+j5RtizB4TGKsrllP169nkEWXVzUUs/MOxckmSzgrOiErSJ5EaITc/j7xuHh3zenWPTmfKHcmNbcjOo2DytZRMyiOSiFL5y3uY2iWEApQx65vzKHuzjnhKNnmTSrh20iVk7Cun7LYiypu6FLero+y6Kcx7vJxoHLLHFFB8XQmFoyIktley6vtTAyGU5G1JbrqPNbVxWtpfp+QrORysLmPeNVu6CdcAy5i3ZA3RGERGFlI8KZe05o+66rSG6qoo8fRs8i4t5trriikYmUb87TXcM/N4CAUov3MW962OEm9JI3tMISVXFZKT2EjZd6eypdvZw3IWTpqa3AipOZ3c/EJKZpZQOCaXtIa/UF17OnWRZF3H+928nmU/WJgMoQBVG6lpSJA+Io/Cq2ZQMimP4a1Ryh9fwKxj41zNxrcbSAzOJW9SCTOuKiQvB6KvlLHgpuBnfjKf5jOSJKn3cUZUks5quaz845+ZMaqB8vn5zFod7JckSep9nBGVpLPZFYsouCi5udE7hlBJkvQ5YRCVpM/a/Oeo+t1SZgQ31hk1g5UP30BeKsSr1/FgoFuSJKm3cmmuJH3W2jeuibS20LC9jsZWgDRyxuQSSYWWXeU8+I+zulxfKUmS1JulDBgwYEmwUZIUoth7tGZ8kdEjcrjgwhyyhmWRNSyDPvvr2LT+IeZcs5j1jcGDJEmSei9nRCVJkiRJofIaUUmSJElSqAyikiRJkqRQGUQlSZIkSaEyiEqSJEmSQmUQlSRJkiSFyiAqSZIkSQqVQVSSJEmSFCqDqCRJkiQpVAZRSZIkSVKoDKKSJEmSpFAZRCVJkiRJoTKISpIkSZJCZRCVJEmSJIXKICpJkiRJCpVBVJIkSZIUKoOoJEmSJClUBlFJkiRJUqgMopIkSZKkUBlEJUmSJEmh6pOZmXk02ChJp6vfBVkMmTaRQZePJTU7Qp/UlGCJJJ2So61ttDbEaX59MwfWbeTwe7FgiSSplzGISupxQ7/9dYbeemXyhxQXXkjqIW1HANj/y9fY/4tXg72SpF7EICqpR+UsuZkBhWPoOzg92CVJPeJIU4KD1VupX/LrYJckqZdwqkJSjxn67a8bQiWdcX0HpzOgcAxDv/31YJckqZcwiErqEf0uyGLorVcaQiWFou/gdIbeeiX9LsgKdkmSegGDqKQeMWTaxGCTJJ1xfvdIUu9kEJXUIwZdPtaNiSSFK6Vv8rtHktTr+H+NknpEanYk2CRJZ5zfPZLUOxlEJfUI7xMq6bPgd48k9U4GUUmSJElSqAyikiRJkqRQGUQlSZIkSaEyiEqSJEmSQmUQlSRJkiSFyiAqSZIkSQqVQVSSJEmSFCqDqCRJkiQpVAZRSZIkSVKoDKKSJEmSpFAZRCVJkiRJoTKISpIkSZJC1SczM/NosFGSPqnRr/8o2KQet5MPSp7ig69dzxfuG0tKsLvDns3Ebn4B7l1E1pTBwd5ern0MAq0pF48i/fLxDPrmWPpnBjr1ubft8h8EmyRJZzlnRCVJvc8Xx3Le3BIic0uIzC0iPeMAiadfoGH+M3xQ2xqsliRJZxmDqCSp97kgj0Ezixgys4ghM0sY+uPvkvPzaQxkOx88vonDwXpJknRWMYhKkj4X+l48niHfGg61/8mhXcFeSZJ0NjGISpI+N/oOGwpspy0e7JEkSWcTg6gknVMSHH6rkv13P8b7JUvZWbKU3Qt+S+Pa7bS1BWvh0Kql7Cyp5BDQurGS/QtWtB+zjgObE8mitiZaVq+jYU7H83XqC2ray8FVx2vfn/sM+1fVcvhgsPDTOdoGMJw+/TtaErRurKbxgafY3X6+7899lnjFXo50OfK4trerabyvY3xWsHdFNYfiXcei6wFNtKz9PXvnLmNnyVJ2znmKWPsxkiSpewZRSTpXHNzNgfseo35JNYeGjmHIvTdx/r3fYMDwPRwse4b3v1fJoW4DYSutFS8QezlBv3+6kqGzx5NSv4n4937NB7V7+fAnT7B/SzoDv309Q2cXkhpv74sGNg2q30rjvY8RK2+i/5XTyHrweoZMTKfl6d9S/y+VHD4h4X1SjbRU1EJmPmlfTLa0Vaxj9+JKWlIuYtBdN3D+vd9g4Mg9HHjoMfY+vztwfCuHVj3F+3f/noOJixhUej1Z9xbRr6ma2H2VJLoLlgd3c2DJE+x5djt9JxaT+eANDL1yGEfe+j0Nd7zAwT3BAyRJEt6+RVJP8fYtYej+1iUnM6DL7VtaaXlqBXuezeC8h2/mvMvSu9Qe+VMFe79fSdtNtzD8tlH0aW8/tGopDU9DylXXM+xfxpLaccCuTeyds45E5mBSJ/xXzu+ub+YtXDC347ma+PCBZezjG+TcVUi/AR3FcLS2kj0LKuh71wLOvzrjeEe3uruFTStH6t+l+Yl1xN9oZeB9d5D5teR5t22spiV7HAMv7ny+jTQvXsH+v00h+zfFdEyeHn27gt13V5Iy5zbOn31hl3+pbX3lBfb862bamEJ2eccxyeDa8OYozv/XEtIjnQ6o38y+BS/QcnXX8dSZ4e1bJKn3cUZUknqbLrcu6eZx01j6BY+Jb+XDZ5tImTmFIYEQCtD3siKGXA1tz/4nLU3B3uEMntEpaAKMGMXArwL7hjHklmDfF5Izkn/azbE50b+/w4E3hhO5uWsIBeiTP45Bl0Hi7ffpZnVw99544djS4p0lD7Fr9jPENw9lyJLbjoVQgJSJhYEQCpBB/wnDYd9uWo/NWCZoeaOStsxiIjO7hlCA1Kuu5LzLAo1N2/nw6d0MuqW4awgFyPkvDLoK2l7eeXwMJEnSMcG/tZKks12XW5d085iW1zUYAuzaSzMwcMJFJ5mdS6ffpflAbTc7zl5Ev5xgWyrJ6cgL6Tci2DeYlAuAv7fSseSmbcdODrOb+Hc6wmPnxwr2/wk4dMoxNBDGv0Hmg3fwhWduIfLVbmZUDzVxeONmmlZXEf/JM+xZsIL6fw8uy93LoXXAVy+k37HrSzvLoN/YQNO7u2kCmpc80s05PcSe1cA+jo2BJEk6ziAqSeeAtt3J4NVn4AkR9Zg+KQBNnDgtOZi+xycZA07+fJ21vVcLDGfgTd3M4HY8JmacJCR3o0sYL2TgxOGkdBMgW99Yx+5rllG/+DU+/PNOjg77B9KvKSFr9qiuhfsOJGcuMwec8h/GjjFNn9bNuRx7DD/l55Mk6Vzi30dJOgekDDsfgKMfftxC0c47zvacvsPzAeh3eTczuB2Pq09cEntadm2i8YFN9Jl5E194aQHZD99AxpwihlydT78LAst1B6cnJ3hPCOEdEhzZ17WlY0xTJ44/8VyOPcacYlSXJOnc0qN/8yVJZ6mcYQwAPvzLuydZKprg0J9qIXMM/S8K9p2+lKEZwG5a/tYY7Dpj2rb8jQQwYPIYUpK7GrVrpW17becG6D+Avl8Eqt7lcNeepEPvc+itQFtmBmnAwb++f5IxlSRJJ2MQlaRzwbB/YNC0wbQ9W8GBP514j88jm6s58DL0n5lP2hmYEe0zLp/zvgiJp17jw/pgL7S+VU2ip2910p4+2/Z1Pd+jtVXEV3dpAoYz4J/GwN/L+WDd3kCwTHBo9Zs0d2kDRoxh0NdIjmk39009Eq2iORpslSRJGEQl6VyRTvrcmZyXv5MPvv8Y9Q+Vc+DlWhIV1cQfeoz671Vw5OobyPzW8OCBPaP/hQxZOIX++zazb/YKYj+vovmtrXy4toLGxSvYveRdjnaZtTx9KV8ex+BMaF7yBLGfb+LgW5s48PPfUv84DF6QXCrcWeqUKUQuHczBFY9R/0A5TRVbOfhyBY2LnyD23ngi3wweMZiBd1zPwMydfPC9x9jz04r2Y6qSY1padfKVvpIkneMMopJ0rhhwIef9dBHDSvNJ3V1L/Ce/Ze9DlSQOjmLIgwvIviv/jF7P2Ce/mOzf3ELGtGG0vlLO/iXPsu//bKctp4jzn/4mAzKDR5ymyBgyVtzEeVcP5vDqdcSWVNJy8GIyHygmrbvNl/oPZ8jDdzBs7nj6/q2KxoeepXHNbii8npzO90ntLGcsmU9+l6w5Yzj6diWNDz1L7KlNHOo/jsiKOzgvL3iAJEkC6JOZmemlLZJO2+jXfxRskj5HGvlwyQr27S4h59+LTrxPqz5T2y7/QbBJknSWc0ZUkqSPs2cnB98CLhve/cyoJEn6RAyikiQBRKv5YGNTsBXaGvnwqf/gIBdy3uUXnfq9TiVJ0km5NFdSj3Bprnq92kp2Lqgg5eKxDCz5QvJfag820vJaNYldg0n/zs1kfWu4QfQs5NJcSep9DKKSeoRBVL1eW4LDGzbR/FotiTd20gow4kIGXJbPwH8cz4CL04NH6CxhEJWk3scgKqlHGEQlfVYMopLU+3iNqCRJkiQpVAZRSZIkSVKoDKKSJEmSpFAZRCVJkiRJoTKISpIkSZJCZRCVJEmSJIXKICqpRxxtbQs2SdIZ53ePJPVOBlFJPaK1IR5skqQzzu8eSeqdDKKSekTz65uh7UiwWZLOnLYjye8eSVKvYxCV1CMOrNsYbJKkM87vHknqnQyiknrE4fdi7P/laxxpSgS7JKnHHWlKsP+Xr3H4vViwS5LUCxhEJfWY/b94lYPVWw2jks6oI00JDlZvZf8vXg12SZJ6iZQBAwYsCTZK0qfV/Id36NM/lQEFF8PRo9C3T7BEkj6dtiNw9CiNz77O3p/932CvJKkX6ZOZmXk02ChJp6vfBVkMmTaRQZePJTU7Qp/UlGCJJJ2So61ttDbEaX59MwfWbXQ5riR9DhhEJUmSJEmh8hpRSZIkSVKoDKKSJEmSpFAZRCVJkiRJoTKISpIkSZJCZRCVJEmSJIXKICpJkiRJCpVBVJIkSZIUKoOoJEmSJClUBlFJkiRJUqgMopIkSZKkUBlEJUmSJEmhMohKkiRJkkJlEJUkSZIkhcogKkmSJEkKlUFUkiRJkhQqg6gkSZIkKVQGUUmSJElSqAyikiRJkqRQGUQlSZIkSaEyiEqSJEmSQmUQlSRJkiSFyiAqSZIkSQqVQVSSJEmSFCqDqCRJkiQpVAZRSZIkSVKoDKKSJEmSpFAZRCVJkiRJoTKISpIkSZJCZRCVJEmSJIXKICpJkiRJCpVBVJIkSZIUKoOoJEmSJClUBlFJkiRJUqgMopIkSZKkUBlEJUmSJEmhMohKkiRJkkJlEJUkSZIkhcogKkmSJEkKlUFUkiRJkhQqg6gkSZIkKVQGUUmSJElSqAyikiRJkqRQGUQlSZIkSaEyiEqSJEmSQmUQlSRJkiSFyiAqSZIkSQqVQVSSJEmSFCqDqCRJkiQpVAZRSZIkSVKoDKKSJEmSpFAZRCVJkiRJoTKISpIkSZJCZRCVJEmSJIXKICpJkiRJCpVBVJIkSZIUKoOoJEmSJClUBlFJkiRJUqgMopIkSZKkUBlEJUmSJEmhMohKkiRJkkJlEJUkSZIkhcogKkmSJEkKlUFUkiRJkhQqg6gkSZIkKVQGUUmSJElSqAyikiRJkqRQGUQlSZIkSaEyiEqSJEmSQmUQlSRJkiSFyiAqSZIkSQqVQVSSJEmSFCqDqCRJkiQpVAZRSZIkSVKoDKKSJEmSpFAZRCVJkiRJoTKISpIkSZJCZRCVJEmSJIXKICpJkiRJCpVBVJIkSZIUKoOoJEmSJClUBlFJkiRJUqgMopIkSZKkUP1/LYTiaDPdUesAAAAASUVORK5CYII=;" vertex="1" parent="1">
          <mxGeometry x="340" y="250" width="930" height="216" as="geometry" />
        </mxCell>
        <mxCell id="b_BCfy026zb7-EWfuFcW-4" value="" style="endArrow=classic;html=1;rounded=0;strokeColor=#ff0000;exitX=0;exitY=0.5;exitDx=0;exitDy=0;" edge="1" parent="1" source="b_BCfy026zb7-EWfuFcW-5">
          <mxGeometry width="50" height="50" relative="1" as="geometry">
            <mxPoint x="1004" y="230" as="sourcePoint" />
            <mxPoint x="860" y="289" as="targetPoint" />
          </mxGeometry>
        </mxCell>
        <mxCell id="b_BCfy026zb7-EWfuFcW-5" value="&lt;font color=&quot;#ffffff&quot; style=&quot;font-size: 18px;&quot;&gt;A message indicating if the logout was successful or not.&lt;/font&gt;" style="text;html=1;align=center;verticalAlign=middle;whiteSpace=wrap;rounded=0;" vertex="1" parent="1">
          <mxGeometry x="950" y="280" width="220" height="30" as="geometry" />
        </mxCell>
        <mxCell id="b_BCfy026zb7-EWfuFcW-6" value="" style="endArrow=classic;html=1;rounded=0;strokeColor=#ff0000;exitX=0;exitY=0.25;exitDx=0;exitDy=0;" edge="1" parent="1" source="b_BCfy026zb7-EWfuFcW-7">
          <mxGeometry width="50" height="50" relative="1" as="geometry">
            <mxPoint x="1054" y="300" as="sourcePoint" />
            <mxPoint x="910" y="359" as="targetPoint" />
          </mxGeometry>
        </mxCell>
        <mxCell id="b_BCfy026zb7-EWfuFcW-7" value="&lt;font color=&quot;#ffffff&quot; style=&quot;font-size: 18px;&quot;&gt;Button to redirect the user to the application home page.&lt;/font&gt;" style="text;html=1;align=center;verticalAlign=middle;whiteSpace=wrap;rounded=0;" vertex="1" parent="1">
          <mxGeometry x="990" y="390" width="220" height="30" as="geometry" />
        </mxCell>
      </root>
    </mxGraphModel>
  </diagram>
  <diagram id="yDhwrDYYJ9k6LEQHjhqe" name="Code">
    <mxGraphModel dx="1750" dy="1092" grid="1" gridSize="10" guides="1" tooltips="1" connect="1" arrows="1" fold="1" page="1" pageScale="1" pageWidth="850" pageHeight="1100" math="0" shadow="0">
      <root>
        <mxCell id="0" />
        <mxCell id="1" parent="0" />
        <mxCell id="fMQ5LX_-kCNDXQKoMOGB-1" value="" style="shape=image;verticalLabelPosition=bottom;labelBackgroundColor=default;verticalAlign=top;aspect=fixed;imageAspect=0;image=data:image/png,iVBORw0KGgoAAAANSUhEUgAABT0AAALmCAYAAACAUzBuAAAAAXNSR0IArs4c6QAAAARnQU1BAACxjwv8YQUAAAAJcEhZcwAAEnQAABJ0Ad5mH3gAAP+lSURBVHhe7P17dJT13e//v6zeHggMUQnBmjgJRFqOEtEiB/GmQ9aGX7zLl4MioSr93cTIUvsrtFTKabE43VAquqssjLi3R2JRAl9aWWGvkHLLUVppICJ26wCJwYYchGRCMFqtvz/mmplrPjOTZHIgYXg+1prVzuf9meu65poxWXnxOVzldDq/EwAAAAAAAADEiO+ZDQAAAAAAAABwOYvp0NMxs0AjlhRo0IRxZgkAAAAAAABAjIrp0LPd3LJcg5YUKOVOs9D50nNPa8m2zepjFgAAAAAAAIArVEyHnp7NE3V4xUR9tGuPWQIAAAAAAAAQo9o19Lz5nmn62QP36GazgBjRXxN+9jNNu4dPGAAAAAAAAF3XVe21e3v///Ezjf6+VP/xH7X1/S+Ci7cs16DZd6u7v+GkPl7xpDxBnSRptlKWTFWi/3lwv+smbNWwu8/q4xX5uuGpXysl3irU/lVHn1+qr6ynjpkFGtDXeiKpcudElf4t8Fy+Y91+Qkef/0y32M554a+/9Y8MNY9jCnfc5q3Rw0XTleJ/7tEHa+5QQWFQJ2lOoZZMSws8d2/RipwF3v+fsVlPLRgl39sPUXdQm6bM1Flr+vv9CYHnUuD1tVtT9cZG+a9JW1NVeOsxZY90WB3deteVoWL/gb3B9k8G9JD+cUCv/J9PbBUAAAAAAACga2iH0PNm3fPATzSgu1Rx4BXtMnMwK/CULUzULcs16Mef6aPNLwf63fmCRmT2k07l67C/fbZSZkql1nNv6BknBYWTVlAa9DqLde6GMOGk/Vj+8NK6hpAws4njRMcKPO0Bptbo4W3JKrSFkn1WHlP2SNnC0HCv8wobajZXjxB6psgemGZr4raFukthjt1/gn42+hbpwsf64zvvy4i4AQAAAAAAgE7Vxunt/TXhZz/RgO4VOvBKmMBTkm65Sd3VoJpjtnU1K5YGB54ap8TRZuApSS/7A0+7yp32dTpf1rlTkm66TdcZ/VoiKOD8W75Ka6XEAbONXu0kI1nxkkqP2oPLBXojKFRco4yRDtUeesE2+nOB3tjqltImamKGv2P7s40QlTapoNAt9RysdPOcn+zSK3/6WPXdB+gnP5ug/kYZAAAAAAAA6EytDz173aNpPxutWy58rD++skvh8k5JUsU5XVCcUmZvVeItZtFyyzj1ipcqPw4NOEM16MuK4BbP5ok6bJve3nIndS5o5OYefXmu9QFqswrLVSspZdppPTzHLFrmDFeKPHK/tym43V2lWjnUyzbjvb3Vnvjv4BGdTZ2z5n1tfeWAKnSLRv9smu7pZXYAAAAAAAAAOkerQ8/+wweoh9kYTsVSfbQiX5WKU8rsAo1YUqARS16Qb9VIKTAa1AwzY88CveFarQ/qvMHnkqLTWlJ0LGj0Zp9be0ty6K4Fvrr1aGoNz07XQwOGM94TAAAAAAAAXUOrQ89P/s8reuWVA6roPkA/aXak38sqXTFRh1dM1OGdJyX10wB78GmNBr0h0kjQmLJJBVNStcKVqhVrDqpWDt21IBB8nv28ytrcyOpjPLxrcHYBvpG+8i5twKZGAAAAAAAA6CpaHXp6faJdr/xRH1/ooQH/8TNNaMlgv789aQWffQIhZ8VnalAHrqXZYrN1U1/pwqd7gqfKW9cX13ucvbXtCmfqeSv49E8hb2pKeRgV1R6pZ29Fkxf3uW9wi0aNevu5ddwMWvtP0M/+Y4B6NLe0AQAAAAAAANAJ2hh6StIXev+dV3TgH9Ito3+maffcHFS9bsJWpdwZ1CTHgH6Sztqms7+sir82SH2natAEe7A4WykzL10Q6pg5VYk6qXL/Jkk+J/VlrdT97qnB0/KjNadQT63MDmryBose1bithsKZ2u+WUqYFT3uPxDsyNE1jjOP6eEPRwGZE3p3hW/AuMjbrgZEO1R56W8W25pvvmebduf0fB/QKO7cDAAAAAACgC7rK6XR+Zza21s33TNNPks/oj0YY5phZoAF9bQ21f9XRcBsP3fmCRmT2szWc1McrnpTHenbdhK0adrdU+vI0VUZc/3O2UpZMVaLZLAUdz3usuOBypOuSwh43aOf3FgoNHd1615URFCwqbD9zd/WAkL5Gv/Tc07rfN3K07qA2TSlXRtF0aatvuvwaPVw0XSmBI0iSSv11n/6a8LPR6v7xH7X1feJOAAAAAAAAdE3tGnpeTryh59mgUPXK5Q094w+t1vOLjV3jAQAAAAAAgMtMO0xvBwAAAAAAAICug9ATAAAAAAAAQEwh9AQAAAAAAAAQU67YNT0BAAAAAAAAxCZGegIAAAAAAACIKYSeAAAAAAAAAGJKq0LP1NRUXX/99WYzAAAAAAAAAHS6VoWeAAAAAAAAANBVEXoCAAAAAAAAiCmEngAAAAAAAABiylVOp/M7s7E5qampqqioUGNjo1nqUmZmvqbMJOni8Rc1+8Ahs4zWytispxaMUrzceteVoWKz3sl8n7vfmQJl7fyDraELSxykN2cOVZynRM++/JH2mvUONmvqDE26sePPPWvqDE1ySg3FO/XTPR6z3CF85zxV+JZ++aFZBQAAAAAAsYSRnl3U6NEblZezXDPNAprkDTwv6ui2R5WVaz0ul8Cz0yVriFM6dbhjA08AAAAAAICOFtOh5+ad3tCLUZ7trHCmnnelakWXG+X5kAYlSTrznn5bbdYuE5UeVUrSec8lDx7HjhuqvirXh5dgFOSr+W9p8vq3LtkoT0k6dc4jyaPzVWYFAAAAAADEmpgOPXFlulhbZjahWQ6N7eeQysr0qlkCAAAAAAC4zMTkmp7mmo6lex/Vwo9tHRLm6eUpt+uTbe8pfspEpeiijm6bo89/ZL2u/pg25K3XAd+xVKCsv3xfL0+5Q90iHTPMeUPWEh2wXHljE4LPJUkq087cpdqsh7Q6Z6JSAq8w+PpFaU6hlkxLszUEr8XZZ+UxZY90SO4tWpGzwN8rpN2/lqel7qA2TZmps/5X2Jh9I6z/mZ57WvfbLq320Go9v3iTvUsUvPevt3nfw9XPTVTeWKe/EvJ5JswL+rzNe+/7XmyovU9PDO7mXTfU9h0JOV5XN2SMtmf01JHNO7Wy0iw6tHh2poY7Ai1Ba3H61iFVuXas3x8ITcO0+9bV9Im8vmaynpk3Rn39zz3hr81/Dh/jGqJ13yK9/vM7FXf6j5r6q9fMKgAAAAAAuEzEZOjpZwVXVWYAZYWeqpc+KXxdynhc/XVR3ereU9apgf5g8rfV9iDTG4z+ttq73uYTg+V/7gvTUmxhqT80s2+iM2B5IGjzt4/Ur7Me1zDZXmut6fnE4OrWhZx2GZv11LRyPe8PM7M1cdtC3dUzOIT0ho8efbDmDhUU2kJLIwj1Sc89rfsTwoeevrC0dGuq3tho628/vr/NvI5j6rM10Kd51v3rYbb7BD43/+ckBYWY5ufpfd4tKLgMrBVq+170vKiLde9ptvWduWj7Pg2ru4w2T2pmA6NZUzOVtN8WOA4Zo+0ZycHBZ0ibLyiNEEJaYWVluNAz5FjS2HGZmpvuCA5JrWPIDGDHePTT/PLA8aJw729e1y/uipN0Wn+c+isRewIAAAAAcHm6gqe3d1O3usDaj916VGunP6Tqpvhe9r724Ew6cOA9laqb+vcfKUkaPfo+pahMO22hparX65XjF6Wk+/TrBP+BJGsEaCAQO6QDZRelHvFNjPBsg8KZtsBTkjapoNAtKU2D5wRai3NW64M6h+6as1l9lK2Jc0Ypvu6gNoUJPJu2RhkjHao9tNofeEpScc4Wlcqhu6atsVqy1SdBkvtI0OjP4pxoAk9JOqTf5vk2LSpQqe/++jYxyg18bn71x7TBFiYf+ORTXfR/5g8pc3A3XTz+YlBQvnlngUrVTcN+9FCgsYf0yV8C3xmVvR44V8/va3SgZxfX9AZGr+YbIyw/LNERjxTXL1lj/W379WyxR3Hp92pxojR23L0a7vDoyOYwgWeTHFo8Ilkq2x+03ufePft0xCP1HTEocM7eNypOHv39hG1d0MqPWh14StK+g/9XDZJ0+kMCTwAAAAAALmNXcOgplZ6yjcSrr1WpvWhX/6kOBAVnZaqtl7rFOyWN1Ghnt7CvDw7TAqrOBU+9PnBgjrLaOqIzGu4q1Zpt2qSCjQdV23OUsosW6q6eHn2wMXQUZ7PmDFeKpNrPzSnqC3TcLSkhWX0kSZt0tlpS2nQtyfUFoZdI3T8C4bS8AfXsXGtU54CBSgnzGUl/0EdnjDDT+F6EvubyEP0GRh6dOW+2+YJJh4bPnKG56Q41FO8LnY7enMRk/dAhNZyrMwoe7T3pkRw3Bqa8V51XgxwaPjNTixODe7fae6v0yNSpTG0HAAAAAOAyd0WHnu3KDNJset/kHRHaWdJzT2tJke0RtNamTeFMvXPIO2qu9tALUY64tPOoxm22WXr21i3W/y3OSdWmQx5v8Gld21Mrs40XdIaLqq0x2ywdNSK303g3MGooLok8IjNxkN6cN0PbbQ/7upwBHq38U4l3pKSnRC+1YWf2yppIr+2pJF/AWfmRfrp+v07JG7R6r22MZhmvAAAAAAAAVx5Cz0ugM0cABtbSTNUKl/VYczDMSE/vhkfZIx0qdbsVP3KhHrZNf283dVWqsD09u/gO67pW64M6KX7kwi4SfEYQZkTvZW3IUA13GFPE7XwbBZXt1+T1b/kfO8rMjvJuPjRzqOLKynXKMVRzpyabHdpBnc4EjR4t1y9911VYLilZkwg+AQAAAAC44hF6tkbCSPXv4Zseb63JmTRQM41uo/vfrm4q00et2MX7wLlqSQm61VgPNDprNDhNkrugBaM21+jhaWmSe4veyHlbH9RJKdMKlW52a87GIyqVQ2n3mcGl91pqT/x3hCnzm1QwxQo+E/qZxUvn4xNB67UGPKRBSdLFskMRR/ReOg4tnu0d2fjMELNm4x+hGTkEnNU/WfKUam+EaehjB6YoTh4d2d/8Opmzpo5RX5VrR/5+7Sj2SM4xTV9fOJXl+rtH6tvfDEy9I1JVVhZ5ROqH+63g0zYaNGqP6nf5+crP/50eNUsAAAAAAOCyQegZtZH6dcYd6lZ/TDutMNO7sZFTmZm2TW4S5ulng7vp4vGC1q3VWVOri+bGOVE7qZo6SWnDA+HlnMIw09uzNXHbdKXIrXdzFgTW91Sa7o96vc0FKjzkUfzIJzUxI9Canus9/v7FvrU+1+jhbZut9T0tGf+utJ5SbfVJe+sl9gftPH5R3QY/ErQB1czMiUpRmfYc6LxRu37WupdSuHAwwBtYyrtRUbjwMXGQxjexgZEk7a2pk+TQDwdaJ7QCV3N6+9hxmZrklE4Vejcu8m88lBE5cA3Po5WHy0MCU//GSLbwdey4zJBQdVb/5DCjQaMwa4hSJUmpcv3mXrMKAAAAAAAuEzEYej6k1TmvKS/nNeVNuUPdJKWMtZ7nLA8ZjdkiPe7QE75j5jyuYXUFyrLv1K4/aGFugUqTJlp9vOeu2vuoZrc2JKter9l7yyT7MaO+/k0qmLJFpUrT/b71PDOqtMmY3p6eu1B39ZRqD70d2Endt76nbaOhPiuP+dfevD9NUs9Ryg6zFufZxXdo0yHprgWBdUTvTzioTa4M207tC/TGRukBY63R2q2pet4fjHaOAwfmaMNxadgU331/TZk9g3d871TWaEhJOvVJ5BGYe0+UetfXjLBJkTcUDV/z8+/KnmmtmZmpGw8b09uHjNHcdIfkKdEO/7F863vap5sn6xnfuqAzhypOUt+MMGtxWiM2A7UZmptepx3rg3eR37tnpz7sb6w1emOJnl0f7Y7xNq/u0N+sext3s3/LJAAAAAAAcJm5yul0fmc2Nic1NVUVFRVqbGw0SzFnZqYVeAWFnMDlzqHFszP1w5M79dM2bDgUi+79zev6xV1xOv2nqfpVq9NTAAAAAADQmWJwpCeAZjW3gdEV61FNuitO8vxNOwg8AQAAAAC4bBF6AleiD/drsjFd/Mp2rxa9kq/8/J+o9wfPaerPVmmf2QUAAAAAAFw2CD0BQPu06mdTNXXqVD3yX8SdAAAAAABc7ljTEwAAAAAAAEBMYaQnAAAAAAAAgJhC6AkAAAAAAAAgphB6AgAAAAAAAIgphJ4AAAAAAAAAYgqhJwAAAAAAAICYQugJAAAAAAAAIKZc5XQ6vzMbm5OamqqKigo1NjaapS5lZuZrykySLh5/UbMPHDLLV6CvtHvXWaVJ0sk+SnniOrMDOourQSXza+SQ5Hk/SUOXXW32aJ2EeXp5yh3q5m+4qKPb5ui31UG9uqhkPTNvjPqqXDvW79erZvkyMGvqDE1ySqcK39IvPzSrAAAAAACgozDSs4saPXqj8nKWa6ZZaLVvlff2WaWd7KOUCc6YDDz7rDymJUWFSjcLl4OiOA2d4FTKul7SPWdUsuxbs0f0fIHnmQJl5T5qPS6XwBMAAAAAAKD1Yjr03LzTG/QwylOSq1GDHd10cNtlGHZmbNZTRae1xP84pokZZqcYURSngpOSI+EbsxK10f1vVzdd1NG//MEsXSbqdN4jyXNep8zSZeLUOY8kj85XmRUAAAAAANCRYjr0hE2/b+Qw2y4Hcwq1ZMEo6dBqrXClWo8XpDmX6YjOlkr4RtlmW6tU63NGdgIAAAAAgCtMTK7p6VvL06d076Na+LGtQ8I8vTzldn2y7T3FT5moFGudw89/ZL2u/pg25K3XAd+xVKCsv3w/aG3EkGOGOW/IWqIDlitvbELwuSRJZdqZu1Sb9ZBW50xUSuAVBl+/VnisTqVTvtbBdQnKKjKLLdNn5TFlj6zSu64MFftb1+jhoumKP7Razy/eFOicsVlPLRileH+D23idl/eYgTi2Nug42Zq4baHu0kFtmjJTZ/297Lznj3zPQs+bnnta96cFngef0/4+31afbQt1V0+rUBfmOuYUask028HcW7QiZ4G9R9TWbijT9IReWvVgnGx3NGqjR2/UE4OrI3xnRurXWY9rWF3odzvke9vcd3vAcuWNlXZuq9W4KXeom8q0M7dAt2Y9rmE9JJ0pUNbOdh5tOmSMtmckh10r07uOprUOaOIgvTlzqCqNfrOmztCkG0v07Msfaa+/1aHFszM13P919OjI5p1aWel9NnZcpuamO6Sy/ZqcX+5/VaT2Fpv1O+X/R6oaPnhOj/zXPrMKAAAAAABaISZHevqmtWdtO6aLZtGmf8Z9qt32oo7Wd1P/jI3ecHNvmdTjdo1OsHVMmqi8Kbfrk23e4244flEpYzfq1/4+D2l1zmvK7HlMG3xrJ247Jg1+XHmZD9kOJEndNGyKFaTmPqqs3Bd1tN6pzKx5Gq0/aKH1+g3HL1ohp28txkeVFTa86oKswDNodOaaKo3JXRPULT33tBUu+voclEYu1FMrjTGOPXvrluAWmwV6w3r9pkMeK+T0jQhN1YqQgPa07k84qE3GOZcY1yal6f6ihUo74XsPW1Tac5Sybf36rDymJdN664M1vnNtUWna9DDHuoQGLFdezmvKy3lNTwzuJsmpTOt5Xs5rod9H47udtbdM3QY/rtUDfB1a+t1O0LiMeO3JLVCpnBqX9Yj6l73o/R4nDWzHtWktH5bplKS+/ZONQrKGOKWG4pIoNz5K1jPzMjX8/H5NXv+WJq9/S88WS8NnZmpxorfH3j07taNMknOov02Jg/RYWwJPSY8OTpUkxfUfq3vNIgAAAAAAaJWYDD1bppu61b3n39SlW49q7fSPRuum+F72vsE7Xh848J5K1U39+4+UJI0efZ9SVKad1uhQSVL1er1y/KKUdJ8tHPW6ePxF28i3QzpQdlHqEd/EaMXLTFpvxcsj93u2cYqFM/W8fQRkxmaNSZNKt9pCycKZeueQR/EjH7Smrm9SQaHbCiBPtzlM7LNyolLk1rv20ZrWOZU2MWSd0NKtqbYRoAt03C0pIVl9JElrlDHSodpDL6ig0PeKBXpjqzvssaLhrg7stR61j5f6Q/KwwXnIiMsy7bRvbvTxCZVK6n1TtN/tblJZgT+U76ZP9Yp/tGiCbjX+G2i7cn1YJsnp1Cx78xCn+sqjv5/w2FubNXbcUO8u8bbgcu+efTricWj4mECw+mr+Tm/bfwzSWDm0+D+GKs5TomdbGXhK0mvHT0uSGj7ZK8Z5AgAAAADQPq7g0FMqPWULgOprVWov2tV/qgNB6yKWqbZe6hbvlDRSo53dwr7+wCef6mJIgCpVnQueOnzgwJwOH8W59o5aydNNe1o5tT0q7irVyqG7FkTecKjPfYMVL7eObwxuP/t5laTe6uN73cYMrXCt1gd1ktKmWxsZtWY9z2ylD3RIdVWqMCpn3zuuWjnUyzZLXfKoxm1/LhXnpGqFLzCdM1wpZrCrwHsPPlZ0Nv3jWslRo+mPmZUOEPK99Y429k5dj+a7fVGffGL7Xtf9IxCSdpBX95eoQckaMiTQNqt/suQp1V5rSnrLODS2n0MqKzNGh3p05rykGx0aa2tb+acSNTiGau68TA13eHTkT/Yp8q3w6q80depUprYDAAAAANCOrujQs101EfL4Rs11hrUbylS6q0zDjzmV0sY1IluscKaed21RqRy6a4Fvx/XgoPKWBEdgBKf9YV8f02+TCqZYU8i3BkZ+PjzH7NcC1eUR1gaV4m9t+dZBfW7tLQW9P+sRtI5pK73UUykTklQ13vvZ7b4U4WdTuuh3W5Xl+rvHPsXdO7X91OFoQ8ieutEhyTlG2+fNCHpMcpp9JVV+pJeKvSNJG4r3+df8BAAAAAAAXQeh5yVgjuy8lJ5+wqmUCU4duaNMpW83tNOO4C0RWGszEFQGgs+K6nDrb/oed9imjBs2ZnjXzpSUkrHZmmrePmo/b3kk7B2R6rGt5xn8eMMYwRqVx+pUuuuclOv97Ma/ZHboOjrzuy15tPekJzDFfYhTfVWuD42NjZpXp/MeedfltNbzDHoEbXbk3URpbrpDp8rKFZeeqWdsI00BAAAAAEDXQOjZGgkj1b+Hb3q8tSZnmM1aRve/Xd1Upo+MXd5b4sC56nZdC/HpY/GS46LGucxKG80Z3vxapBszrOAzMG09ZBp7O2j6mJtUfMIjpQ0PmRofaap9k9phGnskl3QpgiZ1zHe7Pe3dU6JT1hT3Wf2Tw0xRD8c7IjQg3DT2SJL1TEayVLZfv8wv0RGP1DdjTPC6otG6b5Fez89X/iuL2MgIAAAAAIB2QugZtZH6dcYd6lZ/TDutwMe7sZFTmfbdrBPm6WeDu+ni8cDmLlGpqdVFddOwH5m7v3ceb6iYpsG+aeVzCsNOR++z8ljI1PP0YWmSqnTWN4Jz49v6oM6huxY0tT7nGj28LXQ0p3dDIqm00LYhkWxriU4Lv+HR2cUFKlWa7rdviJSxWQ+MdKj20Nu2Xd5boHCm9rullGmR1y2NBR3y3W5X3g2N+vYfoyFOj47sNzYUqvSoMmiX92Q9M2+M+gb38q4P6hiquVPN3eDtHFo8e4xtwyNrfU8la1KTr2vavaN+oDhJctypSW1KTwEAAAAAgM9VTqfzO7OxOampqaqoqFBjY6NZ6gIe0uocbygWqkw7c5dqc8I8vTzlDlXtfVQLPx6pX2c9rmE6pg1563VgwHLljXWqdO+jWvixNDPzNWUmGYc5UxBmF+zQ8/qO4Wccu1lW/wDr+m0tLfZYnUqnfK2D6xKU1YYRhH1WHlP2SIf1zK13XW+rz7aFSjux2rbTuZSee1r32/PQuoPaZN813RLST5LcW7TCt9N7xmY9FbJOplvvumy7vtuFBLFm3zV6uGh68Oe0NXg6uvc9Sh+saWKavSX4flgivNeWWruhTNMTemlVG9dgHT16o54YXB3hO2N8781ykGa+2wOWK29sgo5um6PfVlt9rf9GvNcgq2Y7QHsaMkbbM5IlT4meNaeiS1LiIL05c6g3WJR0qvAt7eiVqbn9So3+4QPRU4Vv6ZcfSrOmetf4bCjeqZ/uCewOP3ZcpuamO7zT41u1i/uj+l3+T5QqqeGD59jQCAAAAACAdhCDoWf7mpn5mjJ7tiQY6uLaKfREx2uv0BOXj0d/l6+fpDbob79/RKveM6sAAAAAACBaTG+/Upy8RoGxaQC6jPsWyZUq6XQRgScAAAAAAO2E0PNKUXSNqnRRo6Z8ZVbQlbgaNLGf5Dlx/RU5yvMHP/iBfvCDHwS1paamhrSF63f5eVS/y89X/s/vVNWfpmrqr14zOwAAAAAAgFZienszYmZ6uyTpK+3edVZpknSyj1KeuM7sgM7ialDJ/Bo5dGV/Nv/zf/5PSdKuXbtUUFAQVRsAAAAAAIAPoSeALmHgwIFKT09XXFycysvLVVBQoDvvvFN33nmnvve97/nbwvUDAAAAAACwI/QEAAAAAAAAEFNY0xMAAAAAAABATCH0BAAAAAAAABBTCD0BAAAAAAAAxBRCTwAAAAAAAAAxJaY3MpqZ+Zoyk6SLx1/U7AOHzPIV6Cvt3nVWaZJ0so9SnrjO7NBJsjVx20Ld1TPQUntotZ5fvMneqUnZy6q16J6Lkrrp4LoEZRWZPVppwHLljXXaGsq0M3epNttauq5kPTNvjPqqXDvW79erZrkTjR2XqbnpDjUU79RP93jMMgAAAAAAQJsw0rOLGj16o/JylmumWWi1b5X39lmlneyjlAnOLhh4uvWuK1UrrEc0gackbVqWoJQJTq16Xxo1v1p5LrNHK1iB58XjLyor91HrcbkEngAAAAAAAFeumA49N+/0BlWM8pTkatRgRzcd3NZVwk5Lxr8rradUe+htFZu1Vti0zCG3Lqp3P7MSvZl9nZLKtOey/f7U6bxHkue8TpmlTra3pk6SVFnDKE8AAAAAAND+Yjr0hE2/b+Qw27qQ2s+jG9nZnN7f/9Zsap36WpWabQAAAAAAAOjSYnJNT99anj6lex/Vwo9tHRLm6eUpt+uTbe8pfspEpeiijm6bo89/ZL2u/pg25K3XAd+xVKCsv3xfL0+5Q90iHTPMeUPWEh2wXHljE4LPJdnWiXxIq3MmKiXwCkMb1pN8rE6lU75u23qXcwq1ZFpvfbDmDp2ddlr3p/kKbr3ryjBGaq7Rw0XTbe8lXB9JGZv11IJRqt2aqjc2msXW8K5b2vv9JA1ddrVZjMrMzNeU2TPwXQg2Ur/OelzD6kK/GyGfe8jn6v2+/bbaejpgufLGSju31WrclDvUTWXamVugW7Me17Aeks4UKGvnH/yvbg+zps7QJGe4tT6tdUDL9mtyfrmUOEhvzhyqysK39MsPA71mTZ2hSTeW6NmXP9Je87X+5+GOH4X7Fun1n9+puNN/1NRfvWZWAQAAAAAAIorJkZ6+ae1Z247polm06Z9xn2q3vaij9d3UP2OjN9zcWyb1uF2jE2wdkyYqb8rt+mSb97gbjl9UytiN+rW/z0NanWMFZL61H7cdkwY/rrzMh2wHkqRuGjbFClJzH1VW7os6Wu9UZtY8jdYftNB6/YbjF62Q07eWZFdZT9Khuxac1v3aYq2/uVof1KXp/m2b1cfXJWOzniqarvhDq/1rdL7rTtP9RYVKl6xA9LSWFJ3WkgWjFC8pZZr1vOi0lvj7XXretVRfU16OFUr3uENPWM/zcl7Ty6NHBr/A+G5k7S1Tt8GPa/UAqz5gufJyJqq3bV3QDcelYVNeC/SRJCVoXEa89uQWqFROjct6RP3LXvR+D5IGtuParl6vflIuKVlDhhiFIU71lUdH9pcbhWYkDtKb88YosXinJq9/S5PXv6UdZcmaNG+MZpl9W+jeUT9QnCSlDtGjZhEAAAAAAKAJMRl6tkw3dat7zz/arluPau30j6brpvhe9r7BI/MOHHhPpeqm/v29Adjo0fcpRWXaaR8RWL1erxy/KCXdZwtHvS4ef9E2cu+QDpRdlHrENzHCs2upPbRaK3IWWM82qfiER+rZW7dYLenTRim+7qDesW1GVJyzRaVK05iV2ZIW6A3fpkVrDqpWUunWwCZGK8KNCG2xa1TVhmUiDxyY4w8nd56xRv3agufQ9WHLtDPXNmrz4xMqldT7ppHe0aDpTulMQdDrDhx4XUfrpZT0eRrtb+0mlRX4Q+1u+lSv+F+ToFuN71CbfVimU5L69k8Oap7VP1nylGpvZVBzs2aNGao4T4lesu3E/mr+fp1SssaPa93CCvsO/l81SNLpD8U4TwAAAAAAEI0rOPSUSk/Zpgw3tXZj/ac64Au1JEllqq2XusU7JY3UaGe3sK8/8MmnuhgSoEpV54KDM2/Q1rGjONfeUSt5umlPa6e225jrb55dfIctqFyjwWlS7Yn/1tmgXidVUyfFJ7TDDkNNulrl1ZLjngtaa5Y6Qsjn7h2tO/vAISlhpPr3kC7WlgX1CB90X9Qnn9i+F3X/CDOlvj2Va0exR3I6bSMxkzXEKTWcLLdNWW+JSK/zbqQUd1PPoNYWe2+VHpk6lantAAAAAAAgald06NmumgipvKP+OsfaDWUq3VWm4cecSnkwTu27XVAYGcmKlxQ/cqFtuvppLSlaqLtamX1F6+knnEpZd40m7ipT6a66SxN+NsEMuQM6YARnFPaeKFWDfYr7EKf6qly7baM1WyTRoURJcemZ2j5vhu2RqeGtG+QJAAAAAADQJoSel0Dk0KvjPf2EUykTnDpyR5lK325QttmhvRWWq9Y3Bd4/Xd328E+L7zhrN5SpNEd6foJTKRN66mmzQ5dRrc+DRhBfYpXl+rsnMMV9Vv9kqaws+o2HKj2qlNRgW88z6JEf5fqgAAAAAAAAbUTo2RrWtGXv9HhrqnKYzWZG979d3VSmj4xd3lviwLnqdh0J+PSxeMlxUeNcZqW9Xapp7JF8peH9JM+J6zt+VGtzqg/pk3oppa+5mZW1JMKZEx26pEHzPFp5uNya4u6don7qk5YElN6+AW2cxh7Ro/pdfr7y83/HRkYAAAAAACAqhJ5RG6lfZ9yhbvXHtNMKM70bGzmVad+pPWGefja4my4eD2xOE5WaWl1UNw37kRmYdXWbVFDoltKm66mVHT6utIs7pN8Wl0lJE4N2ah89+hEN63FRR/9iW1O2s3xYplNK1pCpTvX1lGjHh0bdGsUZ2PAoWc/MG6O+QZ184ekYvdnKTYvCmjVEqZKkVLl+c69ZBQAAAAAAiCgGQ8+HtDrnNeXlvKa8KXeom6SUsdbznOUhozFbpMcdesJ3zJzHNayuQFn2ndr1By3MLVBp0kSrj/fcVXvD7fbdQtXrNXuvNzDzH7O113+pbczQijUHpZB1PY9pYobZOcZ9vFRZe8ts38HX9MTg6uAd3ztVuT4sk/o6k8NsROSt/3JziRqcY6x1OsdIhW/p2WJj3c8P92vy5hIpzLqeixODu7bYqzv0N+s0cTcHx6wAAAAAAABNucrpdH5nNjYnNTVVFRUVamxsNEsxZ2bma8rseUwbgkLOy9BjdSqd8rUOrktQVjvs4N51faXdu86q9/tJGrrsarOIy8y9v3ldv7grTqf/NFW/inqxUQAAAAAAcKWKwZGeCOvkNYpyT26gkz2qSXfFSZ6/aQeBJwAAAAAAiAKh55Wi6BpV6aJGTfnKrMSU7GUepambju9jlOfl614teiVf+fk/Ue8PntPUn63SPrMLAAAAAABAE5je3oyYmd4u+ad+p0nSyT5KeeI6s8NlK3tZtRbdc1GS5N7m1PiXzB4AAAAAAAC4UhB6AgAAAAAAAIgpTG8HAAAAAAAAEFMIPQEAAAAAAADEFEJPAAAAAAAAADGF0BMAAAAAAABATCH0BAAAAAAAABBTCD0BAAAAAAAAxBRCTwAAAAAAAAAxhdATAAAAAAAAQEwh9AQAAAAAAAAQUwg9AQAAAAAAAMQUQk8AAAAAAAAAMYXQEwAAAAAAAEBMIfQEAAAAAAAAEFMIPQEAAAAAAADEFEJPAAAAAAAAADGF0BMAAAAAAABATCH0BAAAAAAAABBTCD0BAAAAAAAAxBRCTwAAAAAAAAAxhdATAAAAAAAAQEwh9AQAAAAAAAAQUwg9AQAAAAAAAMQUQk8AAAAAAAAAMYXQEwAAAAAAAEBMIfQEAAAAAAAAEFMIPQEAAAAAAADEFEJPAAAAAAAAADGF0BMAAAAAAABATCH0BAAAAAAAABBTCD0BAAAAAAAAxBRCT6CrmfOkiorW2R5P6nGzjyV7WbVK325QtlmQJCXrmXkztH3eGM0ySzZjx2Vq+7wZenOcwyx5PVan0l11Wmu2AwAAAAAAdFGEnpfcbKUsKdCgCePMAuANPKc5deFQrlyu+dbjBb1o9pM3jFx0z0W5d8dpk1lrTy9110FPraZHDFcBAAAAAAC6FkJPoAt5fJhTUpkKFrvNUjBXg0qm1MrzfpLGv2QWfep03iPJc16nzJLN3po6SVJljccsWa5W1oN95HbUaNGGr8wiAAAAAABAl0PoCXQ1def0qdlmWDulRg5PLz2/7Gqz1EGu0/ht8VK/s9r9mFkDAAAAAADoWq5yOp3fmY3NSU1NVUVFhRobG81SFzJOiU/9WinxvucNKn15mior7H1mK2XJVCX6n4f2ccws0ADl6/Cfb9Og2Xeru9VeuXOiSv8W6Ofv2zfw/MJff6uPdu2RJF03YauG3R0XKBrsfZuXrV4bFulG9ypV3LxIabdJDcWr9GnldA2bkCbJozO5Q1VzwNd/rZJen65e/te75X5kvC74n3tdO7dEA9Nt6zp+tkVHFz9t7xLmWOa5LFm7rWvxCXdO7/tI6hHUKMl6P8/6Jm2b/SKc85JK0+ptORpRvUuurYnasSDd/924cChXk4JGalp9e/qe1+vwmuVaWGjrYnk8d50eSCjW6il5KjKLPq4GlcyvUdU2ZxOjPDvCt8p7+4xGqZdWPRhhSv2s3yn/P1LV8MFzeuS/9plVAAAAAACASyI2Q89blnsDytq/6ujzS+WdkDtOiTPHqXaz9fzOFzQis1/YYNIeaAaCzJP6eMWT8vj7KSgg9fYL9PG2bdUNfw4ftMZFFXKarNBTHsn9vMr0lAamSQ09qlTxyBHFvz5dN/hCw9F5uj1nlGQLEbuvLFXabcEhpDfwVFCYeO3cEvWuHKozeb7zWoFnUBi6VkkbklX1RJa+9nUbnafbJ5brU38fX2hpP6fVpoM6Yb3WF7rW7Epp8pzhrvXSsweZthDTWpPTvXW+cjZKkku5RROU5t4lV443xnStXKqFI+V/jfd5mOTXYoao2cuqteiea7VlQk+ZkXRH855bOrguQVlhUtlHf5evn6RK8vxNz/1slYg9AQAAAABAZ4jJ6e2OH5uBpyTtUaUv8NQ4JY7uJ53KDwoev9q1QaW1UuLo5brO3yprBGggzPzq2AldUJxuuMVXH6cbbpJ06qi/jyR5NpuBZ/uK61GlCt9oyB4OfbkrEGLG3ewdZdl94ijF1R9UmX/UpHRh8RbVKE23zA1sS3PtzQ6p/rg8thDx62ftgaek0cm6QVLNCXvU9rTO2ANPSTqQZQs8JWmTag64JaUpPstqGj1ON/aQag4EXvv1swWqkdRrYGCf8GvnTlQvueW2He/rZ5/XmXqHkiZGt5/4vy99Wzt37ozweFvLfmy+oiXK9I7LNmpz48dyS+pzq/f+u1aOVprK9I4VeEpS0eI8Ha7roRHTXNbz5f5Ni95xS6or1mr/JkbzjVGj32rcwIvSyesveeApSZv2dZNHF9W7n1nxeu34aUlSwyd7CTwBAAAAAECnicHQc7Zu6itd+HSPLfA03DJOveKlC1+cNAp7VPtpgxR/U3DoWXtCtU2Gl3v05TlJfadqxMzZZrHjfHbENl3co8ayoKqktYq/TWpw7wkOJeVWY30gGJWkr7/wSD1GaeCGPF0b1NfmQLm+lNRrQqmSfOFlS5VVqcH+3NlbkSb7N3zhC/my5UhzGO9Tkjap8bykG5MjX2sY/738QWVmZkZ4PKhlfzZf0QIh628WKccfVKbJNbCH5P7Y2H3drc+qJSUkyht7RuMb9XZInuprzMKlUXSNqiT1/v63ZsXr1V9p6tSpTG0HAAAAAACdKvZCz1tuU5ykhqrmp45H7tPHNoqzZTybJ+roXxu8weeSAo1YUqBBE8aZ3S4ta2RmXPoiDXu91PYIXUfz62eH6ugutzf49PVbaY6kfFpnHlmlM/Xe4NN7rBL1Gm10s6bQB50zZ1RwyJm3xXuc0YGQ1Tuq06Pzf/GNSk3T9T0k3TbduP5Spd1mO1aX5dTNPSWlTVBR0bqgxwP25U4BAAAAAADQrmIv9Kz4TA2S4nq3JXA8qy+bHNkZ3le7punwiok6vOK3Kq2Vut/9684NPq2RmQ3Fq3T0kZTQh7lJUd54f839mRU2hgSfm1TzhPX63INqkENJOcHBp3fNUI/O5NrOlXsweKSnL9C0hayh63R6R6Tqsy2h1/5Iio6a0+qb0THT25tSpi/qJLl3+aeqBz2a2qwIAAAAAAAArRZ7oadO6staqfvt44x1OW0q9qimVkocYE5FH6f42+NC1uaM3h5VPm8Fnzebix9a1xfS3hFCp7G31IXFVvDZ1BTyA1n61Ao+r3f6Gr1T6vVZQZObDPnX6gwKMs2NiVo3jT2SDpne3qS2TGOP5BpVeSRHwjdm4dJwfaPekqr+cbVZ8bpvkV7Pz1f+K4t0r1kDAAAAAAC4RGIw9NyjygMnpfi7NSxofc1xSpzp26DI6tN3qlLuDPS4bsITSolvUOmfXw40tshspTxlbH7UxLqh3vU/Jygxyin00bM2ELptum63bVoUKlu9NuxW96A2K7w8Xx4YTZm1O+Q41/5osOKC1hO1RmfeNjxwvKzdIdPbv66sktRb14eZGm93oeCgGnqM0sCQEaeXhxe3FutCz3QtzG2v2PNq7TnRTerXqM64I9n3XpRD3VRlfq0t9476gfdzdtypSbPMKgAAAAAAwKVxldPp/M5sbE5qaqoqKirU2NholrqOW5Zr0Oy7bUFeg0pfNnZTv/MFjci0j7g8qY9XBHZplyTHzAINuMnYCd46dsPOiSr9W3CbPTistNeDjFPiU79WSnyg5cJffxu0k3zTstVrwyIlnd+io4uf1rVzS2xTw9cq6fXp6vWZtyZJGp2n2801NeUxppJbr7P1aChepU9tu75Lss7lsLW45X4ksGu8l3Gs+oM6kSc5c0bpy10p/h3hvdPgbS/zsV+7FHo8S43tWJdemlZvy9EIFWt1s9PUXcotmiBzvK1763zlbAxuezx3nR5IaOaYrgaVzK9R1Tanxr9kFjvSt8p7+4xGVfdRyhORxlE/qt/l/0Spkho+eI4NjQAAAAAAQKeI3dATXVpg3U9jSnvWbg2bkBY2cEXA2g1lmt4vXlsm9JSxMmvHeaxOpVO+1sF1CcqKmMhKj/4uXz9JbdDffv+IVr1nVgEAAAAAADpeDE5vR9eXretvlFR/XB5z3c+yKmPDI4Tz9LZe8qhW0zf4xx93sK+0e0qtdNLRZOCp+xbJlSrpdBGBJwAAAAAA6DSEnugE1gZFPQbLEbSmZ7Z6ZY1SnDw6/xdGeTapKE5Dt8VL/c6qZNm3ZrWdfau8t88qzdNLq5qc1p6v/J/fqao/TdXUX71mdgAAAAAAALhkmN6OThN2Tc/6gzrxRFZg8yQ0KXtZtRYN7KZVD8apw2Lix+pUOkWXdio9AAAAAABAGxB6AgAAAAAAAIgpTG8HAAAAAAAAEFMIPQEAAAAAAADEFEJPAAAAAAAAADGF0BMAAAAAAABATCH0BAAAAAAAABBTCD0BAAAAAAAAxBRCTwAAAAAAAAAxhdATAAAAAAAAQEwh9AQAAAAAAAAQUwg9AQAAAAAAAMQUQk8AAAAAAAAAMYXQEwAAAAAAAEBMIfQEAAAAAAAAEFMIPQEAAAAAAADEFEJPAAAAAAAAADGF0BMAAAAAAABATCH0BAAAAAAAABBTCD0BAAAAAAAAxBRCTwAAAAAAAAAxhdATAAAAAAAAQEwh9AQAAAAAAAAQUwg9AQAAAAAAAMQUQk8AAAAAAAAAMYXQEwAAAAAAAEBMIfQEAAAAAAAAEFMIPQEAAAAAAADEFEJPAAAAAAAAADGF0BMAAAAAAABATCH0BAAAAAAAABBTCD0BRCV7WbVK325QdlDrt8p7u0wly74NagUAAAAAAOgMhJ6X3GylLCnQoAnjzELHGZ2n218vVVKWWUCXkpGlHUXrlDvHLHQhj9Vp0T0X5d4dp01BhauVtTtejnvOaPdjQQUAAAAAAIBLjtAT6GhWmFnkfyzV6gyz02XA1aCSKbXyvJ+k8S+ZRUkv9dSq97spbUq18lxmEQAAAAAA4NIh9AQ60pwnVbQgXTqUK5drvvXIk+Y8qcfNvl3c2ik1cnh66fllV5slv03LbtJBz0WNyjGnvwMAAAAAAFw6Vzmdzu/MxuakpqaqoqJCjY2NZqkLGafEp36tlHjf8waVvjxNlRX2PrOVsmSqEv3PQ/s4ZhZogPJ1+M+3adDsu9Xdaq/cOVGlfwv08/ftG3h+4a+/1Ue79kiSrpuwVcPujgsUDfa+0ei+slRptwWeNxSv0qfPeicemzVTza4UnckLPL92bokGpjsCDZ9t0dHFTweeZ+3WsAm9dSZ3qBon2o/tlvuR8boQ6ClprZJen65e/ufh+lxiGVnasSBdZ7fOV87GQPPjuev0QEKxVk/JU5HR1/d5S2V6x/WCXvQ/t8x5UkXTnIHn7l1y5fiOkqbV23I0QsaxDY/nrtMDaWZrgDvc9dr6XziUq0mL3YGGOU+qaNpNOrxmuT6bZu8b5j00ef02rgaVzK9R1TZn+FGedo/VqXRKrdwt6QsAAAAAANABYjP0vGW5N6Cs/auOPr9UX0neEHTmONVutp7f+YJGZPYLG0zaA81AkHlSH694Uh5/PwUFpN5+gT7etq264c/hg9a4Voacdt5QMzhM7L6yRNcXDFXNAVvH0Xm6PWeUvjRCzoBs9dqwSEk97MeyQsv6gzrxRJa+li/0tBI0fyBqvVa2ftb5FBLAdnLw2dLQ0+one5iYkaUd0yo1yRYIulYu1cKR0uE1y7WwUJJcyi2aoDR/cGiFnj3DhI3hRLi+AOv4daHX2t0eVtqDTPNabAFs89cfkL2sWovuuVZbJvSULQaP4Cvt3nVWaSf7KOWJ68wiAAAAAABAh4vJ6e2OH5uBpyTtUaUv8NQ4JY7uJ53KDwoev9q1QaW1UuLo5QqOahpU+nIgzPzq2AldUJxuuMVXH6cbbpJ06qi/jyR5NpuBZ3vK1vU3SvrsSFCIeGGxEXi2RNZ0JfXw6EyuPZB8Wmd2uaUeo9Tb2ACpoXiVbQToJnncHqlHb11rtXSfOEpx9QdVZgWeknRh8RbVKE23zI1m0vO/a9lbO7VzZ4THW8v07+ZL2kPaTequen30nm30ZGFeUOApufTgyB66cCjPCgwlqUg5W8uktNHWmp1uLSwsk+TUA0XrVJTbtoUuXStHK01lesc+arQwT78/VG87Z8CFQ7m28NKtohP1Us+bdLvUwuv3+VbjBl6UTl7fgsBTkq7TkZOSEr5hijsAAAAAAOgUMRh6ztZNfaULn+6xBZ6GW8apV7x04YuTRmGPaj9tkOJvCg49a0+otsnwco++PCep71SNmDnbLHaQTWo8L+m26Rq2cq1ZjEr3gWmSqtRohqV5R1Qj6YbE4Ojqy8rgfbu/fnaojtpGiMbfJjW493hHffq51Vgvxd3cxDzuEP+tZTMylZkZ4TFjmf7bfEl7cJ/TBfXQiAVNbDg0Z4DSzGBUgdf63+bGF+Ry5epwnaS0CdZGRq1ZzzNNroE9pLpz+tSoFL3nDj6n5eznwddWtHi5XL4Rpy29fknSN+rtkDzV19gbm+Su7iY5vlE0nzYAAAAAAEB7ib3Q85bbFCepoar5qeOR+/SxjeJsGc/miTr61wZv8LmkQCOWFGjQhHFmt3Z1YXGKThR7vMHn66Ua9nqpbo9qJKVNfZURUgZEFVSOTtYNkuLSF/mvyftYpKQeZucuqjBPk1y75FYPjVjg23E9OKh03XqTFFS3HkHrgPq4tXCKtYnR1sDIz9w5Zr8WqK6MuDZon1tb/jlFd/0AAAAAAACXl9gLPSs+U4OkuN5tCRzP6ssmR3aG99WuaTq8YqIOr/itSmul7nf/usODT+8oyxQdfWSVztR7w8ZWB58RNHxhjAZsyoFyfembAv9ISujDvjFSszppervknert223dH1QGgs+iz89JqtfhNb4d2YMf4dfk9I383CW3pLSMLLVtwnswc2RnU1p9/QAAAAAAAJeB2As9dVJf1krdbx9nrMtpU7FHNbVS4gBzKvo4xd8eF7I2Z/T2qPJ5K/i8uZ9Rs64vpL2tNqnmCSv4NEdmWkGkOU3d58IJt9RjsByjjULWcPWSR+f/EjydvWmtmcYeyaWY3u5SenOXuvEFK/i8Sbf5pruHnQbeRoWVOhtxxKa1JmfagJCp8a770tRdZSqOJqiM6vqvUZVHciR8YxYiSku4KHmuUctjWAAAAAAAgPYTg6HnHlUeOCnF361hQetrjlPiTN8GRVafvlOVcmegx3UTnlBKfINK//xyoLFFZivlKWPzoybWDfWu/zlBiVFOoQ+2Vkkb8vybB0mSRo/TjT3Cjcy0gsj06eGnLudt0Zl6h5Ky7Mdbq6QJadJnBVFujLRJNQfc0m3T233EaZtZoWLaMN/4Smu3cqOba+XSkKnnjw9zSjqnz3yb/hTmqcAtpU1rYt1PuZS7LXQ0p3dDIsldaNuQSJJUpi/qpO4jJ4QEm5JUtPiA3HLqAfuGSBlZ+vnIHrpwaFfzu8Pbtej6fa7WnhPdpH6NatnqsV9peD9J1dcomrgcAAAAAACgvVzldDq/Mxubk5qaqoqKCjU2NpqlruOW5Ro0+25byNeg0peN3dTvfEEjMu0jLk/q4xWBXdolyTGzQANuMnaCt47dsHOiSv8W3GYPFSvt9SDjlPjUr5USH2i58NffBu0k3yKj83R7zijF2ZpqdqXoTJ6twW+tkl6frl62luC+2eq1IXjdzYbiVfrUtgO7snZr2IS0Js5hE+baJI/O5LZid/n2lJGlHbZ1K91b5+vtW5dq4UC3Vtt2RX88d50esKehdcVBdR/XyqVaONJYrNTe1zifV5ne8W0oFCI0iHVvtU83b64uac6TKprmDG0Po9nr93E1qGR+jaq2OTX+JXshjMfqVDrlax1cl6As84YBAAAAAABcArEbegJoV2s3lGl6v3htmdBTkVdm/VZ5b5/RqOo+Snki4gITAAAAAAAAHSoGp7cD6AhPb+slj2o1fYN/zHOI7GXnNMrRTQe3EXgCAAAAAIDOQ+gJoGWK4jR0W7zU76xKln1rVqXH6rTonotyb2NaOwAAAAAA6FyEngBa7qWeWvV+NzkGNip4m6pvlTe+Vp73k5pf8xMAAAAAAKCDsaYnAAAAAAAAgJjCSE8AAAAAAAAAMYXQEwAAAAAAAEBMIfQEAAAAAAAAEFMIPQEAAAAAAADEFEJPAAAAAAAAADGF0BMAAAAAAABATCH0jClpWr1tnYpyXWZBmvOkiorWqWhblsJUL3Mu5Rat046VaWahWdnLqlX6doOyzYIkJQ7Sm/NmaPvsQRpr1mxmTZ2h7fNm6M1xDrMUvSFjtL0F52wR3/XPG6NZZq3FHFo82/v+vI9MLU40+9i05/VfKZr7nrkaVLKrWnmx9x8uAAAAAAAd5goPPdcq6fVS3T43bOSFS+Dx3E4MYh+r06J7Lsq9O06bzFoXNmtqEwFZu/No5ctvafL6tzS5sNwsXjYu7T1rZ0VxKjh5UaPm12mtWQMAAAAAAGFd4aHnFWTjC3K55ss1JU9FZu1K5GpQyZRaed5P0viXzKKl0qNKSTrv0V6zZvNqvjcU/Okej1mK3of7vQHjyx81ec4WqfxIP13/liav369XzVpHac/rbwnfyFL/oy2jWjtJC75nTz+RpIOeWk2PNCoZAAAAAAAEIfTEFWntlBo5PL30/LKrzRIuE2PHZWp7RrJOFVojUde/pcnryzTkch3R2aSrlZXbSx5HjZ5a9q1ZBAAAAAAAhqucTud3ZmNzUlNTVVFRocbGRrPUZVw7t0QD021rLH62RUcXPx2+ZmgoXqVPn7VNeB6dp9tzRinO3+CW+5HxuuB/vlZJr0/XDcWr9GnldA2bEFhbsmZXis7k+Z9KylavDYuU1MP33KMzuUNVc8Dep+Uez12nB8ylLN275MqxxnPOeVJF05zhawbXyqVaONJ/YSF9XSuXauFAt1ZPqdSDRRPkO+2FQ7matNjt7yeFOa/K9I7rBb0oSRlZ2rEgXd1t1SB1xVptjkg1jxd0bS7lFk1Qn0O5+r2ybO/Bdk47V4NK5teoapsz8ijPFpg1dYYm2S7pVOFb+uWH9h7eYG5uv1I9+7JHk+aNUV+rvaF4Z/DI0CFjtD0jOfC8bL8m59umkycO0pszh9q+gwZPiZ71ja40+9prBvM9hJzXbsgYbc/oqSObd2plZbhaE9cvSUrWM7Z7ECSkv0OLZ2dquP8/U49xXutYIa+zMe+DKeS+mNdnntO6pvP7NXm/I+jYIZ+n77O3/ZwJ1ydaazeUaXq/eG2Z0FPen2YAAAAAACCcmAw9vaGmgsLEa+eWqHflUCOAtIWV9pDTxheQ2sPL7itLlXabPaz0HqeXFBSIhl6H1S8kgA2+1pZJ0+ptORohe0BotVWHCzabqvkCT+nwmuVaWBhoe/Dz5crZaO/jDRTdW+d7260w0v9cVqg5rVKT/Oexzt0zNIR8PHedHkgIE3La+ILdoHPMeVK5esF67g0902QPTCO/3+xl1Vp0z7XtFxxZ4VplpNAz3REcoFkBYbiQNChYixDmzZo6Q5NuNAO78JrqO3ZcpibV7Axcgy8kjBQkNhV6+jV//UGGjNH2DGlH0BT80EDTex9lO7fVJyS4DK+p+yAFPhN7MOn77AKfkz2Ibfrz9IbJ5YH3Zd1btTX4fKxOpVNq5W5jYA8AAAAAQKyLyent197skOqPy2MLEb9+1gw8W2Kteqc71FC8Kui1FxZvUY0cSppobCtSf1AnbCNAv/7LcTXIoeutkXTXzp2oXnLLbQWekvT1s8/rTH2YYzVnzgSN6Fmvwxsjh4XRuD2hh1TnVpEVeEpS0eJA4GkXFD5u3KXDdVLaMNtWRIV5tsBTktxaWFgmyan0ObbmlsjI0kQz8JR3jdKQawsaIepW0Yl6KW2AHg/q9K3GDbwonby+fQLPFjpVaAsKPyzTKUmJvSKPNr4U9u6xBZ7yrgG6u0yS03mJ1sVM1jMZyTpVGLzm6NhxQ9VX5dphC0337tmnIx6Hho/xjSYt145ij+QYqrnzZujNcW25lw4tHpEsle0PCiS955T6jjCny5drx/omPs/EQRrvVPD7qvxILxV7FJc+tG339qXr5ZbU+/tMcQcAAAAAoCkxGXp+/YVH6jFKAzfk6VqzGI2s4eol6ctKcxTo06r9TNKNycHHP1+ur+3PD2Tp00d8I0Sz5UhzSJ8dsU2Ll6RNajwf5ljNeHyYMySkbItPq+ulnula2OxO6mUqDgob3fqsWlJCYtOvc58z3nfLuO5LU/eQc4Z34cRfWhAAf6PeDslTfY1Z6EDl+jBkRGfXdOpcG0YhRmnWVO9IzR1B98ahsf0cUlmZsfmSR2fOS7rR4Q8g9+7Zqcnr9+uUpLj0TO9GRq1ZzzMxWT90SA3n6oyCR3tPeiTHjcFT8j3ndcr+XOX6pW0jq7EDUxQX5jPfW1MnqaeSEoPbo3ONqjySI+EbswAAAAAAAGxiM/R8dqiO7nJ7g8/XSzXs9VINWxnlSEo/jxrLzDZLj95RBJVpur6HpNume6/H9ki7zex76RUtXi7X1jJv8Fm0TkVF61SU22SM2aTHc61j+B5NreHZBO8I1HP61CygHSTrmaCdz2cErUHZoYaM0SSnR0f+ZE4376kbHZKc5q7sxtqjft7AcfL6t/Ssf+Rnpha3IlisrIkU+EYXVPa9ySEpWZOM6w9a8xQAAAAAAHSomAw9JUl543X0kRQdfSRF7s+ssLHVwWcE9VXBIzub5FZjvbWhknVdQY8nsqI4VgfZ+IJcrvlyuebrHbektAmtCj69a3DW6/Aa77FcrvlyrSlu1UhP7wjUm3S7WUAb2dbE9O98bgWHHc47rb2heF+YtUHrdN5jbWxkuy7/I9KanL6Rn5tL1CD7NPj2UKczIdcZmXe0bLl2mNe+/i1Ntk+LBwAAAAAAHSZ2Q0+bC4ut4DNkCrk3iIy72dz+3JJ3RDVy6MYfZRuFtYq/TWpw74kiqIx+Gvujv8tXfn6+Xv/NvWYpfBg4Z4JG9LQ3tN6LOVbw2dy0dbmUnmafWu59LvcB/4ZITQn7PmyKPj/XurVAI7r8pwefOhdmynW0hjjVV9Kpw5FDxI7im9b+UtgNfUKnsbeHJu9ZZbn+7pH69jeD0khT7ZvWPtPYI+mM5RkAAAAAALj8xGDoma1eG3YbU6m9IWXImpu+IPK2ieo1OqhgeVpVxR7FpT8VVO++crp6ya2KCDu+R3Kh4KAaeozSwBaNOH1UQ1K9/y+u/1iZsWfRe25dkFMTV1qBbUaWdky7SRfMZQlbJE2rtz1pbPhjhZfVlU2uk/l47gSlqUwFi91WS5m+qFPwBkJznow4vd0Xavrfh8m3UdK0pVqdYWuf86RyWxWEXq09J7pJ/RrVkk+hK/KGaska35bNe6rOq0HBQd+sqZdgenvEae0Br+4vUYNjqOZONUNIm8RBejNMfdaYoYqTR0f2B+8c3/Q982jl4XLJOUbPDAm0jh13r4Y7Qo/VrA9LvJsuzRzTtk2LwnmsUWmSqv5xtVkBAAAAAAA2Vzmdzu/MxuakpqaqoqJCjY2NZqmLWKuk16erl62loXiVPg0bUmar14ZFSuoRaDH7Xju3RAPtYVD9QZ0Imo5une+zLTpq25k9vNBrk6SaXb4NjwIe/V2+fpIqNXzwnB75r33BRVlh4jTfQodlesf1gpS7Tg9ol1zW7uneqeZBr/IL3hHdpdyiCbJ3vXAoV5P8YabkWrlUC0fabpTMHdN9jGPVFWv1RunnC9J11tyFPdxxwxwz5H24A+/Rd74+Ya/3nN5xvaAX/a2SXA0qmV+jqm1OjX/JXoiGNT3cbJasqc3enbvHjsvU3PQ6/3Mv72sTi3f6N7+ZNTXSmpXSqcK3gndZ9x/X9p30lOhZa+p3SM2mwXZODRkTtM5kQ/FOvaR7g683cZDenDlUcf5eNrZztuz6W3bPvML3DboXxvVLwddkCrkvZt+Q45nX5NDi2ZkarsjnsAt7T8r2a7JtV/pord1QpukJvbTqwTiF+2kGAAAAAAC8YjT0REeIGCJehtZuKNP0fvHaMqGnmoupgS6hXcJ6AAAAAACuDDE4vR1o3tPbesmjWk3f8JVZArqgb5WXUyOHp5e2EHgCAAAAANAsQk9cmYriNHRbvNTvrEqWfWtWgS5l7YYzGuWI1xamtQMAAAAA0CKEnrhyvdRTq97vJsfARmWbNaCrcDVoYr9uOriOpRgAAAAAAGgp1vQEAAAAAAAAEFMY6QkAAAAAAAAgphB6AgAAAAAAAIgphJ4AAAAAAAAAYgqhJwAAAAAAAICYQugJAAAAAAAAIKYQegIAAAAAAACIKYSeAAAAAAAAAGIKoScAAAAAAACAmELoCQAAAAAAACCmEHoCAAAAAAAAiCmEngAAAAAAAABiCqEnAAAAAAAAgJhC6AkAAAAAAAAgphB6AgAAAAAAAIgphJ4AAAAAAAAAYgqhJwAAAAAAAICYQugJAAAAAAAAIKYQegIAAAAAAACIKYSeAAAAAAAAAGIKoScAAAAAAACAmELoCQAAAAAAACCmEHoCAAAAAAAAiCmEngAAAAAAAABiCqEnAAAAAAAAgJhC6AkAAAAAAAAgphB6AgAAAAAAAIgpVzmdzu/Mxuakpqbq3Llz+vrrr80SAAAxYdasWWZTWK+++qrZ1Cqr/2uVJGnhbxaZJQAAAABAlAg9AQAIY9asWXo572WzOcjsrNmEngAAAADQBbUp9KyrqzNLAADEhDlz5uiF//2C2Rzkyf/vk9q4caPZ3CrPPrdekjT3F/PMEgAAAAAgSqzpCQAAAAAAACCmxHToOTPzNeXlvKaXR480S8ES5unlHG9f72Ojfp1gdorSY3Uq3VWntWY7Yk567mktKTqtp1Zmm6UYkq2J27zv8+E5Zi1GZWzWUzH3fpP1zLwZ2j5vjGZJGjsuU9vnzdD2qclmxy6qhdfvalDJrmrluYKb2+5r7dlxRuU7zqj8OZZ3AQAAAICuLKZDzxZJmKeXp9yhbmcKlJX7qPWYo99Wmx2j4GpQyZRaed7vrqfNWgtdO7dEw17fre5mIcak557Wkm2b1ccstEKflce0pKhQ6WYBXQqfU9ext8a7REnDudClSmZNnaHtswdprFnoQiJef1GcCk5e1Kj57fkPT9/qD29UKe10byVPSlLyL641OwAAAAAAupCYDj037/SGmLMPHDJLfqP7365uuqijf/mDWWqlr7R7fo0cJ/to6LKrzSJiUHFOqla4UvX84k1mKYZsUsEU7/t8o32WL0SnqNN5jyTPeZ0yS5eFll//008k6aCnVtPfblC7jMEe95WGOG7QgR2EnQAAAABwOYjp0LPlqvV5W0Z22mQv8yhN8dryxHVmCQC6lqrzapBUWeMxK5eHJq//amXl9pLHUaOnln1rFqPX9xs5zDYAAAAAQJcVk7u3z8x8TZlJgeelex/Vwo/tPQJGj96oJwZXa2fuUm02i1H7Srt3nVXv95OaGOW5VkmvT1cv/3OPzuQOVc2BcDWTW+5HxuuCraX7ylKl3RZ43lC8Sp8+GxhxeO3cEg1Mr5L7kS26fsMiJfWwCvUHdeKJLAWtSpe1W8MmpAWef7ZFRxe3coJ+xmY9tWCU4v0Nbr3rylBx2Jqh7qA2TZmps77nIf09+mDNHSoolKQ1erhoulL8NZPtvJY+K48pe2Qgvqg9tLpVozTTc0/rftvtKt0aaRSkeY3264+G9zjxh1br+c8f1JJpgZOHnjtbE7ct1F09fc/Dn9N8D37uLVqRs6DFx5HCfU72e2/eA5P5OTV/Xu/nWKV3XW+rj72v+f1p8Wce/hpD720MSxykN2cOVZzZ7uMp0bMvf6S9kjRkjLZn9NSRzTt1ZswMTXL6OpVrx/r9elWy1uAco8TinfrpnkAwOXZcpuam19n62dsDn1OD8brWWLuhTNP7xWvLhJ5RLzcStHv7f3pU/pN/6sBzN+uhPYE+7N4OAAAAAF1TTIaeftZ6nVVm6DlgufLG+v9CD3WmQFk7WzHd/bE6lU75WgfXJSiryCwqEGoGhYlrlbQhWVVGABkIK4NDzgDrWPbwcnSebs8ZpTjb8b3H8YYIgUA09Dq8/RQawLYm+LTCL9mDpYzNempauZ7PWRDUNT33tO5PCA2pAtbo4W3JKrTVvUFdUyFYcMhp531taAAbdK3Rso5RGzYcs4I0f4hotRnvqWXsoVzgPXjft0KDYNs5Q/uEuRdzCrVkWlqEQNBX7x1y36UI9zHCZ97859Sy67cHmYFrDn1tyPuMdK0R2sJ/rrFv1tQZmnSjLeQ0DRmj7RnWBkJl+zU5v1ySQ4tnZ2q4fK9reeg5a+oMTXLaAlMrgFVbg8/H6lQ6pVbubU6Nf8ksNo3QEwAAAAAuX1fm9PaPl/o3Ldpw/KKkMu30b2L0aOsCT0lr76iVPN20J2zgKWl0sm6QVHPCHiI+rTPmiMsWuHbuRPWSW277aw9kqazYI902Ub1GB/ev2ZViGwH6tGo/k3Rjsryr061V73SHGoqftwJPb58zu9xhj9WstN6Kl0fu92zBWeHMkPCrZRboDSMcLN56ULVyKO2+KFfqy9isMWlS6VZb2FY4U+8c8ih+5IMds7FORrLiJZUetb/30PcUlbqD2mQLDM++d1y1cqiXNWKzz8qJSpFb79ru99nFL+iDOofumrbGalmjwWlS7aG3A/di49v6oE6KH/jv0W8s1Y6fecuuP6B0q3091QU67paUkOx9Dy38zNOnjVJ83UG9Ey7sjdK/L31bO3fujPB4W8t+LEn/qd+H1GyP5//Te7Ds34fWbI/fR/mfQEdoKN5pBZ6S5NHekx7JcaP6Gv2alDhI453SqULbyM/Kj/RSsUdx6UM1K7h3dF66Xm5Jvb/fDlPcAQAAAACXjSsz9OwQ3yo5QVL1NYoYmxwo15eSek0oVVKWWYxGthxpDqm+KiQs/fovx9Ugh64PGsjqUWOZ/bl0YXGKjvoC06zh6iWPzv/FuPKyqjDHagF3lWrl0F0LjmlihllsB4XlqjXbWqDPfYMVL7eOG4Oyzn5eJam3+nTgtaZMO62H55jFVqouDw5MC2fqef8GQ9lKH+iQ3EeMUZSbdLbaHgZ6w9iwzOO3RLt95i28fj+PatxBDd6NpaxQuWWfuRUAn/jv6N93GP+9/EFlZmZGeDyoZX+WpP+ln4fUbI+n/pf3YJt+HlqzPX4e8YfNpWOup7l3z05NNqatN2fswBTFqVwffhjc7t2dvaeSEoPbo3ONqjySI+EbsxCVdUM8kucG/dk2yhMAAAAA0HURel5ST+vMI6t0pt4bfA57vVTDXi+JfiSlz/nykNDT54bElg8BuzaxtySHknJ812Q9ckZFXtuvKYUz9bxri0rl0F0LTmtJ0WktKSps9UjKPiuPWcfwPULXXWyJWxIcktJ0f9CxTgetjdn+FugN12p9UOcNPr3nbGsw2JR+6tVTUtp0454Za3cWztR+t4JHuM55UHf1NEeltlC7feYtvP4W6pzPHNHqe5NDUrImzZuh7faHb/p8J1r33BmV7zijuz5MUvLD3RTlDHkAAAAAQCch9LzkNqnmiRQdfSRFR3MPqkEOJeW0IfiM4MvKlg8B+7qyytpQybou43Emz3xFSyzQG65UrXClasVWtxU8RR+C+dZtLN1qHcuVqhWuLSo1O7ZARbXHWgvTfizfI8w6le1mkwqmWOdZ452a3/YRkZGcVE2dtRFRyHsMjICUstUnQcGB4LS0Nm7a0x6feUuvv2U64zO/0qa3t4dT5zzWBkhvaXLIY6dWVpqvuHTm/yJJyZOS9MGQMyp/46IeMzsAAAAAALokQs92c7XKqyUlfKMW5xAHsvSpFXyaU8i9QWRvXR82DN0kj9sj3TZc3Y3KtT8arDi5VRtNUBntNPb7Fun1/Hzl5/9Oj5q1cDZmWCFY6BTyimqP1LO3bglutlhTnesOqrAFQVxz09Sbq4eY9Tvl5+cr/5VFutestVbhTD1vBZ++NTjbV6Rp4IY5D+qunh59sCY4CGx94Glo4jNv+nNo4fW3UNPn8vEGrfEJ/YJa06fZd6JvuViZ3n7qXCvW5mwRh8b2C+zQrnabxh7JN+rtkDzV15iFqMz/0CE5vtSPx5kVAAAAAEBXROjZjp4+Fi85Lmqcy6xYsnbr9rnBkag3pAxdc9MXRCZNXGsUvL5+tkA1SlPaSlt9dJ6c6Q41FG+JsON7BAeyVPGZ1GtCy0ac3jvqB9a091QNCbPDSJ+Vx0LWr0wfliapSmeNkXXeUCpNY1aGi4qtAKznYKX7QquMzXoq0vR237qSYTa7kXwb9Th014KWjT58dHCq9/84fqCx95nVFppTqKeM9+ZdZzJ0Lcr2Urz1oGp7jlJ2boT7oMC9aq/gNZrPvLnPqUXX31It+sw3qfiER0qb6B9922flMd2f4GnV2rGxwhtEJmv8uOCAMjp1Ou+R4vola6wU2N3dPOSHJTricWj4zDFt27QonMcalSap6h9XmxUAAAAAQAy7yul0fmc2Nic1NVXnzp1TXV2dWeoCHtLqnInhQzGVaWfuUm22tYwevVFPDK4OaW+dr7R711n1fj9JQ5eF/wP72rklGphu/4vfLfcj48OHlFm7NWyCPZUy+65V0uvT1cvWo2ZX8HR07/mkM7lDbTuzhxd6bZLqD+qEubv8fYv0+s/vVJxO649Tf6XX7DVLeq6xBmPdQW2KMDXZN4XdL6hvtiZuW6i7evqKbr3rOqLBRdMVf2i1bdduy5xCY71Gt9617XSucNcmazq1udP4rN8p/z9SJc/f9NzPVmlfUHGNHo4UvhrnDHl/Ya6pZaxzhrvWEOGvzz59PfS6LPb7n7FZTy2IMOLR+ExD7msTn3nzn1NLr1/6YE3z09RDrk2hn3lQH/cWrciRHi6aLrVpyv/lbey4TM21/0zwlOjZlz/SXkkaMkbbM5J1qvAt/dLYgChYsp6ZN8Y/YrSheKd+WjNU2zOkHcaGR7OmztAkc8R52X7b7vDRW7uhTNMTemnVg3GRN5mLYM6cOXrhf7/gffKfHpX/5J868NzNesi2mdGT/98ntXFj+3xBnn1uvSRp7i/mmSUAAAAAQJRiMPTsXNnLqrXoHungugRlFZlVoGuwr5UaFOj5Qs4WBatAF+dqUMn8GlVtc2p8K3YgIvQEAAAAgMsX09vb2aZlDrl1UaNyGlq+tidwiXl3NXfruJnVFJZf0VO6EUu+VV5OjRyeXtrSisAzxKlr5DHbAAAAAABdFqFnu7tO49f1ksdRo0UbvjKLQJfg3dU8TYPNdThzvVPKS48yyhOXt7UbzmiUI15bWjGtPaw916hKX2r0pKDFPgAAAAAAXRTT2zvKY3UqnSJtmdBTT5s1wKepNTPtOmC6efg1Pc21NYHLkKtBJfMv6ngblxkJmt4uSfpae3ZUKU2STvdW8i+uZXo7AAAAAHRRbQo9v/6aES8AgNg0a9YsvZz3stkcZHbWbL36qn07ptZb/V+rJEkLf7PILAEAAAAAokToCQBAGLNmzTKbwiL0BAAAAICup9WhZ0VFhRobG81Sp5o8ebL27dunmpoaswQAAAAAAADgCsFGRgAAAAAAAABiCqEnAAAAAAAAgJhC6AkAAAAAAAAgphB6Xvay1WtDqYa9XqqkLLOG5vz4h1tVOH65fmwWJClxkN6cN0PbZw/SWLMWwaypRn/fMXyPKI512RsyRtvnZWpxolmQxo7L1PZ5M/TmOIdZAgAAAAAAaDNCT8QM18qlKip6Uo+bhUi+/4J+MyBO7hNL9Wez1irJGuKUTh3+SHt9TZUf6afr39Lk9W9pR1lw78tJSJjbArP6J0tlJVpZaVYAAAAAAAA6FqHnZW+Tap5I0dFHUnQmz6whoh7LtX1EP134+Lea8w+zaKn0qFKSznsCIWYTxo4bqr4q14cfmpUrUOIgjXdKpz4pNyuSpL01dZKkyhqPWQIAAAAAAGgzQk9ckXIG3K3u9X/V83/fY5ZayaGx/RxSWZleNUtXoLEDUxRHAAwAAAAAADrJVU6n8zuzsTmpqamqqKhQY2OjWepUkydP1r59+1RTU2OWuo7Rebo9Z5Ti/A0enckdqpoD3mfXzi3RwHSH9NkWHV38tL9XaHu2em1YpKQe4Y8TJOScbrkfGa8LQZ1s5/AxrqGlHs9dpwe0S66tidqxIF3drXb31vnK2Rimb1rg+YVDuZq02G3vIsml3KIJCnSr1+E1y7WwMFzNVKZ3XC/oRXtTj+XaPv5unT08MfIoz2gNGaPtGT11ZPPOiNO5Z02doUk3lujZl23T3+0SB+nNmUNtn1O5dqzfb4SoDi2enanhYZbCbCjeqZ/u8Y2cTNYz88aor7/qMa7NW08Meo13rc256XXe84Zcj8ET6b2EPzYAAAAAAMClwkjPS2qtkrKkske809GPPpIi92cOJeWUqNdob4+vnx0q92eSbpvob9PoPDlDgtDAtPaju8yQMODauSUaljNKX+6ynzNNaa8HzunrNzBdOpMb6Hfii4mt3xwpbYKKFqTpozXz5XLN1+pD9UqbtlSrM3wdXMotWqcHEoq12uXt41pTLI3MUVGuy3YgK9R07/L2cc2Xy3VAN8/JkrdXkXKs9tWH6q2Q09dvvlxm4Cnpx7cOVHed1NH2Cjx961d6SrU3QuDZnLHjMrV95lBVFnrX//SuAZqsSUEbAVmBp0r0rNXn2WJvqHiq8K1AwDhkjLZboaPvWM8WS8NnztAzQ/ynbJ65HqkncN7J69/S5LCBp6QhTvWVR38/QeAJAAAAAAA6B6HnJfW0zjyRpa9tLRcKDqpBDt34o+xA2+JVOlPvUFJWnq5VtnpljVJc/UGdiHrU5Vr1TneooXhV0HqfFxZvUY0cSpq41t927c0Oqf64PLaRol8/O7QN64TaR2NKRYsPyK0eGnSfd0yma+VopalM70zJU5HvJYV5+v2heiltdCAczUhUH0nuo/5e3qDT/rqojJMrKU76/KhyzVKrhdnAKCrJmpTuUEPxTv3SNh381fz9OiWHho9J9jYkJuuHjuDz7N1TolOS+va3+sihxSOSpbL9QaMs9+7ZpyMeqe+I6DYjag02MAIAAAAAAJ2N0LOzHSjXl2abNqkm76AaeozSwNcXKamHR2fygsPSFskarl6SvqzcZBSeVu1nkm5M1rVWy9dfeKQeozRwQ56/rU3q3CqyAk+vMn1RJ3VPcEpKk2tgD6nunD61d5FU9J5bF9RDN/vmqxdW6qyktGnrlDvH6Nwq/XRTD+mC56RZaLU2b2A0xKm+YTf1KdeHZZJudHiDyt43Rpxq3nDOuzGQLxj1P/fzaO9Jj+S40TblvQM0s4ERAAAAAADApUDoeYldO7dEw14vtT2mq5fZSZIOZKnMmrrcUPx8+LU6W8SjxjKzzdKjdyD0fHaod5p8j1Ea6Lu2lYGRoB2iujLiaM0+t/pSzyLluHJ1uM4bfBYVrVNRkX2afGfzbmDUUFzSxg2MPDpfZbZZfEHlhyUhozW9gWvoVPLQANWnp5L80+Xb39iBKYrzlGhHawNgAAAAAACAdkDoeQn5Ngqqsa2vefSRLQq77VLWbm/fz9yKS1/U+rU1m1JfFTx6NG+8bd1PSbdN7/jgM4Kzn9vXKXVr4ZTAup8X1EMjFnSR4HPIUA13hIaO7cpzXqckST11o0OSY6jmzpuh7fNmaG66mtw8KVSdzrS4b7Ssafony1s5zR8AAAAAAKB9EHpeMtlypDmk+oOqanadzLVKmpAmfbZFZxZv0Zl6qdeE3f5d0Fss74hqjPVCvdYq/japwb0n4pT5C4ut4NM2Bd7vvkV6PT9f+fm/06NmLZKMH2lQT9/anG4VnaiX0gbocaOb6740dVeZio1d3v0K8zTJCj79U+AtRZ+fk3STbmsyDD2pc/VSd0c/s9Aqbd3ASJL0YZlOyaEfDjS3ZPeuFeoLEX3T6HfYNxNabwSeleX6u8e+xqePd0SqysqaGJFq9Qnj1LkWTI1v7w2MWvM9AwAAAAAAIPS8lDap8bykHoPlsO3KfnvI9PZs9dowXb3klnvx04H1PZWmtKhHXT6tqmKP4tKfCtqpvftK7/ErnvWt9ZmtXhvMUNUbjOp8eUgweu+oH1hrS6ZqyCyjGFaaVs9JV/e6Yr1thZnejY2cesC+U3tGln4+socuHNoV2HF9zpPasTI43fQGo/X6wty03n3OOwp0mn33d9MeFZ1pkG4dphyzFC3f+pWt3sDIp1w7ij2KS7/XtlO7NGvqGPVVuXZbGxLtralrwfR0j1YeLpecY4J2ah877l4Nd3h0ZL9vrc06nfdIcf2Srany1s7w4TNP69zJGj8uQgf/BkrtuIFRqm8N01S5fnOvWQUAAAAAAIjoKqfT+Z3Z2JzU1FRVVFSosbHRLHWqyZMna9++faqpCTthvAvIVq8Ni5TUw/fcLfcjRxT/+nTdULxKnz67Sd1XlirtNqnBeu7jmxqvz7bo6OKnvYFpzqjwG9vUH9QJ2y7x/tdGqHutVZIRwJrX4HffIr3+8zsVp9P649Rf6TWj/HjuOj1gjMKUe5dcOeYKni7lFk2Qvat763zlGKM8XSuXauFI/02TVKZ3XC8EglG7OU+qaJrT1hCmb4/l2j7+bp09PFFz/mEvRGfsuEzNTa/TjvX7I46e9PYJHxQ2FO8M2mE9pK+nRM++HByozpo6Q5Psb8+nbL8m59s2DxoyRtsz7KM9y8NcZ7KemTfGP3qzoXinflozVNszFKZvM9eXOEhvzhyqysK3gnagb5t7teiVX+hOh9TwwXN65L/2mR0AAAAAAADCIvREu3s8d50eSCjW6il5ETcq6mw5PyrQtFtPauv2J5VrFlvEOzLyhyeDg8uO5A08PaFreFoBpxmiXkpjx2Vqbr/SkJC2re79zev6xV1xOv2nqfqVmcICAAAAAABEwPR2XJFyP/6rLqifpv1otllqmUuxgVEQh5JuVPj1Q6vOq8FourQ6aAOj+xYp+6446fQfCTwBAAAAAEBUCD1xZapfqsmHT0q3TtX2H44zq837cH/oJkIdyqMz5yU5UjQ2aE1Phxb/x1DFtecGQlEr1y/Xv9WOo0zv1aJX8pX/8zulD57T1F+ZCygAAAAAAAA0jentaHeXw/R2nx//cKt+k3RC/7V7qf5sFrugsGt6hln7EwAAAAAA4EpG6AkAAAAAAAAgpjC9HQAAAAAAAEBMIfQEAAAAAAAAEFMIPQEAAAAAAADEFEJPAAAAAAAAADGF0BMAAAAAAABATCH0BAAAAAAAABBTCD07Tba+/UWpGpeVqvEXefrOLAMAAAAAAABoFULPTvKvhxfpnzqo65al6PrnsnSV2QEAAAAAAABAqxB6doq1+lc/6Zp9hJ0AAAAAAABAeyP07AzfT2Y6OwAAAAAAANBBCD0BAAAAAAAAxBRCTwAAAAAAAAAxhdATAAAAAAAAQEwh9OwE390xWN/Kre8dMSsAAAAAAAAA2orQ8xL6bmKJGpeV6hs9r+uXjefmAwAAAAAAAB2A3O0SuqpgqK5flqJr9JQal+3Wv8wOAAAAAAAAANqM0LMTXHXsuK5Wmv413KwAAAAAAAAAaCtCTwAAAAAAAAAxhdATAAAAAAAAQEwh9AQAAAAAAAAQUwg9O8M/ynWV2QYAAAAAAACgXRB6dgq3rqqVvrk3T9+ZJQAAAAAAAABtQujZKTbp6udW6d80Sl8tK1XjLwg/AQAAAAAAgPZC6NlpNunq51J0/bIUXf9cFtPdAQAAAAAAgHZC6AkAAAAAAAAgphB6AgAAAAAAAIgphJ6XSGpqqq6//nqzGQAAAAAAAEA7I/QEAAAAAAAAEFMIPQEAAAAAAADEFEJPAAAAAAAAADHlKqfT+Z3Z2JzU1FRVVFSosbHRLHWqyZMna9++faqpqTFLna6r3jO/IWO0PSNZKtuvyfl1Wjw7U8Md0qnCt/TLD83O7c3hP59PQ/FO/XSPx97pkpk1dYYm3ViiZ1/+SHvNYqdK1jPzxijxEt+bseMyNTfdYX0mPfXMvDHqK4+ObN6plZVm73aQsVlPLRileN/zuoPaNGWmzgb36hTpuad1f1rgeenWVL2x0d4D6ACP1al0irRlQk89bdZ8P7Ocl+rntSVxkN6cOVRx/oYO/JnQrM752dgiQ8Zoe0bPzrk3vs/IE+H3matBJfMv6vi6BGUVmUUAAADg8sdIT4Th0Znz3v89X2XW2psv8CzXjvVvabL16HJ/uLZJsp6ZN0NvjrOlupetOp33eP/3TEf9AV84U8+7UrXClap33WaxcxXneK9rxZqDqjWLrZGxWU8VndbDc8wC2sq1cqmKip7U42ahNTKytKNonXI743NyNahkSq0873cPG3h2Cl+YVrbf/zN78vpOCPU6UuIgvTlvhp4ZYhZiSFGcCk5e1Kj5dVpr1gAAAIAYQOgJr6rzapDUcK7OrHSsxGT90CE1FJfoVbOGLmFvjfc7UVkTS0F0R8vWxG2ntaQo8HhqZbbZCZ3IG4quC/volHAzrK+0e36NHCf7aOiyq82i36lznkv0j1ReYwemKE4eHdlfbpbQlVR6VClJ5z2hozwtTz+RpIOeWk1/u0H8hAIAAECsIfREWN4/ojtwNJ+BQO1yYY0C9pzXKbMEyxo9XLRQd+mgNlkjVle4UvWOnmREZxdStHi5XK75crlydbhOknuX9Xy+crrIkgXZyzxKU7y2PHGdWeoCLt3vB3Skq5WV20seR42eWvatWQQAAAAua6zpeYl01XsWFdvaZGfGeNeQ8yrXjvX7jZGa3jXW+vqfh+sTmCZZGWktumjO6VuX1Kdsvybnh45E8q1/52OuH+pf0/NP0mO2NeuiXS/PtxZmJOZ5Q9fIM99jmHXrbK8Jvj5znVRzvT3vsVT4lnb0sl+nec4o+dbjdG/RipwFZjVq6bmndX9CE2t6mut/yq13XRkqDuokK4icrhT/8zD9Qo7l0Qdr7lBBob2TxepbG2ZNzz4rjyl7pCK/NszaoCZzrVDvMW3fJfP+zinUkmm99cGaO3R2mv3YYd7nnEItmWY/eZg+ytbEbQt1V8+gRklS7aHVen7xJuuZ2a+Je9asNK3elqMRYc554VCuJi32rXXgUm7RBAXeQZnecb2gF8PWTPa+PtZ5q3fJlRO8sOHjuev0QOSDyb01OCB1rVyqhSN7+J8HXfecJ1U0TXpnzTlNXJCu7irTO65dus33nt3m+b/S7l1n1fv9pCZHeTbH+3OoTjvWlyjJ/jMhzDqP5s+skJ9RlsAxw/2ssH72nN+vyfsdQT/Twh2vReeM4mfjS7q3TT/PzN8PJvP3gNk/5PrDrOkZeM/G9TX3OyxxkN6cmaK/m78Pw3yW0Vq7oUzT+8VHXDcWAAAAuBwRel4iXfWeRcX+B5n/jzHrD1zZ/uiy/kCV7Y8/7x+Gvj/wzEDUZPtDsIXn9P4RKdsfltY5jD8ag6/D15appP2BP0gDf8QGgsKm/8hvTpiw0uD7I9j+B7X3OuxhpXGciJtUhL73iPdHTd/XaAXCuXBBWvSaCj1957IHhN4w0QjefCFfUFC4Rg/nSm/Yn29LVqHtPGGP5dNs6Bl8XRE1cRwvX6hov59WgGvf4MkeZPrfp/Va2fplbNZT08r1vP99hzt+6OvCvyfrOmz3tSWBb3hW8KhirZ6SpyJbgBgULGZkaceCdMkWJnqDydAw0/v6cyHtoSKHnn7Wec8aIaddyHWY1zrnSRVNu0kX6s6pYMrHSi+aoD519dKJPP1eWaHX+lidSqd8rYNt3GTGHioGArnQnxEhPxvNn+NmIGcyf444FPyPLdbrQ3/GNXHOptrGePRT/892288z/89DW/ga5h+/mtXcP8j5zmn/+Wtf69R3TiP0DN4YLvD7IOLPaPuxbOFvU59lqzxWp9IptXJvc2r8S2YRAAAAuDwxvR1RayjeafvjyqO9Jz2S40Z/iDlrjDeIe8n2B92r+ft1SskaP847uuWXvs0vNpeowRo9E9gQIzRYbPqcyZqU7lBD8T7bSMZy/bKwXHIO1eJEX5tDSTdKKisLOv6r+eE24AgeGbn3RKkalKwhHbKphe/6dwb9ce29Zw4NHxMuaEjWM2EDT2nsuKHqq3LtsP0BvHfPPh3xhDmWp0TPRryv0Tv73nHvBj/uI20OPJu2RhkjHao9tDooLCzO2aJSOXTXtDVWS7YmZpiBpyQtsAWe1nMjWC3eelC1cijtvuhWuju7uEClklKmndaSokKlmx2iMedB3dXTow/W2APkBXpjq1vqOUoZxnT52kOrbe9zk4pPeKSevXWLr0PhTFvg6e1TUOiWlKbBvmNl/LvSekqlhYH74X9Pw3z3VeqzcqJS5Na7tuOdXfyCPqiz3/8WyviRBvWU3IXewFOSihYfkFtS2jCXv9vj09LVva5Yv/eP+pRezNklt5yauLKJIZkdLSNLE9Mk91ZbaFmYp98fqlf3kRNsmyn1kE7s8vfpLrftvdyk2zL8HbX2jlrJ00172hB42p0qtG8QV64PyyTd6NBYecO08U7pVKHtZ2/lR3qp2KO49KGaJUkfBjYterbYY/3jlO3ndkjgVq4d9s2NPizTKUmJvaxRmC05pyT1vlFx8ujvJ2z/YFT5kS3wtAn6eWj9PHM6A8dqR/6fs/afv9b1B//esRkyJmzg2fLfYZay/ZE/y9Z66Xq5JfX+PlPcAQAAEDsIPRE1c/3NvXt22oLKZA1xSg0ny42Rgt5dv+NuCjN3tQWaPOcQp/qafxTLtzmTQzf29jVY61E6x2j71HBBoo2nVHtDgtAOMsSpvmHeY+Q/ZsOMMPJzaGw/R0iw63/vxrFCP6c28u283g5T25s0Z7hSJNV+7ptm7bNAx92SEpLVR7YA72grrqewvJU7tC/QG65UbTrkkZSm+62NjFqznmf6sDRJVTprjprceESlkuJvDQ5kzftxdvEdWtHciFt3VfD7TOttm+IfrLb6pPX/spU+0BEm3N6ks9W2+99SaTepu9lmuVBdZv0/l9LTpAsn/uIPRr3K9EWd1D2hiTnJHcx1X5q6q0zFxijQos/PGWFmvT56LxDYqrrSeC8+3yo5QVL1NTK/4a0TusnRq/lvabJvpPzAFMWpXB8aIxq9m5j1VJIZurVEyLq/3n/s8oV1LT6n9XN8+MzM0PDP0O4/zyKyfs6GvEffP5DZf+9YBnpHuoYGntH8DvM69UmYwLfNrlGVR3IkfGMWAAAAgMsWoSfaV6JDiZLi0jO1fd4M28O+vmT7GturpySHhs+0n2+GtgetAef1ar41Ssk5xt/vzXEddGFRCQ0l/IyRl3HpQ73Pw+7I21M3OqxgN+j+N71O3eXJoxpbfhTEN7oxrbfim+pn02flsaDd1pcErQEaPW/gmKoVri2BkZ+5UY6AlKS6KlWYbZb4hH5mU7PSc4N3lV8StI6ppI1v64M6KSVjsz+49I7q9Mj9ni+C66dePSWlTTfuWdNrlUa0cZcO10lpGVnyjet0rRytNHtImJGoPpK6j8wxdlsPvw7opXR7Qg9JTj1g7gQ/7fL4j67vTQ7vaEPjZ0aT09nbqMXnrPxIP11vjXr3/4wf0yGjN6MW9mewl39Eq+T9/ZTufV+h/7gV3e8wAAAAAC1H6In2VelRpW86un3qY8QpkG3nHRnk0ZHNYc63PnQ9Nu8o0bc0ef1OHfF4A9quEXxGYIwmaijeqcmF5RFGrHpH1KosMBU16BEyMjRG+YJCd5Vq5VCvZoI4+5qVvt3WfWFl23lHfr7rlpQ2URNtU5jbKjDysmUC65Ta3ueag8aIVivQ7DlK2VaQGbpO50nV1Fnrh9p2qPc/wqzB2jSnbu4pqWe6FlqB4cKR0uE1y7XQd87CSp21Ngfy7bIe9Ii0Hucl8Gl1vbVJUpjrctneQxd16lyY6er+R7jlP9ouunPalkQpLLfC0i4SfEYQHG56fz/tKJP6ZszQM8YyKdH+DgMAAADQMoSeaGdtm8beKhGmADbPo5UvW8Fnh15vM/fkwzKdkkM/HGgGr5GWCvCur+cbsRoc2Iafxn7JZGzWU0WtHNEYjY1HVBp2vc01Gpwm1Z74b2/oZk1Rt69FGcqaql13UIURNqnpMNb1mdPUfYqPuqWeg5VuBqVzhhsjL1vCe2/kLmhykyH/Wp1BQaa5MVH009gf/V2+8vPz9fpv7jVL1qhOMzQ0w8LoprGHTi1vAytw7XNr+PS8Xc8lSbpa5dWSEr5R+G9G+wqZUn4JtPqcH+63gs9WvDYa1j/gBY/Y9Im8Xmikafuy1o8+4pH6ZhhT9Vv9O6w9faPeDslTfY1ZAAAAAC5bhJ5oZx6tPOwdhXjJRk9WfqTdZWH+kAyRrGdmDwoOAxOT9UOH1HCuzt7aznxriYbZkELyjnYq9igu/d6g+qypY9RX5dptrv9m2btnp3aUeUeq2kcOvbq/RA2OoZobMgq04/W5b7B3qnTa8LZt4NOsBSo85FH8yCeDRk6m505Xitzav9gXBnr7KW26nlppj4/W6GF/MGsFePZwMWOznmrl9Pb03GOhozkzNmtM2MDRO2IyfuSD4e/Xxre9GwPNCUw1l9bo4WlpYY7VHGt0pv2zmVMYMr397OdVknqrj/keDMVbD6q25yhltyjgflRDUr3/L67/WJmxZ8tCQ7cWFpZJaRO0oyWbFrnP6YJ6aMS0wEZIrWcFrkGbEtls3KXDdT00YsGT4eut8PSxeMlxUePa4/Kb82GJd6OzmZdw9GQLzzl2XPDPN0ma1T9ZUp3OdMAI1ADrH6vsmyrZ7N1TolNK1iT7z9nEQXos3aGG4pKQzfi8PFr5sm+qvu19t/h3WAd6rFFpkqr+cbVZAQAAAC5bVzmdzu/MxuakpqaqoqJCjY2NZqlTTZ48Wfv27VNNTY1Z6nRd9Z5FZYh3I4ZThS2Ybpc4SG+GrEcWvCO6FOhXGemYUZxz7LhMzU03glZzs58w12Uee9bUGZp0Y/jXRbzOZjm0eHbwuqbmhhYh129eu7WBUWLQ6wLHDT6etdmR/7Vegfca7li+a6jTDv/GVFHK2KynFoxSfMhu6S3nm2oeTu2h1XreH2iG6Vt3UJvCTa2eU6gl0+xBmVvvBm3wk62J2xbqLv9gXLfedR3R4KLpivefc40ejhiE2o9nHsurdGtq0E7zAaHHDe4bejzzPvjeX+Rz+BjnqjuoTRulBxaMUq3ttd5p8LaX+YR8rqHXrpDr93r0d/n6SarU8MFzeuS/9gUXJT2eu04PhD3nruCp6xlZ2rEg3dj4qD54KrzPnCeNdTXL9I7Lu8O6a+VSLRzZw1YLcG+dr5yQ++hSbtEEBX2LjH5h34Pv+uc8qaJpN1nXaR3LqnmvxZjOr6+0e9dZ9X4/SUOXtT6I8v43rdCfvWHMmhpm7d+y/SHLkjT9c8L6mSTz51d4LTlnSJ8W/Wxs7jpbIvTnaPDvi+bqvt9hPYPvv//3UPDvxJDfATLea4TfQ2F/Z0Vp7YYyTU/opVUPxrXT5lkAAABA5yP0vES66j0DALvAup/GlHYrWA0JXNuBNywME1xaoeWFQ7matLgFu1HFmOxl1Vp0j3RwXYKyOm/JUsQ6V4NK5teoaptT418yiwAAAMDli+ntAABLtvokSKo7rmJz1KS7ytjwqL2k6bYESXVuFYWc85wuGE1Xkk3LHHLrokblNFyStT1xJfpWeTk1cnh6aQuBJwAAAGIMoScAwBJmfVPJO8V+zijFR715Uku49Vm1pJ5pcgWdM02r56Sru+r10XtX3ihPr+s0fl0veRw1WrThK7MItNnaDWc0yhGvLUxrBwAAQAxievsl0lXvGaIXdt21MELWdgMuE2HX9Iy0Xmo7CbseZl2xVk/J0xU/s/uxOpVOkbZM6KmnzRpaIHTtzbBC1gqNca4Glcy/qOMsnwAAAIAYReh5iXTVewYAAAAAAADEGqa3AwAAAAAAAIgphJ4AAAAAAAAAYgqh5yVy+vRpprYDAAAAAAAAlwChJwAAAAAAAICYQugJAAAAAAAAIKYQegIAAAAAAACIKYSel9RafbOsVI3LStX48FqzGNBjubZP3qpVPcxCR3Ept2iddqxMMwuX1I9/uFWF45frx2ahNYbvVuOy3fqX2Y7oxdC9/G5iife/v2Ul+vb7ZhUAAAAAAMQKQs9L6mldsyxF1y/bomv6TY8cfNYv1a7P4/Sj8S8ox6y1RkaWdhStU+4cs9CFfP8F/WZAnNwnlurPZi1a38/TP/8jTVcf3sIXvD0c2aJ/q03T17/I03dm7XIyfLe+GiH920spun7ZUF39D7MDAAAAAACIFWRCneJpXX3YI92cHDFEyv3Lb/WX+n6a1l4jH7uyHsu1fUQ/Xfj4t5rT5iBqrb55bJS+PblF/1awySyiVTbp6ue26Jr4UfoqUlB/GfjXwDTpZAFhJwAAAAAAVwBCz84U3zti6Cnt0aLDf9WFHnfrqR+OM4sxJWfA3epe/1c9//c9Zilq302cqG/k1rVvPG2W0CZP65o/uaV+0/XNcLPW3mYrZUmBBk1oz+99tr672WwDAAAAAACx6iqn0xk5d4sgNTVVFRUVamxsNEudavLkydq3b59qamrMUpfz3cQSfTWiStcuG99k8pzzowJNu/Wktm5/UrlmsRmP567TA00s0+neOl85G2Wt6TlBfQ7l6vfK0sKRvsVEy/SO6wW9GPSqNK3elqMRPX3P63V4zXItLAz0eDx3nR7QLrm2JmrHgnR1t9oD57PpsVzbx9+ts4cnts8oz2XT9d3hVWFHeSb2HaB7HvhPVZd9qgtfVOn2keP9tU8P7VZJ4faQvtdcd4Mk6ZuvvtT77/wvVZ762N9HkkY9lKNb+g/1P689W66il9YE1Xv2vlUf7XlX6f+fB/3Hq/ikRAf/EPyJpo0YpyHj/x997+prpDDnTBsxToP+PVMf/fdOOe8Yofg+yZKki7Vf6MBbG+WprvAfy7z+f337jT7c/f/KfTg4WB6aMTnoPpjXHyxb3/5ikf6pg7ruuSxdZZbb0XUTtmrY3XHSqXwd3vyyWW4F69q/2KLrCcQBAAAAAIh5TeVt6AJyz5yU1E/DWrHpyos58+VyzZdrTbEuWKGjyxV4mAFk95E5WjjQrdWu+XK5cnW4zqkHcl22Hi7lFuVoRPUu/zFWH5JGLFiq1Rm2bpKUNkFFC25Sgb9fvdKmhfb78a0D1V0ndbTNgaek4cP1jTz63rHQwNPulv5DlXrnaO1/8wXlL39CFZ+UqN+P/l1pI7wjC9NGjNOoGY+ruuxT5S9/QvnLn9CF8zW654H/VGLfAf7jjHooR4n9BurY/9nq7/el57yGZky2nU3qFn+z7p78qE7/7YDylz+hTw/t1i39hwb1G/VQju74H9N08i//HXTOUTMe91+XJH3vmn/THf9jmr70nFf+8ie0/80XdO0N3XT35Ef9fXyB54XzNf5jHXzrRTnvGCFHwi3+fqMeylG/H/27//r3v/mCut/YS67HFvj7BNuk7/1fjxQ/WP9qxfcxGl/tmqbDO09KfadqxFPLdZ3ZAQAAAAAAoAmEnp3kqqoqsym8fxyVW1IfR3tO9Y2grlirp+SpSJLkVtGJeiltgB63yq6Vo5WmMr2T4+0hSUWL83S4rodGTLOHo7JGgAZGiRa959YF9dDNQSNPx8mVFCd9fjTqUazh/GtgmlR7XN9rJkC9WPuF9vzvZ/wjKKtOfyJJ6uaIlyQ57xihxvo6HS/6o/81x3fvkCT1+9FYf9sNjhvVWF+nqlN/97cd/ENu0IhRH/tI0tKj7+ti7RdKSP2BZIWUCc7bVfFJSdBrj+/eoX9980857xjhb5M1GtM3SrTy1Me6cL5G117fzR9o9kjoo+9d82+qPv1//a+pPPWxil5a4x8N6jtn5ckT/tGflac+1um/HZAj4ZagoNXuqmPHdbUc+i6QnbbcnS9oxJKCiI+UO43+f3tSh1/+qy7E361hS16QwygDAAAAAABEQujZWSqqdLXS9O3EbLNiOKlz9VJ3Rz+z0O4unPiLFXiGkybXwB6S+2Njurtbn1VLSkhUUOxZ51aRbcp7eP10Uw/pguekWWgFa83GL8qbnXb9dePFoKng7sN7tH3V/08lhduV2HeAut/YS3VVnwf1+bK+Vl9/eVE3OG4MtHnOq1v8zRo9Y07QCErTN199qcqTgWDUU12hrxsv+oPKxH4/1DXX3aALXwQH4eECTUlBYWY49dVn9a9v/qnbR44PGXXqk9jvh/reNf/mD3x9LnpqJVsAHOIf3vv7Xe/mvrdh/O1JHV4xMeKj9G/mCyRVLNVHK/JVqX4asGSrEiPf5qZ9f5z+FS9dc4Kp7QAAAAAAXAkIPTvLP7L0b8tSdHWvRWpcVqp/Nht+djanbu5pTVsvWhf0aGrd0MuNb5TkLf2HaurSDf5HxpzF6hYfvBPOwT/k6tNDu9Ut/mZlzFmsqUs3NDE1vGn/+vYbf+BouvaGbrqhR4QQMozKUx9rz/9+Rhdrv9DtI8dr6tINmrzofwaN3ux+c2997+prdMf/mBb0Pu/4H9P8a4p2PXFK+fFss7Fp38/TP5eVqvFB6ZplKbrmiNkBAAAAAADEIkLPzmKFMf86kaLrl6WE3XinaynTF3WS3IH1PIMe/mnxlzffKMmKT0r862HaH+YmPyWF2/212rPliu+T3OrgM5Kvv7yoL+vDB6KReKorVPD7pcpf/oSO/Z+tkqQh4/8ff/B54Ysq/evbb4LWI7U/wk3Rb7Nop7dL0i3LNWjJVCXqpD5eMTH6TY2sf1y4/m3pm2Wll2DneQAAAAAA0BUQenaS7+4YrG/l1veaHXnW3BTwe7XolXzl5+frd7PMmqWwUmcl9bm1LUMyI0xjb5P2nLq/SVd9IenmZH1nlqIQbhp7SxW9tEa1Z8tDpqObzCn0lSf/rn9980/1Tu3fZL/Wch/eow93/7+Sbdp6s9PYI/m+9/5eVdWKkD7a6e13vqARs+9W99q/6uiKJ+UxylH5xx59r1b6ZuBaswIAAAAAAGIQoWdX9/1hSpN01uPdbCbEfWP1A2uHl9TBgR28g3lHaXYfOcG/KVFrvLi1WBd6pmth0I7ubbFHRWcapFuHKccstcL3TrjbvLO4p7pCn39crPg+yRr1UOSrciTcItdjC4J2c/eFlOaaoabB4ydJkk7+Za9kTUevLvtUif0GBk1BN/u11NCMySHX7gtUfWGn+/AeeaorgnatbwlvWO/RVZHfXru4bsJWjcjsJ53K1+Hnl+orswMAAAAAAEATCD27uJykflL9X/VOpB3J39ur/2sNgTt9/DWzanFr4ZRdcsupB2xrcebOMfs1ozBPk1y75A6zrmfUx7L8+fMTuqB+GtaGoNLvyBFdI4f+dUfb1kctKdyuY/9nqxL7DQxa79K+LqanukLHd+/QPQ/8p78+5qdPqrrs05Ap8Ndcd4PG/PRJf79rr+8WtHu8rPVBK0+eCFpjM1y/lvBNTbdfe4Lzdh1860X/Tu2yRqaa55y6dIMm/nx5hJGq2frXDxzSyQJdHen72C5m65a743Thr7+Nfjo7AAAAAACApKucTmfUs4FTU1NVUVGhxsZGs9SpJk+erH379qmmpsYsdTnfTSzRVyOqdO2y8ZGT5x7LtX383Tp7eKLmdGjI1LlyflSgabee1NbtTyrXLEbJe1+lf3tpaAcHcy0z6qEcJThv1/vv/K+ow8suZ/huNf5H7y5zb6OTrW9/sUj//GKLrn+DHdwBAAAAAIh1EfM2dLZxWjXibnVvapRnjMj9+K+6oH6a9qMod+YO46qCAl0jh/75YF6b1vaEaa2++Y+0SzDKs6NYa74CAAAAAIArAqFnp1irb0c4pJNHIn4AOT/6tX7U46S27l6qP5vFWFO/VJMPn5RunartP2z5+pLhPa1rXjqoq+NH6auH2bSmfWTr219M1ze1B3XdZTxK8qoaj9Rvor5tj6UUAAAAAABAlxYpc0OHWKtvlpWqcVkzAVKP5Zpwa4P+srvt070vG/94Uv/1cYO6J43Tj81atP6RpX/7k1vqN1z/MmuI3vDp+me8W9c+l6WrzNpl5KqCobrusPTPx0rVuKyE8BMAAAAAgBjGmp4AAAAAAAAAYgojPQEAAAAAAADEFELPSyQ1NVXXX3+92QwAAAAAAACgnRF6AgAAAAAAAIgphJ4AAAAAAAAAYgqhJwAAAAAAAICYQuiJK1yaVm9bp6Jcl1mQ5jypoqJ1KtqWpTDVy5xLuUXrtGNlmlloVvayapW+3aBssyBJiYP05rwZ2j57kMaaNUmzps7Q9nmBxzNDzB6xxfd+w7/Pb5X3dplKln1rFgAAAAAAQBsReiJKa5X0eqlunxs28sIl8HhuJwaxj9Vp0T0X5d4dp01mrQVezX9Lk9e/pcmbS9RgFi8TY8dlavu8MZplFqJ2tbJ2x8txzxntfsysAQAAAACAtiD0BCLZ+IJcrvlyTclTkVm7ErkaVDKlVp73kzT+JbNoqfSoUpLOe7TXrF2BTp3zSPLofJVZsbzUU6ve76a0KdXK65QUGwAAAACA2EToCaBF1k6pkcPTS88vu9osoQ02LbtJBz0XNSonwpIBAAAAAAAgalc5nc7vzMbmpKamqqKiQo2NjWapU02ePFn79u1TTU2NWep0XfWe2V07t0QD0x2Bhs+26Ojip8PXDA3Fq/Tps7YJz6PzdHvOKMX5G9xyPzJeF/zP1yrp9em6oXiVPq2crmETAmtL1uxK0Zk8/1NJ2eq1YZGSeviee3Tm/8/e30dHVd77///Lo0etgSFAIGCJSSBSuZWIFATEQ2NWk0WVL4LlAFXh+4FSltpfpTdSBRcL0AP1hn6PujwpfL5YK3ioQb6grKQrUk65U4oYCAr94BASQw0JEZKBKFqtvz/2npm9r7kPuWN4PtbK0uzrmr139uyZZF5c1/sqGq6GPc4+8ftJ0dO61yxl6S1V3nx7POeCh7R9Wmb4NkPeiif02G2BEwvpm7fiCT022Kun7qnTD7cXyH/Y8+8UafJib6CfFOa4qtbreS/ovyQpf6a2LMpVF0erS1O5njJHpJr7c51bnoq2F6jPO0X6T810/AyOYzrlNavilw2qfyMz8ijPRKQP0auzhquu7DX9/LDZKEkZenbhePUPfO/TgfXbtKLO1UkaNl6b8zOMjZJUoy3P7dbL9nezp87QZMelaC7fph/t8AW+nzBxkh7JbXI9xn8O6eXb9KMd3YzzMbmPl7AfN6nqnkZ5W+v6AgAAAABwmWOkJ6RAqCmdLMrSwfutryOfFqrfTKv9y9XD7e0b1WCHnP5+B+/PcgWeVz9SoRHzx+rz0mC79+Mc5bxSobRxwWNKUkru4xpRIHn9xyz3Ka3A2W+V+r3yuPqd3Rg8r3Kp3/zQfcVmLVp0b69yPZX3S2vqel6R9jUZ3fzT2sO1OViBp7RvpX9fv9RTp8epaIHRsVuuHtteIBXb/Yqr1eW2+e5++TO1ZcTRwH6sY2fq3u0P6SeSVLZBk+221712yBnoGzoF/ydFT2v7tEx5/cfM+6XyDg4KObcut823QlnnMcMs6jTv9s/kUaoOtEcgN2y8Ntth45TnrBqgq8ulkbOMBYHswLOyzK4T+txuVUqSr0KrAwFkhp5dOEOTu1dotb2vKesrpNxJ2jw1XFgaSY1+HjgXnx1y+o9rHbvFgack/e5aeSXl3PyF2QIAAAAAAFqA0BOSpKt7eqRzH8jnGD355erhxojLeKxS71yPmsufdD32/OKNapBH/QpXOTtL5/bqiGME6Jd//UDN8uhae1Te1Y8UKk1eee0Rp5L05erndfJcmH3FsqBAo7ud076XWqdG5429ukpNXm0vC27bvniZ5r/k7GXxFv8yuP2lUu1rknJGOMLFsg2a7BpN6tVjZdWSMpVrhqix5M9UYY5xTFlhbsi5uUaIerX9yDkpZ5AVtAZ8rYmDP5OOX6vgs9BWPFo8OkOq3u0aiblzxy4d8En9RwdXhZ89MEPyVWhLYKRojbaU+yRPliakW1smTByu/qrRlrUfBmuM1n2o35X7pMzhWmz363jX6MBxSb2+Yoo7AAAAAACtgNATkqQvP/VJXcdq8IsbdLXZmIiZI5Um6fM6c23vR9X4saTuGe79n63Rl87v98zUR/f7p7fPkyfHI318wDEtXpLW6MLZMPuK4ScjMkNCyovx0elz1ijOmCupV6vcFTZ69fFpSb3Soz/Oe8b4ueOTd0eOuoQcM7zzR/4aRwD8lXp7JN/pq8yG1peeoZs8UvMZc4itTzuP+yRPd3uKuUf9uhtdApp0sk6SPJowwCP5zlojQB12HqlSszzq3tto6EDe09dJnq8CJRAAAAAAAEDLEXpC8k9fL/VawecrVRrxSpVGrEhwJGWATxeqzW22rr0TCCpzdG1XSTdMt87H8ZVzg9m3/W1fvEx5xdX29PWntX3709oeZmp4vH5SZO/D/xWthmcU1gjUM/rIbLiE1DUER3m6dVO/dEnyacW+GskzXJMDU94zNDnXI1VXu6eaR1lJPj0tcp1aAAAAAABw6SL0RNCGOx01OO2wscXBZwTn6t0jO6Py6sI5e0ElR/3QwNeDMxPYVxsJ1P+0a23mFLQo+LQWVzrnqg+at7K8RSM9rRGoPXSj2ZAU/KM4pQlp3SRJ/fNnaPPCGdq8cLz6V+/WlE017odEETlcBQAAAAAAlzJCT4R1frEdfIZMIbeCyJSeESbhbjigBnnU/btmZcJVSr1BavbuSCCoTHwa+wPPbNKmTZv0yq9vN5vCh4ELCjTays4u2n/Nt4PPWNPWlafcHOfUcut7effosTim3of9ORy2//1My2qBRnSV6n2Sp9dXZkPrq6vR33xS/4HmIkP2VPXAKE5rVGezY7GjKc+9ZgSe9pT4zEzNdmyVpAmDs5SiGh0Ou3K8bVhm2NXadzY0OUactp6cXp9JvqvkNRsAAAAAAEDCCD0haZ7SXnzbmEpthZQhNTf9QeQNhRFWT39U9eU+peQ+7GrvsmK60uRVrWOV93icL9mr5q5jNTiuEacPaFi29X8pAyfIjD23/8Wr88pU4Qo7sM2fqS3Teui8WT4yLjl66g17ZfUAO7w8XRe1TuZPigqUo2qVLPbHW9X6tEnuBYQWPBRxers/1Az8HCb/QknTntBT+Y7tCx4KWb09Pldqx5HrpAEXFM+zcHHsaeuZ410rtU+YeLtGenw6sNsfajbprE9K6RE9sd65o0KVytBk50rt6UP041yPmssrAtPgrSAzQ8P8x7RXhg+r/qya5dHI8RHaW+QLjRwg6fRVSuwVAgAAAAAAwrkiMzPzG3NjLNnZ2aqtrdWFCxfMpg41ZcoU7dq1Sw0NDWZTh+us1yxolfq9Ml1pji3N5U/qo7Ah5Tylvfi4+nUNbjH7Xv1IhQbnOuolnturI67p6PbxPt6og46V2cMLPTdJaij1L3gU9MAzm3R3ttT83m91/3/scjfKDhOn2UvDq1qv570gFT2te1WqPHv1dGuquetRAe4V0fNUtL3AtfDM+XeKNDkQZkp5K57QY7c5LpTMFdP9jH01leupl6SfLsrVKXMV9nD7DbPPkJ/DG/wZ/cfrE/Z8z+j1vBf0X4GtkvKaVfHLBtW/kak7f+dsSESGnl04PuzoSalGW57bHazFGRI6Gu2ywstXZw1XinObJMmnA+u3aYU9DT7ccSvLXtPPjVGeEyZO0iOBe7ZGW56rUL+5k3TT8W2uleSlOM8vET9uUtU9X2rv0700M1piDgAAAAAA4kLo2U466zVD24oYIl6CVr1YrekDUrWxoJtixdRtzh94htTw9Gjx3Eka6bnIELJdfa0Nfzypsaf7KOvBa8xGAAAAAADQAkxvBxCXR99Ik0+Nmv7iF2ZT++vdXSmSKo+Zixb5dPKssamTm7f0jMZ6rtPeNwg8AQAAAABoLYSeAOKzPUXD30iVBpxSxdKvzdb2VX9WzQqz4NGw8ZqcKceCR53cj5v0+JjP5H2Dae0AAAAAALQmQk8A8ftdNz357nXyDL6geWZbe6r7UD9aX6HmzPHavHBG8Cs/Q5Vl5irundXX2nBno3zv9ruIOqkAAAAAACAcanq2k856zQAAAAAAAIBkw0hPAAAAAAAAAEmF0BMAAAAAAABAUiH0BAAAAAAAAJBUCD0BAAAAAAAAJBVCTwAAAAAAAABJhdATAAAAAAAAQFK5IjMz8xtzYyzZ2dmqra3VhQsXzKYONWXKFO3atUsNDQ1mU4frrNcMncSCMi2ZlhP83rtRy+cvcvZIDsPGa3N+hlS9W1M2NWnx3Eka6ZEqy17Tzw+bnYEo/PdSQI22PLdbLzu2RJU+RK/OGq4U//e+Cq1e+6F2unsF+ftX79aUTTVmqyZMnKRHcj1qLt+mH+3opmcXjld/+XRg/TatqDN7AwAAAADaGiM9gc7gpXwtz8vW8ryn9F6T2ZisfDp51vrv2Xqz7dI3e+oMbZ47RBPMBlw8O/BsLt+mKc+9Zn8lEHhKUt2H+pH92C3VZmNkzWfieYE26azP+u9JAk8AAAAA6BCEngDaT/1ZNccMjjL07MIZ2jzVOYoPCJo9MENSjd7e4TObOszOBuuermvoPOcEAAAAAJczQk8AHabyjI/RcGgZ31lVmtvaUp1P8d+m9ijm9j5HAAAAAEAANT3bSWe9ZpLUZUWVcrRRRz4t1OBcj/TxRh0sydCN88cqRVJDaZZObvD3nqe0Fx9Xv67+7306WTRcDXsCu7OM2xB4vMUr7/136ryrk33sG4LfN5c/qY9Wr3F2CbOv8Mc09xXw8UYdXPxo4NurH6mwfk5b2GPGkFt0Qj/I8eqtvHyVu1pW6r7t05XlrMmZv14PLxqr1EAfn95bebNKyoKPCpqnwjce062nw9T0tPfTWJytP7wU3JxbdEI/6LVXa+6ZpVOBrfZ+uvm/j3bMzibDqocYoXaii1mXMWxdR0+gdqjJqr/oH5lnHzfQatZjtNrTXY/x13Jsso4bcj6GWHUjI/DXiwwwro3rHAJbw59vsL/zNRDaJ/R6xHNtzWtmMY9nnr/f7KkzNDkz+H3487L7dY90LcP/3OGvkSX6/vzC7xcAAAAA0Dkx0hOW7oXK7Fmig6Ve6YZC3ThzqM4WPamT56S0wavsTqvU75XH1e/sRh28P0sH78/SkXKp3/wKpY1z7MsOKVX+ZKDfwaJ69V3h34/FCim98vr73J+l2p4Pu/elVeo3U6p29PF+7Ak5Zsi+Sr2SHWg6A88uK6o0OLc+2K9or5T7uG58ZF5wZ3EoP+iVlKOhC4yGBSOVJZ/eK/YHlit13wLp9bxsu2Zntt7yenTrokMqzDce22pW6r7tdnBqH3PNO2rjY7a/CRMnafOs4aor89d0fE1bqjM0eeEkLU7397JDOVVotd1ndbkVWFWWvRYMr4aN12Y70PLva3W5NHLWDD07LHDI2Mw6kb7gcac895qmRA3VwrPCOunA+uB+Vp8Znth5BXi0eO6MkP39TsMd1yx4PfpX73bUzKzWMFfJgQw9u3CSRp4N9rGumfP6x3/+VuBZoy2O6/V2j9sD+5owcZI2L5yhzQvtYNQzXI/Y329eOEOvTgyTagMAAAAALluEnrB0lc6W+MNBj+R9PjiSsnuGrpZ09SOFSpNXXkeI+OXq53XynEf9Ch2BZmZvpcins391jJ7cM1MfOR4nzdO13SV9fMA1+vP8YnME56M6+eBMfenYcr5kr5rlUffv+oPKVUq9QWou3xjc14aNOnlOSsmZqKv928ZtUN8bpIZSx4jTPTNVXe5TSu50dfFvi8dLB1QlKWvEStfm3BE5UtMHKg+MqFykP7hGYErlxXvVKI9y7kgsaI1XnxWFypJXbzlGip5a/ILea/Lo1mnu843l3574o7Zt2xbh649a+j3zEe0lQ5PtlbKdq76/vGm3KuXRyPF2OJeeoZs8UuW+YNi4c0eFKiX1H+gP8DxaPNpaUd45gm/njl064JP6j+7YxYj69/BIvirtdIye3LnD/XPHbdhwjfSEjsbcuWO34/vg9XCPxqzRz12jS4erv2q0xbHNumaO6x/3+XvUr7uk6mrXKMyXNwXPc+eOYCAdLlBm9CUAAAAAwInQE5ZzH8jnCBs/rzOne8+TJ8cTElJKa3ThbDAYlSRV16tZoaMx3ezH3TBdI4wRoDHtqdHnzu/HZehbzu+dztYEAtOrvztUKfKqMTBV3/JlXb2k3ro24rmGs0hl7/iknJHKDWxbqaE5UuOR/3GFnCHKatRobms185Q72CN5DxjT7tfo1GlJvTLUx7U9uv9Z9kNNmjQpwtcPtfTP5iPaybBM9Q+7aEyNDldL6u6xgsre3SNONQ8spmQHo6GLK/m087hP8nR3TPFuf5VnfNaoxlZYCX72wIyQADKEPyg+Fjr9PMijCQM8ISFloJal//rHff724zLHs4AVAAAAAKBVEHoiTjm6tqsdUr5S5foKqaO5Z6Y+un+jGuRRv/n+fm+HjKQ8vzhLR8p9rn2Gm2Z+9SMVxjGnK83ZYc9M1X4s92jNmdPVr6vUcMRRy7OnR1KOcozzH1GQE+iTiFN/+UCNzinuC0YqS17tXuwOjPusOKQl2084vqYry9WjNQ1QWjdJOdONY57QD1r2Y3ZiPp2tN7fZ/EHl4YqQ0ZrWCEWf/nbEHZiGBqh+3dTPOfW7ne3csU1Tymrc07lbFAzaoynP+qJPse/d3RqpHenaSpK6qbvHDikdU8wDU88d4j3/lzfZpQcc++yMU9Yj3ycAAAAAgM6E0BNx8urCOXtRIEd9zcCXMQVdelQnXfU1c5QTJvj8cvVwex9W/dAUo76mf9GhhlLn8TbKvVSVPVXeGWgW5BgLMElffuqzF1QKc/73m9Pq41D2P/I2Bae4547ICRlh2WfFIc27zaOq4mBNz+V5G1Xl6NO6jquhSZI3WM/T9WVMtY+l805vjyGwarYdzjkCN6u+ZOhiO5F1gtXlDwfrZm6pbumIyNBRmGHVn7XKR/Q2G5yadNZnL0jkrFnq/zJrl8Z5/sEp7Nt0wCel5E7qlMEnAAAAAKDzI/REnMJMY4/Xhjvt4DPaFPI1anjQDj57+ock2lPqz+1VvTEl3WXmdPXr6tPJIneQ6Qw81ZJp7LOf0aZNm7Rp3eO63WyTJK1RSZnXnuJuTW2vOuhccd2eat60V2WO1dZbl3XcoJZNY4+k005vP1ytSnl002AzEMvQsEyp+XiNdjrrTrpCOSPwrKvR33zOGp9+kaZwO9l9wrCmdbf+1PiXN9nBYazw0i4B4GSdU5YmRBu5WudTnavmaThxBqhhxHf+Pq1YawefPbqZjS0Q+XmKX41+/txrLaulCgAAAABod4SeiNv5kr1q7jpWg2PU4Lz6kQr1m+ne1mVwjqR6XQiMplylfi9ucAeo4yaqe1ep+VNr5fVA0Np1qDz+oHLcBt1oTm+3a4hea0yrDbFho7Xo0vzQEafhPDA02/ofz3c04Q6z1fbSAVUpR0OLRiorJNy0A8huQ5XrXzU9f70ebun0drsWaHDxpJW6L8y+yov3qrHbWM0rSmzRoktLjbaU+5SSG1zdW5JmTx2v/qrR2/aiNjsbmuKYnu7Tin01UuZ414riEybebi36s9tf29Ia3ZgyIMMO6+yV4SNkadaxM3TnRY1U9Gjx3PGa7dpmBbvOaer+Yw3zn/+w8dqcHxpaWos4eTRylnufEyaOd1xH69oqc7wxyjJDzzpGZ768u0LNnuF6JMyIzaD4zl/K0LNmzc+ItVZjSex5itswe9p91J8XAAAAANBZXJGZmfmNuTGW7Oxs1dbW6sKFC2ZTh5oyZYp27dqlhgb35OfOoLNeM0nqsqJKOd336siDM/XlzLcdU8PnKe3Fx9VPdptkhZVm6CiFTCXvssKo9XnOuQ/buA26cf5Y10Iz5n4k+xy6+r/3ynv/AaW+Ml3fKn9SH6226mf6p8GHCHPckHOTPW3ftbq8PdLzrmzJ975+O+dJ7XK3BuQWWfUyG995Ss8b9TyleSp84zHdGhis5tVbeQc0dPt0pTr6+/cRTlVxtv7gD1Pz1+vhRWOV6mgr+/YhzRv8gda4pq6HD0Rd++q0MvTswvEhoxQlezq1awXxSXrE+bz7KrTamFo9e2ponUkpdF+hQWGNtjy32xjl6T635vJt+lHDcG3OV5i+8Z1fbKHXo7l8W8hq5e5j1WjLcxXqN3eSbjpu9g0NAcPtryXXw6+yzDkiMrRP2OOlD9Grs4a73g/c+wmaPXWGJnePdi1jP08hz41D2PPzXw/zvgEAAAAAdEqEnu2ks16zZOCs++kKTP2harhAE5cFK/D0hdbwtAOssOEWAAAAAAC45DG9HZc8a1V2rxrNup97avS5sQmXE3u1cl+VdpoLEdWfVbOxCQAAAAAAJA9CT1zyrFXZc5Rq1hFdYU3DbzjCKM/Lk73YTsjCPR4tvmu4UuTT344wyhMAAAAAgGTE9PZ20lmvWbIIX9PTK+/9d+q8sRWXl7A1PVtUWxMAAAAAAFwqCD3bSWe9ZgAAAAAAAECyYXo7AAAAAAAAgKRC6AkAAAAAAAAgqRB6tpMTJ04wtR0AAAAAAABoB4SeAAAAAAAAAJIKoScAAAAAAACApELoCQAAAAAAACCpEHq2q1X6ammVLiyt0oX7VpmNQV2XafOUYj3Z1WxIIvkztWX70ypaYDbEMlFP3lmizTdNNBta5JvCCl342QZ9YzZc4v55X4x77JIxT1//zH7NJOHzBAAAAAAA2gahZ7t6VFctzdK1SzfqqgHTI4dS555Q6d9T9N07X9B8s63D5alo+9PasiLHbGgX87/7K32363GV/m2H2ZS4kW/ri9EeXbVrpq4w2y5x/7J9r64cMF3/KJxnNl1S/nnf4/qH9uqapVm69rfJ9zwBAAAAAIC2QejZIR7Vlft8Us+MiCPXiv76G/313ABNu3OZvmc2Xqa+d1Oxpn27WX99+yEVmY2Jun6D/nFXjq7c96SuOmA2JoFPZupf3/Tq69GP66uRZuOlYpX+OUBJGUoDAAAAAIC2RejZkVJ7Rww9pR16fN9+ne86Sg+30lTuS9tc3TsoReePvqjHz5ltiftn3lh93bhXV5WsMZuSx4E7dfVx6au73tY/zbbW1neZhiwpUdYtZsNFuD7yPwoAAAAAAABEc0VmZmbCuUJ2drZqa2t14cIFs6lDTZkyRbt27VJDQ4PZ1Ol8U1ihL0bX6+qld0ZNnud/t0TTvn1cxZsvbnRj3oon9NhtwSKh598p0uTFXlefnxQ9rXuds9a9pcqbv10K83hTuP2Zj3H1yZ+pLYtydar4lyof4ThuU7meumeDrKMGfe+mYv160KmLvg6SPcrzx2N1xZtZEUd5pvcfpDH3/i9ddc23JElfffG53n39f6uu8qgkydOrr8bNWKAvL3ym6kP7NOzO/0v/cuVVkqTaYxXa+9/WWQ7Pn6IB3/03HX77/1PmzaOV2icj7P4kKWf0RNd+zD7+czpd/ZHOf1qvG2+7M/DYj955WxVlmwPfB9g/q/Y9qX9t44DXM6tEg/pL5/f/Rh+WtkL5gTieJwAAAAAAgHCi5W3oBIpOHpc0QCOuN1vilaOn3nhaj90m7Vv5S+XlWV//qQI9lR/slbfiCeUeDLbnrSzX+ZwCbS/KkyRtX7zMbiuV1w4wA33zfmkEnvEdU5Jypj2te1Ua3He3XP00pF7oROX1S5H+fvDiA09J39w8VF/Lq3+JEKTljJ6osTN+otPVH2nTsge1admDOn+2QWPu/V9K7z/I1Te1T4aG3fl/6fDb/582LXtQH73ztvoOHK7h+VMCff7lyqt08/enSZI2LXtQZS+t0Jeff6ZbfjBDnl59JUlj/32+bv7+NB3/6/+4jjl2xk+UM9o90rfvwOHKvmWcdr/6gjYte1C1xyo04Lv/FtJPkvTJDv1Lo/T1dya2+ahJ3/pCHdzfrC6jfqXRs+aazQAAAAAAAO2G0LODXFFfb24K75OD8krq4wkTaMVjQYFGdzunfSuX6bGy4Obti18wvl+m+S8Fv1fZBpV4JeUM0k8cm+MS5zEl92hSabvKvVKXwd+VFbXauk7U4K6S9+Ra59YWmqd/fscjHT8Q8ebPvHm0Lpxr0gfbtwa2ffD2FknSgO9OcPS0RmPufe2/5N1njWysO/43ffXF5+rSs7erX+2xCm3/3UpJku90rZrq/66rv3WdvtU1Ven9B6lX5o2qPVbhGq35wdtb9M+v/qHMm0c79iR91vipdvy/zwZGgNafOCZJus6T6upnWaN/+T++GKUUIrumoFijl5RE+CpWupXZBnxROk37th2X+k/V6IeX6Rp3MwAAAAAAQLuIlPugrdXW60rl6OuYq2sf15lzUhfPALMhLj8ZkSk1ebXdDBvj8NHplhXPTOSY3oPmRPYwuvZQFzXrTMtOx5Cjb1KlKxvcU/H90vsPUpfuaWqq/7t8p2sD2z8/16gvP/9M3/J0d/X/8vPP9Pm5xsD3dZVHtWXVLwLT2/3Of+oOuff+d5G2rPqF6iqPKn3ATbrqmm+F9KmrPKrzZxt09bXXBUaEStKXFz5znZt33w5tfvL/F356eyBg761vWjBa+IvSadq3vDDC1zTVBU8j6P2HtG/tfp1PHaURS16Qx2yPU6wRuQAAAAAAAJEQenaUT2bqX5dm6cq0x3VhaZX+ETP8bIkc3dBL0um6kBqZofJUtP1pbXd8RavhGVkix+x8uvbqo3+56l/Vd+BwTX3ixcBX/oLFui61p9m91fzz66/0mS8Ynjr5R4RemgYooyCxUcrfFFbowtIqfaXndW2MmrcAAAAAAADhkCd0lOs36B9Lq/TPI1m6dmlWGy0y49XHpyX1SndPFw+Rp6LtBcppKtdTjjqdT73TkqGV8R6zczp3+pT++dU/VHusIlBb0/nln6LenszRpO0p0entkqRbXtDouaPUpXG/Di4vTHhRoytKhuvapVm6Sg/rwtJ2WHkeAAAAAAAkHULPDhL/1N0B6tFVOu87bjbYbtfj6zZp06ZNema22WZPUe+WozxjASGXBYOUI8lbFrpqeqhqfdokdemVaTYExHXMRJw7o/NKUY+WDDwN4dUVjdLXaeZiSZZI09jbUt3xv+mfX/1DvbMHurZHmmqfqG9695ZUrys+MVtiS3R6+zUFxRo9aYBUuUn7nn9CX7ibE3LFoQ90pXL0z5FmCwAAAAAAQHSEnp3d9SOUI+mUL8JouTsm6Dt20cTsoQ+Yrdq+eI+86qrRix5yLUiUt+Kh4Erq3jM6LylnRHBs5k+KIk1vt0dy5owLWYndL65jJuLcDh05J+X0a40Vwe2FfQaMDDuC0He6Vn8/Wq7UPhka++/zzeY2UVd5VKerP1L6gMGuFdiH3jlZknT8rzsdvRNlL9zUWK8rzKZW5plVohGjUnR+/2+0b31rLDoFAAAAAADQMoSendz8fgOkc/v1eqRRen/Zqf/js/73xAe/N1slbdf8vCLta8rUvY56nT9VaXAl9bINmlxcLeUUBNoLTxdFnN7+X/OLtK+pq0YvCu5vywrnyMk4jpmQHdp+sln69gi1RgwZawRhRdlmHfpTsdIHDHbV9Zzy+P/jCiVb097/LlLd8SO6+fvTAse7+trrXKu0t8j1E/XPVOmqXTPbNvTsu0wZ/aW6bYlPZwcAAAAAAGhtV2RmZn5jbowlOztbtbW1unDhgtnUoaZMmaJdu3apoaHBbOp0vims0Bej63V1tIVaui7T5jtH6dS+Qi2IFHpeNubqpSlTlfP3Tcr/68WPIvznfVX6coA3+vVPAv+8r0pf9tyra37bxqFnW7h+g/7x47G64s0sXRWzDAQAAAAAAEBQMuc9l7iJenL0KHWJNsrzsrJWrx9tlr49VS9db7Yl7l+279WVytGX960ym5LHyLf15YB2GOXZVj6puTTPGwAAAAAAdDhCzw6xSl+P9kjHD0R8AuZ/91f6btfjKn77Cf3ZbLxM/flv01T8dylndLGeDFduNBGfzNS/vumVBkzXPwrnma2Xvus36B935ejKfU9ewqMkrUWnvrp9gxIejg4AAAAAAC5rkTI3tIlV+mpplS4sna6vGvfqmj88anawdF2mgm83669vP6Qis+0yV/TX3+iv51I0+NutUFvzwJ26Zp9PX39nYtKFav/MG6uvj2/Uv5asMZsuIWt05W+f1L9qrL5YWqULPyP8BAAAAAAA8aGmJwAAAAAAAICkwkhPAAAAAAAAAEmF0BMAAAAAAABAUiH0bCfZ2dm69tprzc0AAAAAAAAAWhmhJwAAAAAAAICkQugJAAAAAAAAIKkQegIAAAAAAABIKldkZmZ+Y26MJTs7W7W1tbpw4YLZ1KGmTJmiXbt2qaGhwWzqcJ31mqGTWFCmJdNygt97N2r5/EXOHslh2Hhtzs+QqndryqYmLZ47SSM9UmXZa/r5YbMz0E7Sh+jVWcOVEtjg04H127SiztUrCk/gXrbEeLz/eNW7NWVTjdnK6wQAAAAAWgEjPYHO4KV8Lc/L1vK8p/Rek9mYrHw6edb679l6s+3SN3vqDG2eO0QTzAZ0Ls4A8rnX7K8ogWVYPq1Yaz+2LEyIGUHzmXhe7Mn9OgEAAACAtkLoCaD91J9Vc8ywJ0PPLpyhzVMzzAag1U0YnKUU+XRgd/xhZZuL63UCAAAAAIiG0BNAh6k845PUpJMJjaoDWls734N1PiVyOF4nAAAAAJA4anq2k856zSSpy4oq5WijjnxaqMG5HunjjTpYkqEb549ViqSG0iyd3ODvPU9pLz6ufl393/t0smi4GvYEdmcZtyHweItX3vvv1HlXJ/vYNwS/by5/Uh+tXuPsEmZf4Y9p7ivg4406uPjRwLdXP1Jh/Zy2sMeMIbfohH6Q49Vbefkqd7Ws1H3bpyvLWZMzf70eXjRWqYE+Pr238maVlAUfFTRPhW88pltPh6npae+nsThbf3gpuDm36IR+0Guv1twzS6cCW+39dPN/H+2YnU2Gnl04Xv0j1Tt0CqnFWKMtz+3Wy65OZr3FoObybfrRDp/9nX3cQKtZl9FqT3c9RpowcZIeyW2yjhtyPgZfhVav/VA7ze0RxXFM//cDqrR6rU+THT+D++ezhZyjcc3s9jqjfuTsqTM0uXuY8/fXn/QL+7yZz4F5bS3Wz+V8bbbg/G3mvsKfV+i1NIX9uSNcI8l/PbqF/fmCwj+vAAAAAIDWw0hPWLoXKrNniQ6WeqUbCnXjzKE6W/SkTp6T0gavsjutUr9XHle/sxt18P4sHbw/S0fKpX7zK5Q2zrEvO6RU+ZOBfgeL6tV3hX8/Fiuk9Mrr73N/lmp7Puzel1ap30yp2tHH+7En5Jgh+yr1Snag6Qw8u6yo0uDc+mC/or1S7uO68ZF5wZ3FofygV1KOhi4wGhaMVJZ8eq/YH1iu1H0LpNfzsu2andl6y+vRrYsOqTDfeGyrWan7ttvBqX3MNe+ojY/Z/iZMnKTNdvDkr8W4pTpDkxdO0uJ0fy87bFOFVtt9VpdbIVNl2WvBwGnYeG22Qyj/vlaXSyNnzdCzwwKHjK3uQ/0ocC52yBmoE/mappiBYWvyDNcjC4fr7PpgbcmU3Enu87fDOjl+zinrz+rOFpYSmD11hjbnZ6jS8RxMOZYZesyF7udgynO7pPHueqezp86ww0f/eVVIuZP06kRHcBnn+VtBpnTAfy2ee02rzwwPntew8dq8cIY2L5xhB6MZmmx/v5nSCgAAAACQFAg9YekqnS3xh4Meyft8cCRl9wxdLenqRwqVJq+8jhDxy9XP6+Q5j/oVOgLNzN5KkU9n/+oYPblnpj5yPE6ap2u7S/r4gGv05/nF5gjOR3XywZn60rHlfMleNcuj7t/1B5WrlHqD1Fy+MbivDRt18pyUkjNRV/u3jdugvjdIDaWOEad7Zqq63KeU3Onq4t8Wj5cOqEpS1oiVrs25I3Kkpg9UHhhRuUh/cI3AlMqL96pRHuXckVjQGq8+KwqVJa/ecowUPbX4Bb3X5NGt09znG8u/PfFHbdu2LcLXH7X0e+Yj2kuGJud61Fy+zTXS7uVNu1Upj0aOt0Or9Azd5JEq9wXDxp07KlQpqf9Af7Dl0eLR1krZzlF3O3fs0gGf1H/0pbMYUWWZY3Th4WpVSkpPc4SGvbsrRT797YhjdGHdh/pRmBGQMaUP0Z2ZYVYUP7zbPUJ0/HClhIxw9WnFJvfISWtfjtGWdR/qd+U+peQO12z/tjjPv38Pj+Sr0k7HSMudOxz3yuHgokVWCF4TDFufey3siFAAAAAAwKWF0BOWcx/I5wgbP68zp3vPkyfHExJSSmt04WwwGJUkVderWaGjMd3sx90wXSOMEaAx7anR587vx2XoW87vnc7WBALTq787VCnyqjEwVd/yZV29pN66NuK5hrNIZe/4pJyRyg1sW6mhOVLjkf9xhZwhymrUaG5rNfOUO9gjeQ8Y0+7X6NRpSb0y1Me1Pbr/WfZDTZo0KcLXD7X0z+Yj2smwTPWXVNdgTg2u0eFqSd09VlDZu3vEqeaBRWLsYDR00Rifdh73SZ7ujinvnVmNDptTrU31Z9Usj0bOco6GbRlrAaBYx8zQsEyp+XhN1BGukfa1s6FJUjf1859rnOdfecZnjXyde+kE1gAAAACA1kXoiTjl6Nqudkj5SpXrK6SO5p6Z+uj+jWqQR/3m+/u9HTKS8vziLB0p97n2GW6a+dWPVBjHnK40Z4c9M1X7sdyjNWdOV7+uUsMRRy3Pnh5JOcoxzn9EQU6gTyJO/eUDNTqnuC8YqSx5tXuxOzDus+KQlmw/4fiarixXj9Y0QGndJOVMN455Qj9o2Y/Zifl0tt7cZvMHlYcrQkZrTpg4XP3N0YJhA1Q/R+h2qav7UD96zh4NO8s/nXt8cCRlAqzRlGdVaTY4pXuUHvXaWvr3CDPFfKE1dd4lzvPfuWObppTV2FP+O++U9VjXBQAAAADQcoSeiJNXF87ZiwI56msGvowp6NKjOumqr5mjnDDB55erh9v7sOqHphj1Nf2LDjWUOo+3Ue6lquyp8s5AsyDHWIBJ+vJTn72gUpjzv9+cVh+Hsv+Rtyk4xT13RE7ICMs+Kw5p3m0eVRUHa3ouz9uoKkef1nVcDU2SvMF6nq4vY6p9LJ13ensMgTCum7p7/PUu/TUcFWORGVOyrZpdo5/7p3GX1dhhY2hwGIs1mjLGKFh7lXLXFPswrNXJjSnmgS/zuYrz/B1T2LdUS8oc3ymDTwAAAABA2yD0RJzCTGOP14Y77eAz2hTyNWp40A4+e/qHJNpT6s/tVb0xJd1l5nT16+rTySJ3kOkMPNWSaeyzn9GmTZu0ad3jut1skyStUUmZ157ibk1trzroXHHdnmretFdljtXWW5d13KCWTWOPpNNObz9crUp5dNNgM0xzT6e2RnWaYZoRotXV6G8+Z41PP48mDPBI1dVhV/W22H3CiCsUbJHIx0zY4d12cBhrNKt1XZ2sqecZGhZ1oacmnfVJKQMyok4zD5nGHq84z//lTXbw6S97cJGs6fgXwwpuQ1Z+BwAAAAC0GkJPxO18yV41dx2rwTFqcF79SIX6zXRv6zI4R1K9LgRGU65Svxc3uAPUcRPVvavU/Km18nogaO06VB5/UDlug240p7fbNUSvNUKZEBs2WosuzQ8dcRrOA0Ozrf/xfEcT7jBbbS8dUJVyNLRopLJCwk07gOw2VLn+VdPz1+vhlk5vt2uBBhdPWqn7wuyrvHivGruN1byixBYturTUaEu5Tym5t7tqO86eOl79VaO37QWJ4gvTfFqxr0bKHO9adXzCxNs10uPTgd3+RW3MAM9eGT5C/ugPBe90rj6esMSOGcuEicZq7pJmD8xwj2a1R2cGQ+AMPbtwfGh46y8dkG/U1xzmvI72tfUM1yOuUZYeLZ7qqLd5uEIHfB6NnBVmxKZDXOcvjxbPNfdjh7ZnfVFri4ZjhddZmmD/jNbK8C18Avz8q8cz8hQAAAAA2swVmZmZ35gbY8nOzlZtba0uXLhgNnWoKVOmaNeuXWpocE9+7gw66zWTpC4rqpTTfa+OPDhTX8582zE1fJ7SXnxc/WS3SVZYaYaOUshU8i4rjFqf55z7sI3boBvnj3WNmDL3I9nn0NX/vVfe+w8o9ZXp+lb5k/potVU/0z8NPkSY44acm+xp+67V5e2RnndlS7739ds5T2qXuzUgt8iql9n4zlN63qjnKc1T4RuP6dZu/u+9eivvgIZun65UR3//PsKpKs7WH/xhav56PbxorFIdbWXfPqR5gz/QGtfU9fCBqGtfnVaEkE2Sqne7VtYOCaBCVgmXZk+docnhAnFjXxo23qghWaMtzzlWE5dCzq25fJt+1DBcm/MVpm985xdb7GNax2kyzsF6XHr5Nteq9CHXI9w5pQ/Rq7OGB16blWWvaUvaJD0yoCqkb8j+zOuq0P1JvrAlBkL2pdD9hfQJd/5h7qFm4zr4hb92bq5j+iq0eq1PkxeOl/wr14f8fA7hzs9/r4W7VgAAAACAVkHo2U466zVLBs66n67A1B+qhgs0cVmwwqowAZsdOkUKwgAAAAAAwKWN6e245FmrsnvVaNb93FOjz41NuJx41K+7JF+VdpoLEdWfVbOxCQAAAAAAJA9CT1zyrFXZc5Rq1hFdYU3DbzjCKM/Lk08nz8pVj9Hi0eK7hitFPv3tCKM8AQAAAABIRkxvbyed9Zoli/A1Pb3y3n+nzhtbcXkJqQGpCHUWAQAAAABA0iD0bCed9ZoBAAAAAAAAyYbp7QAAAAAAAACSCqFnOzlx4gSjPAEAAAAAAIB2QOgJAAAAAAAAIKkQegIAAAAAAABIKoSeAAAAAAAAAJIKoWe7WqWvllbpwtIqXbhvldkY1HWZNk8p1pNdzQYAAAAAAAAAsRB6tqtHddXSLF27dKOuGjA9cvB57gmV/j1F373zBc032wAAAAAAAABERejZIR7Vlft8Us8MfWM22Yr++hv99dwATbtzmb5nNgIAAAAAAACIiNCzI6X2jhh6Sjv0+L79Ot91lB6+aaLZCAAAAAAAACACQs/O7NwTKv271GXQVKa5AwAAAAAAAHEi9Ozkik4elzRAI643WwAAAAAAAACEQ+jZQa6orzc3hffJQXkl9fEwxR0AAAAAAACIB6FnR6mt15XK0deF88wWw3GdOSd18QwwGwAAAAAAAACEQejZUT6ZqX9dmqUr0x7XhaVV+kfM8BMAAAAAAABAPAg9O8r1G/SPpVX655EsXbs0S/9assbsAQAAAAAAAKAFCD07yDc3D9XX8upfDpgtpgHq0VU67ztuNgAAAAAAAAAIg9Czs7t+hHIknfLtMFsAAAAAAAAAhEHo2cnN7zdAOrdfr39itgAAAAAAAAAIh9CzM+u6TAXflrxHntCfzTYAAAAAAAAAYRF6dloT9eToUerCKE8AAAAAAAAgIYSeHWKVvh7tkY4fiPgEzP/ur/TdrsdV/DajPAEAAAAAAIBERMrc0CZW6aulVbqwdLq+atyra/7wqNnB0nWZCr7drL++/ZCKzDYAAAAAAAAAUV2RmZn5jbkxluzsbNXW1urChQtmU4eaMmWKdu3apYaGBrMJAAAAAAAAwGWCkZ4AAAAAAAAAkgqhJwAAAAAAAICkklTT2yVpwYIF5qawXnrpJXMTAAAAAAAAgCSQlKHnC//vC+Zml4f+74cIPQEAAAAAAIAkxfR2AAAAAAAAAEmF0BMAAAAAAABAUknK0PPHiz9VzZaTqtnyqf57otnaFm7Tr2b+Xhvm+79e0q96mX06g6+14Y/VqiqtVtUfmzXPbAYAAAAAAACSQFKGnr9b0VMZk/tp+X5p3M/aI/h8R7/Z8IBmFj2gmTurzcZOY9WLJzVWaXqyIFNZP0zRGrMDAAAAAAAAkASSMvT0+92KrvLqc6X3N1suR19o5ADJ+zZhJwAAAAAAAJJbUoeefr37fm1uuvzkfaXe5jYAAAAAAAAgCV0WoefF+3c9FajX+XttmL9Ms8wucTP3FaH+56Bljj6/14ZJ/272AAAAAAAAABAGoWcsvRZq7fxC9f7gv6yanUUPaNvJTE1qUfD573pqfqGyTpYE9jWz6C9KzV+ocY5e48a9pA0TeungG/4+JarqV0jwCQAAAAAAAMQhyUPPK1XnM7clZtZ3b9Z15w5p3Z53AtvWbytRlTI1cdxtrr4x9bpevSVVVf63Y+N/67ENz2lP4Pt/16Sh1+mzD17Rb047+uyslvrdEX5UKAAAAAAAAICApA89az6VPKOa9bTZFJd/15B+0mfV7zhCSUmqVuM56brUTNfWmE5/onpJWRN+r6cGmY22QYOVpc907FgwZJUkNTTqM12n1DT35njNu/0zeZSqA78zWwAAAAAAAIDkckVmZuY35sZYsrOzVVtbqwsXLphNHW7BggV64f99wb1x4mf68Gdn5JFH/z3Zo+r/+yG99NJL7j7h9FqotffcrOvM7X4nSzRzm3PUpl2Lc0IvHXxjgWOkptNt+tXMn2hEV//3n7n6jhv3kh4cGvGIqtr5gB47am6NbN7S03p8zGfyvdtPw5deaTYDAAAAAAAASSfpQ8+nf3tS/96zh5bfd538gxwfijf0tGtw9v7gvzTXMb09qpihp0MgVHUEn4k8PgFW+Hm1NhZ006NmIwAAAAAAAJBEknx6+5e6NVvy/Z9rAoFnYlo4jT1ep5/T3DcOuaetX+Q09kjW7LpOPjVq5I/NFgAAAAAAACC5JHnoebHe0W/Kq6V+hVqb6KJF4QxaFrKfcQNv1HX6TI0N9obTz2nHSSlrwkssWgQAAAAAAAC0QJJPb/9SO7bUq/f+vhqyIljPMv7p7bawtT0dU9LDttvOHdKLjtXZQ2t2Vmtb0RNa79iisP1C95WQvGZV/LJB9W9k6s6WDXsFAAAAAAAALgmEnpcLQk8AAAAAAABcJpjefrnYfpXqzW0AAAAAAABAEkrq0PPHi88pR9/S4T3BUZ6Xr6tU75Ny7mzWPLMJAAAAAAAASCJJGXr+ePGnqtlyUktGfS7v1p769x1mj8vRlZr5w37aqwY9Xlqtqj8SfgIAAAAAACA5JWXo+bsVPZUxuZ8yJvfTxP9ttl7OrtTMH2YqqyBTWT9M0RqzGQAAAAAAAEgCSRl6AgAAAAAAALh8JeXq7fG47FZvBwAAAAAAAC4TSRV6dtbzAgAAAAAAANB+mN4OAAAAAAAAIKkQegIAAAAAAABIKoSeAAAAAAAAAJIKNT1xGZmnwjce063d/N/79N7Km1VS5u516fNo8dxJGunx6cD6bVrRe7w252dIvgqtXvuhdprdgYuVPkSvzhqulMAG+96rc/WKwn/P+r+P8Xj/8ap3a8qmGrM1acyeOkOTM6Xm8m360Q6f2dxGzOcizPEDz3eNtjy3Wy8HW2AyXxu8D8eB32EAAABoHYz0xGVkjUruydbyvGwtL/aajcmr/qyaJemsL/k+LKYP0asLZ+jZYWYD2o0zgHzuNfsrSmAZlk8r1tqPLYs/xGw+02RuwkXxh0012hJ4Ll9rx8A1glZ9nWfo2YUz9OpER6rbluo+1I/s67il2mxMMq36PDkk8+8wAAAAtClCTyDp+HTyrCQ16WSU4GnCxEnavHCSFqebLUD8JgzOUop8OrA7/rCyc7DCr81TM8yGTuPlTe0cOqZn6CaP1FxeEX30ZiDIY5Qn2kJ8v8MAAACAWAg9gWRX51Mdo+LQpto5nLDvabSNuoZ2ClmBePA7DAAAAC1ETc/2Mm6Dbpw/VGeLSnTt/OlKk08ni4brQmGVcm6QdG6vjjw4U1/6+898WyMKcoKP/3ijDi5+NPi9rcsK+/G25vIn9dHqNc4u9rHHOurteeW9/06dd3UK3VfYY4bsy8/6eRr2+L9fpX6vTFdaoD38MaPKX6+HF42V3nlKzy92/0x9VhzSvNvkqsmZW3RCP3BcMnk3avn8RY4NDgvKtGRa77A1PXOLTugHvfZqzT2zdMq/0T6XxuJs/eElR+cFZVoyzXHQaMfsZCZMnKRHchW9dqLNX1vQL6TGnyQNs+uuhXDX/bOO65haatRltNqbjFqBGXp24Xil28c1z8dUWfaafn7Y3BpZPMf0f6+y17QlzfkzhK9raJ6jec1mT52hyd2NGnX2VPG6kPM36yxGqHlpPgdha15aP0f/wPctO3+/8NfOz7yGlqiPGTZem/O7hf/5AsLvNzH2dQh7jQxmXcaw18x8joIiXbtIzGsf7n6eMHGSHhlQpdVrfZrseD4TPZZLxPvP3R69PqV9Hc7u1pTdHlf/cOdm/qzOPmabKdx1iSTkfccQcm7mzxr2OU9M2Ne8Q8g5hr03W+8+UxzHDP9abdv3YwAAAKC1MNKznXWfWagLRU/q5DmPus+sUI426mCpV+o6VJ5xVp+rH6nQiILeOlmUpYP3Z+ng/RvVcMN0jVixyrUvK6T0ynu/v1+Wans+rDR7P1IwpFT5k4E+B4vq1dfY19WPVCj1SHA/B4v2qtk8Zsi+ntTJc7IDTUfgOW6Dbnxlur7lOKb34xzlvPK2ugT3FlvZ/8jbJKUO/jf1cTXMU+5gj+QtCQSWfVYc0tCDdr3OvGwtX7lXjTnTtaRopeuRranPikN2cOo/7kZVtfEx2581BXhy9wqt9tf4W18h5U5yTwu2w7bKMn8dwN2qlB2KBD4se7R47gz7A7SjX+Z4bZ47RBOCe4vJP+13yvoKNdsfqoP1JNv2A3b//Bl6pEdFoHblAV+GJhvnb4UA7rqIb/e4vWWlBNKH6NWFkzRSjufguV3S+NBjup+D1zTlWKa7vl76EL1qhxX+PluqMzR54XjNNvYV9fyHjdfmhTO0eeEMOzDJ0GT7+82dfMp4oiZMnKTNdhDovmbO0hB2EOV4jlaXW+FTZVni09PN+zsiz3A9snC4zq63+5fVKCV3UoI1Fe1p/gtnaLMd8vXPdzyXznsjkfqUmeO1eVaW/hbl3GLdZ+Z1uJjX+c4d/nveem9qdrwGphglBOJ7zltTvO+NrXmfxXvM2FrzeQIAAABaE6Fnu/Io5WxJIBxM6Vovb2AkpUfXZkrSKvXO9ai5/HnHqMlHdbLUK91Q6Ag05+na7pI+PuAaPXl+sXO0paTM3kqRT2f/6hgpuWemPjJGcH65erhObnBs2DNTtR9LumFkIKi8+rtDlSKvagMjSdeoYY9XUo5SZwYf2qVwrFLO7VW1Y8Tp+cUb1aAc9X1kXrBjTGtUfsQndRuq3HzH5vx/U043qepgcETlqcU3u0dgls3Sbq+knJHKdWxuPSuVf5tHje+84Bgpukh/KPZKOYUqdJ5vTP9L/7ltm7ZF+nr+f5kPaDcTJg5Xf9Voi3NkUt2H+l25T8ocHggAZg+0VtbdEvhwW6Mt5T7Jk6UJgaBsuL0ar3PEUI1+XlYjeYZrckJBTQfyVWh1YCSUTzuP+yRPd8fISY/6dZdUXe0aFfbypmgjFyObPX64UkJG1Pm0YpN7hOidmWFGVB3e7frev6/fOcKRlzftVqUydGdgYZc4zv9wcNEiK3RxB1eho9MuVRmanOtRc/k213W0rplHI8fb4a5dC7NyX/A52bmjQpWS+g9s2wC4ssz5vFSrUlJ6WphhgBHV6Of+5y1saNXS0Y012uJc0Crk3OK4zzpEnM95a4r3vbE177N4jwkAAABcwgg921nDEUfYeK4+OJ3db+ZIpZkhpSRV16s5EIxK0hpdOCvJHI1psh/Xb36FewRoHL781D1q5OqekT5I+3QhMOpnlVJvkJq9O4yfzasL56SUns7557GdWlyiKnmUc0cwLO1zx1ClyqsPnCFnGLWnExn1kqAFI5Uln7x/MZ4nb70a5VFaQj/m/9ZPJ03SpEhfD/9v8wHtxKMJAzyS76w1atNh55EqNcuj7r2tfv26Gx0CgrUeZw/MCF/7MSQM6dyaj9eEnZoaZC/CkTm+FUY8ZmhYZuxjWosJ1ehw1BFVkfbVpLM+KaVHN/v71jz/S9ywTPUPW+OyRoerJXX3WCPiencPU/LD0rZ1CGM95x0o5H3DCleDoxE76X0W73PeiuJ+b2zF+yzuYwIAAACXMELPTubq9N5WiDS/SiNecXyFqaN5fnGWjpT7rODT7nejOZJyz0x9dP9GNbj2GW6a+Sr1cx7vlSoNNuqfnS/Zq2bXaM15ShuXI537QL7A1PYMfUtSSu7j7vN/5XH16+rYWdwW6QOvc4q7NbW98Z0/qtzVb6Xu235CSxxf825ruw9tfb5tPU+3LnIfc8misUo1O1/qzvoiBm7WB2OfVuwzRwdZo6XMUVyhQUhQMHS79L28yR4BmRmcBv5qYCRlAtI9Sg8bwLj17xE+nHax95WSO8kxdXmGNi8MrQ/YauffxmJdl9bh09l6c5vNP8L3cIUO+KT+o4PTgq1R0j797Uh7nOOlqfPeZ3E8560tyus38N7Y2vdZPMcEAAAALmGEnp3Ml3X11giYQD1P95drCro9Ld1ZXzMl9/HQ4FOP6qR/H6XWdHR3fU170aFze3XEcawjdq2wgMzeSnEFmo+rn4wFmPbU6HN7QSXz3A/enxW6MFIcyg96g1Pc8/9NOd3MEZYrdd/26cpq2qs1/pqeedla804LPgTG6dTfrecpWM/T/eWaah9T553eHos/dJqQZn1ADtYCjHOBGIdERyp1dsEagtt0wGeFjQkHOvaqxbFGXVWeMafYh+FfAdmoZRhpSnqrnH+yC4RG3dTd46+x6a91Gt8iYZe7S+4+ixIUtpXge2P73WfJ9n4MAACAyxOhZ2cTMo09XmvU8KAdfEabQr7hTjv47K1r/dPdZ45UmqSGPY7wMoQ9qvPjje4Q0xl4Si2Yxn67Hl+3SZs2bdIzzpVUnF76o95rsqa497ljqFKbPlC5c8X1BSOVJamqzLHaeiuzptQ7tGgaeySddXq7Xa8yM9O1yI1CplMHa+BFC9FePlbjrvHpNywz9kgle8ppiDhDwRaJdMyE+bRirR3oxBg9ZV1XJ3vq+YCMqFNqdzY0WdPXo9bhM6exxyv+84+PXTbholhTpdt8gZTD1aqURzcNNs/XXSogUPvWFSS3fhCV3KLcZ636Oo/xOojzOW9N8b43tuZ9Fu8xw4r03hj382QtorR54YwEF90CAAAAEkPo2dnYCwilFcSqwblK/V7coKudm8ZNVPeuUvOn3sCmqx+pUD/HIkOS1GVwjqR6XfBPSa+uV7OktMHB2qBdVpjT2+0aot0z3McMYS9udMP0MCNOw7hjgr5jHyZ76ANmq81a0Ch18A+VP9gTGm5669UoKWtEcNX03KKWT2+vPe1ePKnPikOh+7IXSsqadijBRYsuLdYiGRma7Ky5lz5EP871qLm8wp66HiNE8DtcoQM+j0be5VwZOEPP5mdI1RWBD+4hAZ69Mnx49rFzh4cEs4lI7JixZOhZc/VjewES5+gpa3RmMHSYMHGSvRK6U7B0wCOuuoceLZ7qOIZ/2mu+sbr0sPGOUMHeV+b4GCPp4jv/+Jihrb36dLTDx8O/enyb14K0FuRKyXWsXC9p9tTx6q8avW3Xp7Tun27qZwZIiCKR+6x1XucWfy3R4EJsbvE9560qoffGVrrPEjpmvO+NcT5P9vOslizABAAAACTgiszMzG/MjbFkZ2ertrZWFy5cMJs6VGc9L0nSuA26cf5YfV6apZMb5intRcfU8Jlva0RBjhpKg9PXr36kIqSmps4ZU8ntfTpHhjn34ddlRZVybnBsMPcjSfY5+DWXP6lqPazBufXy3n+nvUK8PQ3e8TC/kOOGOTdr2r6xurxu1+PrfqZbPNKJN6fqF5GWCc5fr4cXjVWqvHorL9+o5ylpQZmWTAuef+M7T+l1PaR5t9UH+wf2EUbTXq25Jxim5had0A/8u2vaqzX31Ch/+3Sp2D11PWwgauyrswofskmSz5gumaFnF453jewJWSU8fYhenTU8pO5s6L5CQ6/m8m2OxU0s7nOr0ZbnKtRv7iTddDy0b1znF4fYx7SOk26cr/W4Jm1xrnId5nqEO6fZU2dosn9Ut69Cq9f6NHnheMnsG7I/87paXPuTpHAlBkL2pdD9hekT7vwV6ed3cT8/zeXb9KOG4dqcr+BjwhwvIGTlekfwEu7ni1vofRNg7DfktRLmnEKuvV/C5xjlvFQTuGbhr3v4ezRu9vNQF/W5Dvee4Xwd269xhV6jEGGe90j3WbjrErlvLLHfh0J+1jDPeTxC9uPgPmbsc1Kr3meK+5ix3xud4nmegscNbQMAAABaD6En4uSo+2kEplaoGi7QxGXBH1yEfOj2f7ANBjVAMrKCqDBBtB3OhguSgERxnwEAAACJYXo74mOvyt7s3RFS9/PLT/mQdVnr3V0pkiqPmaOM7GmkQFLzqF93Sb4q7TRrK9afVbOxCWgZ7jMAAAAgUYSeiI+9KntKzkSjjugGZeZ6pHMfyMcoz8uT/YE7pDbbsPHWNMzqakZ5IonZ4X7IojAeLb5ruFJiLQoDxIX7DAAAAEgU09uRgPA1PZvLn9RHq9cYW3FZCVObT2FruQHJKWytxRbWgQQi4T4DAAAA4kfoCQAAAAAAACCpML0dAAAAAAAAQFIh9AQAAAAAAACQVJIq9Dxx4gRT2wEAAAAAAIDLXFKFngAAAAAAAABA6AkAAAAAAAAgqRB6AgAAAAAAAEgqSRl6zlt6WlWl1aoqPa0NeWYrAAAAAAAAgGSWlKHnmqW9lFWQqSfflcb+kuATAAAAAAAAuJwkZejpt2apR159pt4DzBYAAAAAAAAAySqpQ0+/3td/bW4CAAAAAAAAkKQui9ATAAAAAAAAwOWD0BMAAAAAAABAUkny0PMq1fvMbQAAAAAAAACSWZKHnleq5rTkGXNeq8wmAAAAAAAAAEkpyUNP6dEHM5X19FUqLK1WVWkT4ScAAAAAAACQ5JI+9Fz1YrWq5kvPF2Qqq6CbHjU7AAAAAAAAAEgqSR56fqGRAyTfkWu1xmwCAAAAAAAAkJSSPPQEAAAAAAAAcLkh9AQAAAAAAACQVAg9AQAAAAAAACQVQk8AAAAAAAAASSWpQ895S33K0XX6YNeVZhMAAAAAAACAJJWUoee8padVVVqtx8d8Ju8bvTRzu9kDAAAAAAAAQLK6IjMz8xtzYyzZ2dmqra3VhQsXzCYAAAAAAAAA6FBJOdITAAAAAAAAwOWrRSM9AQAAAAAAAKCzYqQnAAAAAAAAgKRC6AkAAAAAAAAgqRB6AgAAAAAAAEgqHRJ6Dvz+HM25d4x6mg0doe8yDVlSotFLXpDHbAMAAAAAAABwyemA0HOg+l8v1R56V5+aTZc4z6wSjX54ma4xGwAAAAAAAAC0m3YPPXuOGa6+qlXlMbOlg9Q+oQ+XF2rf8ofkM9sAAAAAAAAAXHJaNfTsOWZajGnrPXVjRlfpk0p1lsyzfQ1UwZw5mjYm8hUCAAAAAAAAcHGuyMzM/Mbc2BIDvz9H466Xzh3dquJ3I0xcH1igOeO66OibxXq3wWy0pocP6h/8/vz+3+jD0h3OLpKkawqKNWJUSuB7d7+JSn/4V8o6s0n7/nyDhswdpS7h+vVd5mpT434dfP4JfeH/3uaZVaJBCt1X3bZCVb0fZj8mY789x0zT3YO6Sp/s0bo/XZ7RLwAAAAAAANCWWiH07Kkx996tQV2k2j3rVBolxxv4/Tka5zmqra+H1vO0As/jOuqYZu6ZVaxv/Xma6mr9vexAM7VZVWuD268peEGphx6yv/f3kSRHv1te0OhJA4JhpYNnVokG9YgSevaXa19W6CrXOQT6RtiPy8ACzRnXVzof/loAAAAAAAAAaLmLnN4+UAVz7tagLrXasy564Bl9AaOJ+lYPSZUHXXU1fevdoaJumRoSeErSF6X+wNPpuI4ud/R7/6DqJKX0nmj0i4f7mF+UlqpOKUq7uSX7knSsVOvePKpzXQbp7jkFGmi2AwAAAAAAAGixloeeaWM0bc449T1/VFvXlcas0Rl9AaMd+vyMpP5TNXrWXLMxwDNogNR4RI0hAWcYjWeM0ZZrVbW8MOx0+ZhCjnlcnzdKXXoOcG5MTMO7Kl63R7Xqq3FzpmlMmtkBAAAAAAAAQEu0OPQcOHKQupobI7IWMDp3dH/EcNS3vlAH9zdbweeSEo1eUqIhBc6RlPZo0DMfR586fknqqkEjGe8JAAAAAAAAtIYWh57H/rRO69btUW2XQbo71kjFgaM0qMs5nfSGTmx3+qJ0mvYtL9S+5b9RVaPUZdSvHMGnPRq0xw26xnjcJck/UlZWaQAWNQIAAAAAAABaR4tDT8sxla7bqqPnu2rQXXNUEGGw4sDsvtL5k/oozIrt4e1Q3fN28OmYQv7Fp81S6mCl9nV1bn99JyotVao7uta12Tq/HrFD2YEFmnPXIHWNszQAAAAAAAAAgPhdZOgpSZ/q3dfXac8nUt9xczRtTE93c9oYDY+4gJHfXGU9vMwdFtrB4vlPjwc2+RcQypr7gjyOrtcUvKD0dgtCJyp92ih1adyvWmMV+C/qT0kaoAzXtHy3nmOmWSu3f7JH61i5HQAAAAAAAGh1V2RmZn5jbmypnmOm6e6Mk9rqCPN6jpmmuwed155YIxr7LtOQuaPUxbGpbluhqoxgUZqo9Id/pazU4Jbz+3/jWKDIbtd+HXz+iYj1P68pKNaIUSnmZsnYn2dWiQb1NzpUbtK+9e5Rnn4h+210nsdAFcwZpy5Ht6r4XeJOAAAAAAAAoC20augZqqfG3Hu3+tVcuiGfZ1aJBvWIHqACAAAAAAAA6DxaYXp7FHEuYAQAAAAAAAAAraVtQ89jpVq3rljvxr2AEQAAAAAAAABcnLYNPQEAAAAAAACgnbVxTU8AAAAAAAAAaF+M9AQAAAAAAACQVAg9AQAAAAAAACQVQk8AAAAAAAAASYXQEwAAAAAAAEBSIfQEAAAAAAAAkFQIPQEAAAAAAAAkFUJPAAAAAAAAAEmF0BMAAAAAAABAUiH0BAAAAAAAAJBUCD0BAAAAAAAAJBVCTwAAAAAAAABJhdATAAAAAAAAQFIh9AQAAAAAAACQVAg9AQAAAAAAACQVQk8AAAAAAAAASYXQEwAAAAAAAEBSIfQEAAAAAAAAkFQIPQEAAAAAAAAkFUJPAAAAAAAAAEmF0BMAAAAAAABAUiH0BAAAAAAAAJBUCD0BAAAAAAAAJBVCTwAAAAAAAABJhdATAAAAAAAAQFIh9AQAAAAAAACQVAg9AQAAAAAAACQVQk8AAAAAAAAASYXQEwAAAAAAAEBSIfQEAAAAAAAAkFQIPQEAAAAAAAAklSsyMzO/MTdeFvou05C5o9TF/33jfh18/gl94e4FAAAAAAAA4BLTPiM9+y7TkCUlyrrFbOhAtU/ow+WF2re8UEcrzcaW8cwq0eiHl+kaswEAAAAAAABAu2mf0BMAAAAAAAAA2kmrhp49x0zTnHvHqKfZgIT0HDNNc+YUaKDZAAAAAAAAACCmVqvpOfD7czTueunc0a0qfvdTyZ7uPai/2TOobluhqt4Pfn9NQbFGjEoJfH9+/2/0YekO65tbXtDoSdLRtWeUMXeUuui4ji7fpG89/CtlpUqq3KR969dKmqusJVOlbYWq7e3c33EdXf6QfIG9B3lmlWhQjyg1PW95QaMnDXBscOzLrA1qCqkVOlHp/nOWJDWrau001dUGOkgaqII549RX53T0zWK92+BsAwAAAAAAABBNK4SePTXm3rs1qItUu2edSo+Z7cFgsNkIOZ2sgDQ0TJQ/+LzlBY2e1EfnG0+p5vmD6rFkqlIam6WPXpRXD2rEqFP2Y63QM13OwNEOGmUGkI5jRwo9+y7TkO99rA/Xr7U3+EPL0BA16n6kQCCbHgho/UGvwgSfcVxXAAAAAAAAACEucnr7QBXMuVuDutRqz7qLCOb6LlNGf6lumyNErH1C3v3N6jJqqjyBjinSR5sCfbroiLz+kaDqo2/1DXQ0RljuUN2e41LqYKU6+8Sj9glH4KngvjRAPRJcmOmaggKl67iOOvb3RemLqmpMUdb35rr6Sp/q3dfXac8nUt9xczRtDEUDAAAAAAAAgHi0PPRMG6Npc8ap7/mj2rquVC3NOyXpmpsHq4uO64wxCvSL+lNGmNmshkP+kFPSmY8jjKiUzn+0w91We0bnleIORluq9ozOm9timqjUG1OkyoPGFPsd+vyMpB43hF31/dif1mnr0XPqOuhuzfk+VT4BAAAAAACAWFoceg4cOUhdzY0tdE3PFEkDNGhJiUY7v1x1NDuOZ5ZxXtFqeEY0QN9KldR/qntfS6LXPXW5frjGpJkbAQAAAAAAADi1OPQ89qd1Wrduj2q7DNLdc6ZdVBj3xafN9uJAhdoX8mXWumxfVq3RZlWtdZzT2v0tGOl5XJ832gsuhfyMhdoXoQ7owO/P0d2Duurc0a1at45FjQAAAAAAAIBYWhx6Wo6pdN1WHT3fVYPumqOCSLOvaz9Ws6SU3hPNFinsNPbWF2kKfXRz1aO/pMrSuILXLz5tllJ7hJ2mHmsae6ieGnPvHI273lrIqPjdT80OAAAAAAAAAMK4yNBTcS64Y41ydC9K5PD+Jmsxn7kvhG+/WH2XKWdUis7vDy6CFB97dGb/EcHzuuWFiNPbrfB2gDIKwoe7vj/v1/nUURoxy1y0yORfIOqcjr55EQtEAQAAAAAAAJehKzIzM78xN7ZUzzHTdHfGSW19/V2Fjkucq6wlU5Xu2FK3rVBVjpGX1lRyRwfZ08HXr7XCxkl9VLV2mupq7X3ZbdcUFGvEKLnbjN2Yx7Iek+LsEnB+/2/0YWBVeGN/jft1sFjKmTtKzcY+FW6/rlXkFbo/m/P8eo6ZprsHndeei1wgCgAAAAAAALgctWro2TlYoWKKK7gEAAAAAAAAcLlohentAAAAAAAAANB5EHoCAAAAAAAASCqEngAAAAAAAACSShLW9AQAAAAAAABwOWOkJwAAAAAAAICkQugJAAAAAAAAIKm0KPTMzs7Wtddea24GAAAAAAAAgA7XotATAAAAAAAAADorQk8AAAAAAAAASYXQEwAAAAAAAEBSuSIzM/Mbc2Ms2dnZqq2t1YULF8ymS9xEpT/8K2Wd2aR969e6m255QaMnDZAa9+vg80/oC3drB5inwjce063d/N/79N7Km1VS5u7VmU2YOEmP5HrUXL5NP9rRTc8uHK/+8unA+m1aUWf2lpQ+RK/OGq6UwIZg39lTZ2hyZrBrZdlr+vnh4PedQpTz17Dx2pyfEexbvVtTNtUEv08Sl8TzdNE8Wjx3kkZ6/N9HuafleO59FVq99kPtNNs7TPDnSM7nCRF1xnsygXMy32eS9f0UaCsJ/30GAADQSTHS85K1RiX3ZGt5XraWF3vNxktQk876rP+eDPcHtT8wrN6tKc+9Zn8F//h+eZO9bX2Fms3HdgYxzl+H/du36YDPeGwS6fTPU6vwacVa++csS/agJUPPLpyhVycGEl7Ekj5Ery6coWeHmQ2Xp9lTZ2jz3CGaYDa0kBV4+nRgvf999rWkCzxb+5rFdum/ztv/mrWujj3/GH+fAQAAdGKEnvF6/yHtW16ofZ1ilGdy2NnQJEmqa4id8k0YnKUU+XRg96X54fVSP3+0IX/gHWP0WvsLhreM8rzMdMZ7Mq5zytCwTEnVFYxGA2KYMHGSNi+coc0Lx2u20ZbI32cAAACd2WUSeg5UwZw5Khhobkfn4dPJs5J8Z1VpNgVc6qMMLvXzB4DOr/mMFdgAiCB9iH6cG+/I3Qh/n6WN0TT+tgYAAJ1c8tf0TBujaXcNUlfVas+6Uh0zmj2zSjSov7Gx0lHT01/LM1ybFKwDqjC1Pvsu05C5o6T9v9GHpTucLXHps+KQ5t0W/KO08Z2n9PziNa4+kqQFZVoyrXfkmp4LyrRkWo5jg1dv5eWr3LFFYY4n70Ytn7/I2UXSSt23fbqyAt+3Ty1Rq75Uk7Y8t1svm41O9jTyuig1CP21qvysmlX2aIZA3c0a97EibY9T3Ofvr6N4NnINuqjnr4wItbcibY+X//F+Ya5DSM3SMH38ojxP4a+Vdfx0/886bLw250tb1p/VnYHnpUL9/LU0/TX80ofo1VlZ+tv6bTo53lHnL466gJEkVC9w2Hhtzu8W/ponUMc15Jh+9mMmTJykRwZUafVanyY7nif3vRGv2DVJzXvQFHLcqD+rdbybjm/T2z0maXKm/fiG4fZjjOMncp/FI+q5+cW4/+O4zyI+h7aQuqmxzstxb7mOaZ5bPEKuqc04ZlyvTVdfxz3i3Fek4/k5X5+xroNL+HORgvsJuTcDz00LrpsU+94I28d8TVntKntNW9Kc182xr0SumRTmmOZ5xT5myHNoCHct4xPr3BTH+1Ds82/9a+b4/bzb49p3wtcint9hxjFChJx//GZPnaHJ3Su05XiWJoe8puM38PtzNO566dzRrSp+91OzGQAAoMMld+g5sEBzxvWVzh/V1tfflfvPsXBhZZSFjKK0XVNQrBGjpKq101RXa24/paPLH1ICfwo7FilyB4p9VpQp9y/5oQFjtNAzf70enlaj5wPhpX/f7uDTCjxlHO+Q8v9+s/7wkn9nduDpCkNX6r43MlR2zyyd8ndrLeaHXVO4D79RwjSF+3Br95fzA0vIh2P/hy/zA1AMLTn/GKFnXOfv/6Dn2H+wzl2Y8C0W/8/hOt8MPTtV+rn9vf/DsTO4iXrMKM9TXMGKHfg0+5r09tpqDVs4Xuk+n3R8l36n24OPd3zoDT6f9gfbsNc/ugkTJ2lyw7bgOYe51i7RQs+ABJ/zkPvTGU6ELo4VEqYlIub5RwmZbNa5ybEP8/rboaccz98AqdnTpLefs59b//4j3e/jffpRmGsXiz+IdF2jYeP1rHaHPMfOY4Y8J4ncZ1Hufb/Y18x4fzGu5Ui1PAyxhL8n43pthj3/MK8dmz98iX2+4c8pNBwz+V8Tka5NmGsbrzjeG6O9XoP3nSNsi+O5jHnN4rlnEzpm6HPcYvFcszDPSeg9lcj5t9Y1c95rF/leG+/vMLt7zPNPhON9fefgcK/pxPQcM013D+oqfbJH6/5kDi0AAADoWEk7vb3nmGmaM66vzh3dqnUhgaekW6YqK7VZVcUXX6Pzi0NHdF4pSrt5omPrRKXemCJVHkww8JS04IchgacknVocJvCMpWyWI/CUtQBSmVdSjoYuCG7t28sjNX2gctfxnIGnpPwMpUqqOujc3yL9wRV4PqBnNm3SpkhfzzzgeGwMgcV9XtPqcp896uIiFqdIH6I7M6XKMscf93Uf6nflPqXkDg/WtDq8W6vLfUrJvV2L06UJE2/XSI9PB9Yn+KGgo86/7kP9qKxGyhxvLZYybLwd7EQKrqLxaPFo8wOqJNW4PqBOtld5dX7ge3nTblXKo5HjowS/F8UjHa8IXIsUVel3gQ/k3dQv3dG1erfjw3qNDldL6u5JeFGInTuM0KbuQ71dLSkzM6QmWuuwahQ2lwd/Th2u0AGflDIgI+T8Xc/x4WpVSkpPi5gGtQP/vbHLce/V6OdlNVLmcC12PEcpnia97X+OPB7VOe7zlB7drP/p3V0p8ulvRxzvqnUftijwDL6ejKDisCPwlDR7/HCl+Coc95b/3s7QnebCLq1yn8V/zWSHrMHXpk87j/skT3fHaLX217+HR/JVaafj/SbktdNqHAuHPbdblf5rEniv9b8m/NcmSxOc13BYpjUCPuF6y/G8Nwb7OMPCnTt26YBP6j/aWJjGV6HVrfBcJnTPttIx4xPPNZMmTByu/qrRFsc265qF+X3SSuef0DVTjba4FiJs6XttAr/DWk2Gns3PMN5fLs6n7xZr3Z5a6fpxmnPvGPU0OwAAAHSgpAw9B35/ju4e1FW1e9ZFnG7jGTRAajyiRsfIzBarfUI1lVKXGyfqGv+2vhOVlirVHTVHjMaWOyInJIBsVd56NRqbak/7pG5jNe+N9epjtAWU1ahRUta0E7rPEZi6/V6/mDpVUyN9/eL35gPajbWYUI0OGx+8rYL97g8YgQ9Ys2bokZAAomMkcv46vFtbqqX++TMCo2paFDikZ+gmj1R5LEogMCxT/cMueNDS0CdeRvh11hdxBEzU879IlWfMn7sVpXsU8XNvyM8bem90ODtQcj1PklR/Vs3yqHtvx7bqasc/Kvh0tt7R5mc/buSsSSHhX6IivZ7c7ND5eI1xra3VjANhrK1V7rNErlmY193OHds05SJGbbWGyjM+yTNcj3TYatPh7TxSpWZ5dNPgYDg1e2BGSEAbl3jeG+0+oTVGw4dzofdZSyR2z4b2a0PxXDN5NGGAx3g/kOSvK2n8Pmmd80/smoXUtlSNfv7cay0YBRv/77DW4g+UA//A1FqOlWrdm0d1rssg3T2nQJT5BAAAnUXyhZ5pYzT8enNj2/MdPS6lDlZqX+v7a24erC6N+1X7vtkzlnnq00vS6ZpWmy6eW3RCS7Y7vhaNVarR59Tim7W82GsFn/5+RSuNXov0h7yn9F6TFXxa+zukwnyjWyfVv4fHGkW1cIa9Yqn9FXYKuk8r3qxQs6yRJM7RHx0lsfP3j1KRNSol3Ei49CF61dyXuYqrPbIubADlEqVPC0bddF4Zeta4ZtFq3l00eySpayTvsOEaGTM4iMSjxXPN53yGNSK4DUxI6ybJ+scD1zGj1amLpu5D/eg5ewRxYJ+hKw/Hc29boxHN8MJgh84puf5Vjv1f0aZTX5xWv2YdYOeObZpSVmMFn/7znxr+fapd+V9PgVHSVthVuc+cMhzH6yTu98bQYDqoDUbzdcA9a2mta9ZN3T2SMseH7CtaTdyL0mHXrHXNnhp6/V91jlK1Fy9yzRZpE301fAzjPQEAQOeQfKFnw7sqXrdOW4+eU99xczTn++30783vH1RdYIq7NbX9/Ec7WjB1fo1OnZbUKyPyiMsE5Bad0A9yfHpvZbaW59lfK/eGjPSUJL2UH+jzlldSzvQwwecaldzj3I9Hty5yBp+tOL29lVkj8owp5iFTIP0y9Oys4UqprlGlZ7ge6QQf2BM7f48Wzx2v/r4aVfoyNDnciKu6D/WjkP0YH4YijC5LSKxg6ZJh15DzVWi145pZpQvaikf9ussddidaO87FORU4+NWyfcVmjUL26cD60GO2/LjWqKopz71mBWvK0GQz+Izj3rZGI8YI5Ot8qguZLu34CvePCRepba5ZB3CU99hSbYdYneB99OVjNcEp7sMy1T/saN84Xiet8d6oJp1MdIRpLB1wz1pa65pZoytVHbx/XF+tUdPS1GHXrHW9vCn03IOjTz1afJdVf7pN3kMGFmjOXYPU9fxRbV0XeZYVAABAe0u+0NMWq8bQF582S6k9gtPR5a/z6dyQiLWq3d9sTXHvO1Fpqc1qOJT4iu0KTDUfqtyLHkG5UkNzJHlLEq4FWj7fDj6jha9ls/S8HXymBRaH77zT28NOA49g9tTxdk2x3dpS7gvWx+xAiZx/oA7pm7v1833WiKsfh9Qli4P9YbD/wChhxeFqVRpTRi2Rpgy2gD2FvkPZ5xA6KqwNDRtu15ONEiR0qAjTP/3iCjkuwuHddvAZ3+vCyXo9ZWhY1Nd1jJ+vJezXVMT6f219zVpbHK/NlzfZwWeYUhdxhc+t6XCFDvis96vZAzPCTKOOUzzvjXU1+psvXJ9IU7jjE/2atcE921r7jOeaRZjGfrHa/5q1rujnHwe7tIA5gtaaqeD/R7Uwo+bj4K+hr0/2hK+hDwAA0IGSNvSUotcYshYfGqCMAnvxob7LNGRSH50POwQyPl8cOqLzqYPV93uD1aWy1LWSeyJOLS5RlTy6dVGZch3b+6woS3Aq+XE1NEnKGRncz4KyMNPb56nwDfexAoGpc5r9gjI9vGKeq1efO4YqVT41eF2bOyf7w+7IWdH/sJ8wcZK98I81Miyw6ER+9Me1uTjPX8PGu+uQ2vU9/QszJaYmEPq6pskpQ88GRm1Zfcz9+4PjRGuHhYRRzlWqO1L9WTUbH9hnT23j6e2dPgCzA4owC+xIwenE/fMvvgan7Nem+Y8PswdmtGzEnL0gVMi5DXP+A4dPK/ZZi4K57/+LYQcszpIFTq18zVpTfK9Na5S5+2ez/gEkXM1C/z5DF4tpK1Y9zZTcSZqc2ZIFjPzieW8M3j/O+zbwj1ItPHb0a9YW92yM13nc4rlm0su7K9TcyjMs2v+ata7o5x+HsKPfzUUWE5/27q+hf+7oVlZuBwAAndIVmZmZ35gbY8nOzlZtba0uXLhgNnVSA1UwZ5y0Z51KnX+T3fKCRk8aYH9zXEeXPyTNKtEgbdK+9dYCRJ5ZJRoU4Z/W67YVqspVs3Oi0h/+lbJSw7Ulap4K33hMtzoGHjS+85SeX7zG+iZ/vR4OCS9tTXu1JrCi+krdt326spxtL0n3LhqrxuJsx+rsRj/zeLY+Kw5p3m3OP7q9eisvX+WOLW1hwsRJeiS3SVvC/lFuTzs2N0v2H/Pux8yeGqY2mH81Wf+HeF+FVjun0aUP0auzhislzP7iEf38I5yTzZzKHLav//wjnqf/Gvl0YL05FT4OIeGGuX//z+i4N8xrmMDz5N5XjbY8V6F+cyfppuPbrOl6w8Zrc343+2ex92tfA+uxstpkXY+6cNewu3l+cTCuQ3P5Nv1Ot7uf28BzEIbjmoR9Hm3O5zzkuvo59hX+/rKuS3q5fc3iFef5B3m0eK679l2zccywP0NgX/bjz4Z5/oznVuGuW9hzil/I/kJWlo50TRyvJbs9/vss9LVgvs6jX7PgvWg+rnW4nxOnmK9NKezPZ94TTiE/awteJ5Y473n/83mR944U+p5gvpdJ8fQJf97hX9fOtvDXTIrjnk34mLFf53GLeT0U9h6S6zlP9Pxb45rZ10Ctdd/E8TvM8bs65vm3QLTrFVPaGE27a5DOm39bAwAAdCKXSegJAJce/4fckHDH/+E8XEAHXLTIoWdSsF8/amloBwAAAOCSkNzT2wHgEta/h0cKt9CKXRsPaBN2/b/mM01mS1KYMDhLKS0ovQEAAADg0kLoCQCdVOUZnxRmsR2rXqpUeSwJR+Gh3U2YON5dj3e8VSIjKUNBu+axv2YzAAAAgOTF9HYA6MRC6rhJEWrgAS1l1mtMvvvL+ToKKRcBAAAAICkRegIAAAAAAABIKkxvBwAAAAAAAJBUkir0zM7O1rXXXmtuBgAAAAAAAHAZSarQEwAAAAAAAAAIPQEAAAAAAAAkFUJPAAAAAAAAAEmF0LPTmausJSUaUjDRbGg/P25SVWm1qkqr9faPzUa/r7Xhj1afqj82a57ZjDax6kX7mpc2aZXZGPCF3rafv6oXvzAbW0FPjbl3juZ8f2Bgi2dWiUY/vEzXuPoBAAAAAAB0DEJPuOU1q+KeRnnfyFRWQabu/J3ZwbLqxZMaqzQ9WZCprB+maI3ZAW3i0Qet52Xj8UZNjxh8XqM7CzKVVdBH3gGnWj/4TLtR/bqc09EDx8wWAAAAAACAToHQ85I3UekPl2h0K40OnXf7Z/L40rQxQthp+UIjB0jetwk7O8qjb6TJpy+VkWe2OF2jje9eJ/X6qlVH4g4cOUhdz5/URw1mS/w8s6x7dvSsuWYTAAAAAADARSP07GA9x0zTnHvHqKfZEIdrCoo1esmD0p79Om82+qWN0bQ5c1QQnIkcVU6vz8xNofK+Um9zGzrAZ+o9wNwWhucr5Zjbwhqogpj3ykD1v146V/ORPjWb4nHLCxq9pEQ9jm5SndkWYJ3HtDEteVUAAAAAAAAQenaogd+fo7sHdY0YIFmhpj0ibskL8jgbb3lBI248ooPLp6mu1tlgaHhXFZ9Ifcd1phBpngrfOKGHV8xTbtEJLdlu/b8WlGnJ9hNasv2QCvND+1tt4dotfVYccvQ5oSVFK80ukhQ4pv/r4RVhxkEGzsX/VaZcs0+YfYU/dnzn36HSxmjanHHqq1pVRpm13nPMcPVVrSreDXfHSuq7TEMC92yJsm4x2iZJR5cXqup9x/YQx7T/6Dl1HXS3q24oAAAAAABAvAg9O4S1EMy466XaPetUHCZA6jLqV3aoWah9y3+jqsYBGuScCvz+Q9r3/BOKp1rjsT+t09bOGCINfkjjTz+lNe/4lDr4IT08TXorb6Oq5FHOHf4gcqXu2/6Ybj29UcvzsrU8L1tr3pFuXeQODvusOKR5t0nvrbT6LM/L1prThbpvQbCP7JDyBzlevWX3WZ6Xrd29HnKHkPnr9fCIA4H25XlP6b2mHP3ACD5D9lXslSQ1vvOUls9fZPeK7/w71MACzblrkLqeP6qt60oVOfPsqRszukqfVIbvkzpKI+YOVsPaQu1bXqiD+5uVPskR1tc+oQ+XPySf+1FhffpusdbtqZWuH9fikdAAAAAAAODyRejZ7gaqYM7dGtSlVnvWrVNp2PRIUuN+HQyEmjvU+FGz1H+Ee7RnAjpjiJTarV67F9tVQbt51Ficr3J/Wy9r3nafFYXKkldvBUJE6dTiF/Rek0e3TguOpuzbyyM1faDyssAmnVp8s/7wUvB7aZ769JLkPRA4jiSVz79ZJY7HqWyWnnccT1qjkjKvpBwNDYSoKzU0R2p854/Bfb30R73XJKUO/jf1sTfFe/4J236V6s1tYaz55Gpzk0vPMdM0Z1xfnTu6VetefzfsiOOAmAsYNatqbXDk8ReHjui8BqiHc7RnIo6Vat2bR3WuyyDdPadAnSiuBwAAAAAAnRyhZ3vyTyGOOaJOOv/RjrhGcSYkZohkLVDkO3Jt1AWK5t3+mTxK1YGoix3FwRU++tRgDZR0mKfcwZ6QkFJao1OnJfXKCISLtad9UrexmvfG+sC2UPbjcqZHnPoekbdejc7v8zOU6vze6XSNTkkJnX/irlK9T8q5szn6IkXHr5JPjSpc+rXZEiivEGm0sSnmAkaNR9QYrdRCSzS8q+J1e1Srvho3Z5rGpJkdAAAAAAAAQhF6tqOBIwepq7mxw/TV8ECNzy/0dmm1qkov6EBBpoYvvdLoa5m39LSqSqv1sHooq6CbHjU7tLoBSutmh5RGzcwfGCvznFp8szW9vNtYzQtbV9NSPj9ba97xufYZrqZnSK3ORWPdIWfZLO32Sqm3/TA45X3BD3VrN6nqoH9UZ/znn7grNfOHmcp6+ys9Xlqtqj9GCD+3p2h4QaZKep1UVWm1KvzhZ9oYDb/e7ByNtYBR7aEYo0HbVFcNGhka1QMAAAAAAJgIPdvRsT+t07p1e1TbZZDu7ohRa67ajc7RfdfozoJMZRVcq5HOYMywZmkvZRVk6nmdUVVpk1aZHVrdcTU0SfIG62G6vu6ZZY+otL2UH2h7yxt5ROepxTc7anVKqbc95go+rVqdPld90OUr97pHevqnyitHP/CHmdNyVFWc7ZhSn+D5J+RrbfhjtapuvlZZBZnK+mFK+NG5ec2qKK3WyEOZynIG2g3vqnidVeu177g5MWu9+hcwirbIUZtwLLC0Z906rftTe58AAAAAAAC4FBF6trtjKl23VUfPd9Wgu+aoIHrW1Gr8tRv1yZ4otRuv0YHjkmfwhfCjBm1rdl0nnxo18sdmS2tr+TTw8vl28Bn1sWtUco8dfNo1RP21OuUtcdf5NC34oW7tZgSjec7AUxd1/jHlXdBQj+Q9dI3Z4hKrFEF8tV5jLGDUVuJeYAkAAAAAAMCN0LNDfKp3X1+nPZ9IfcfN0bTANPO24a/deO7o1ktupFx58V41dhureWFGbAbNU+Eb7pXVA+FloL6mte0+s+Zn/r8pp5vUePq4vcEenZkz0jFtvSx0eru3Xo3yKC3GNPX4zr+Dxar1OnCUBkVdwKj1xRfSAwAAAAAAhEfo2YGO/cmaXtw148YII+yi6LtMQ5aUaPSSEo2eO0pdJHUZ9Svr+yXFSu9r97NrN8a7WE2nUzZLz+dtVFWYupj3BVZSX6OSew5oqKt9ulLfeUrLXauwL9IfXpLuNWp1NhZn63n/KvJao5J7NqrKOW09v15rzOntZbP0+js+ZU0zan9uP6ElzmA1rvPvBBwLBvU3Us+B2X2laAsYxW2usvz37JKpSpek/lPt70uUFVjlfaBGXaIhPQAAAAAA6ByuyMzM/MbcGEt2drZqa2t14cIFs6lDddbzupSserFa03ul6clINSJl14n8ZYPq38jUnRGmTSe7PisOad5tHqOGp6T89Xp40VilejcagWsri/M5mLf0tB4fc7U2tnjhqYEqmDNO2rNOpeSPAAAAAADgEsFIT7h4T19nbgq1/SrVm9suM317eSR59YGrhqekshpjwaNLW4ctYAQAAAAAAHARCD3hsuaTqyVPg6ZHXaToKtX7pJw7m6MueJTMak/7JOVoqDFFPbdourIkVR1sw1Geklbd0xB1gSLLF5o+5jPp+LUtHOVpL3TEIkIAAAAAAOASw/R2hPpxk6ruscYreiNOn/5aG/54UmM9knwxpsMnKf8Udzev3srLV7mxtbWserFa0wdI0nXa+3Qvzdxu9pCkL/R26Snl6PJ9bgAAAAAAwOWN0BMAAAAAAABAUmF6OwAAAAAAAICkQugJAAAAAAAAIKkQegIAAAAAAABIKoSeAAAAAAAAAJIKoScAAAAAAACApELoCQAAAAAAACCpXJGZmfmNuTGW7Oxs1dbW6sKFC2ZTh+qs54WLkL9eDy8aq1T/9017teaeWTrl7hUfe1+Nxdn6w0tmY+Jyi07oBznB76suar8ZenbhePVXjbY8t1uVEyfpkVyPVL1bUzbVmJ3bkUeL507SSI//e58OrN+mFXXuXho2XpvzM4LfRzpvf7/q3ZqyqSmw78qy1/Tzw2bn1jBPhW88plu7+b/36b2VN6ukzN2rU2v3a9aJxXuf2WZPnaHJmVJz+Tb9aIfPbI7LhImT9Ehuk7Y8t1svm40OVj+Pfaxu9us5wuslTg88s0l3Z/u/O6GtU3+h37u7xLagTEumOd6ovBu1fP4iZw8X//ta4ztP6fnFa8zmuPRZcUjzbqvXW3n5KjcbE3a7Hl/3M93iadb7/3m/nsx+RpvuypZ87+u3c57ULrO7/D+zWun4aDX5M7VlUa5OFf9S8xP6Xfm1NvzxpIYe6afhS680Gy3Xv6Cy0QMkSd59hVrwidkBTu73q5a9N3ao9CF6ddZwpfgqtHrth9pptsdlrl6aMlU5kvT3Tcr/61qzgyWvWRW//EwfPN1LM7ebjUG3//oV/ezWFDW/91vd/x/99cymu5Ut+33rL2ZvXHIGFmjOuC46+max3m0wGwEAnRkjPS8HfZdpyJISZd1iNrhdU1Cs0UteUCDf6gzKZun5vGwtz8vWW16zsWOVz7fOa/nKvWo0Gy/SzoYmSVLzGeu/HcenFWtf05TnXtOUssjhkg7vtvo8t00H4v785NPJs9Z/z9abba1ljUrusZ+n4k52A7VIe1yzRGTo2YUz9OrEdnrXaNF91hGadNZn/fdkiwLP2/X4uk26W1s1depU6+tN6e5Nz+gBs2ssL+Vb93/eU3qvo99OWsOJs2qWpE9Phg88JfX5dm+pqV61ZkOHWan7tp/QwyvmmQ2Iw6oXT2qsJ1UlkQLPrsu0efQAefcVKn8zgSfitVYLNhcqf/Mmeb89VWXfnWt2sGxPUcnxzzT2l01aZbZFVGn/DqjXSQLPpDAwu6/0SUWbBp7xfg7zzCrR6IeX6RqzAQAQFqFnZ2MHlKPNr1kR/hhDkrBDEt9ZVZpNyaTeCiw6Psy9hHDNWuzlTVZg3x4jmfz/UFHXcPHHeuCZn+mWT7dq6i8c4zpf/oW2nsjW3c8kHHsmxP+POS0d5dn6dunkp4ojPJinwjdOaMn2E5p3m0fqNlbzCBovefOWntb0Addp79Pd9KjZaPvetwery7n9ep2wM27R3q9mT52hzXOHaILZMGy8Ni+coWeHmQ0doM6nOkk662vhKE+ntXr9aLPkuUHfM5tsjz7YT3t9jZr+x2ZFekfZVWv9S2R9baR/jonP7b9+RZvC/QPXHY/rlU2b9MqvbzdbOhf7PDeZX238u6tNpY3R8Oul2hPHgttueSH0s9qSEg0pmOh8JACgEyD07GA9x0zTnHvHqKexvW5bofYtt7/W7tf5/lMJPi8ndtAV7gNJMqk847uI0XCXJ67ZpcAekduSf8S443HlZTfr/TdDJ7L//oMTUs9+6uQfedvWX06qXlLzp84ru1L3bX9Mt2qv1tgjWhvfeaqThbdI3BeaPuYz+d7tEXVa8Y2eFHMTkLiuPXSjuS3gSs0sSpPP06CHl35tNoZh/2ON+TsgbYymzZmjgoHOjcnpxJv2LIWpUzX1P99Xc/bd4cPcDhbpc5hTz5x+6qpaVToyT0uzqtY6Pq9tO64uo36VZMHnQBXMmaNpY6JdIQDo3Kjp2YEGfn+Oxl0vnTu6VcXvfmpt7LtMQ+aOUvO2QlW9H+zrmVWiQT326+DzT+iLOPtdM6tEg/oH20x12wpV9f5cZS2ZqnSzMeC4ji5/SMHozezfrKq101TnmEfomVWiQdqkfX++QUPmjlIXe7t1vGC/ROUWndAPekWu6WnW2AypXeeo6fnBCEffsHVCV+q+7dOVFfjeG7k+XCvXCo3FX6fQz1WTK32IXp2Vpb+tr1D3WcGagifH248x6l+Z+4paI3HYeG3O7xajRqFdA/RslP20Mqt+YHAyUMRahAvKtGRa78g1Pc36sRHqf5rHC7nPbOb9GPG8WoPjuQk815Jk14h11aL010ILbDD62O11Rs3Q2VNnaHJ36/6Rv+ZsBCF14mLW4rRq2qaXb9OPGoa7+oavXRr9PjPv63D7mDBxkh4ZUKXVa32avHC8/G+V5rmHq+kZ2P9F1ZML7/Zfv6Kf9dzuHuXpd8fjeuWn39H/cdWIi/e9yq5vezq++zVqjeIYdULD1fQM7D/s++1Fss/HOmfr50wrC3P+jveAU9OcP2+YaxbyfmD0ifC+7/w9JfO9whDynhDjuvqf69R3ntLzf/+hq2/U5yusPBVtL5CKf6k/fvsJPXZbV3t7tV7Pe0H/5e+14gk9dtsZ1zb/Y/u8U6TJix1lQ+yanf7f+ea+nDU9y0c8rXsDv4PL9dQ9G2TmmvOWntbjY67WxoLIozwlaf53SzTNs1//8fYT+rPZGKfcohP6gTZqeXGG63kPd13N14rrecpfr4cXDZV3ZYnSFk1Xlv17JHC/hdz/8b5+/ccN/3upNTnf613vbfb7uOv9NMbvk9lTZ2iydmv1meHBOuW7PYHHuN+b46wh3ga+d1Oxfj3olIo3P6Qis9Fh1YvVmj4gNeY9GU3Yv/0drNqg9aE1nO94XK/89Bbpvd/q/v/wjyZ9wK4d6mfUEJ39jDbdJW39z7PK++ktStEJbZ26Rf3W/Uy3eCSdcM8o8NclDezNdaw42edZ/+ZU/cL5x8dsqx6ze5/+ms3BbmGPaT82lFHr2uxn/HymWM+FZaAK5oxTF7PPLS9o9KQ+xmegiUp/+FfKOrNJ+9ZbNWKvKSjWiFGnwn6WStn/G31YOiC+z2H2577g+6uh0fEZUcHPicH+4T/PaVuhansXa8Qo//Nu9rOC4bsHdZU+2aN1fwpJfgGg02OkZ4foqTH3Wr9oa/esi/KL9uL41jtGipqjR5f7A8i1qrK/P7i/2f5l5+zn+MV3ywsabf+S9rcf3C9lzQ1TL7T/VI2e20M1jn2nTypWel+jXyvps+KQhh60azf662zmTNeSopVGT59S8+0PN3nZWp63UVXdxmqes1/+ej1sf7D07+8tb45+sL1Muc5ddQArbKnRlufsOpvPvaa3e9yuxcZfSzfdNVxn12/TAZ9HN901SZO126rJ6cnSBLvvhImTNOxYcD9T1leoOXO8Nk91hFOdmjWddd5t0nsrg8/96/qhCvPNvrGs1H0LpNf9909ett7yenTrokOufVlhjvt4a04X6r4Fzn35P5x69ZZjf7t7PdSC80qERyNnWR8wg3UvMzTZMU1xwsRJ2mwHmv7nfUt1hiYvnBRyD0Wzc8c2+/G7VWkHhYH7yJhOPmHiJDuQ9bfvVmWE+ywld5I25ytwf68u96l/fmLnJse09inrK6z6j5F4huuRhcN11n9uZTVKyZ0UdfqmP/CsLHtNU8xQ4KLdrgkDU3TiA+tDmjXN0T898Bk9YI9yDFhQpiXbpyvL638/y9byvAMaGvK+F1u8NYpzi04EAsbAMQ+ODHkNOPlDoqribC1v7RZm/WsAAB9dSURBVMDTIfXb8yQNUFpg4bJwPLp1kfN3wFN6rylHP3hjvfrYPfqsOKQldqDp/h3gfj+I5dTim+3Hb1SVHXIGnyf3KNQ+Kw7Zgay/faOqwv4Ok1Jve8xeqMl+D3rHp6xpiZ2bX860p/XYYK+eyvul8vKKtK8pU/e+MVN5ZsdY7EBT7xQpL++X1tfKMyosCt1TzrSnda9K7X6l8nbL1U9XOFNESfpaEwd/Jh2/tsXhUsJypmvJot7aHeW6xvu3Rs6CQjWsfErvNXmUs+CQHah6pW5DlevfX0J/a6zU0BxJ8ijnjkgTrNtX3L9Pug/Xj3tUWH+DZA7Xq3dl6W/rrbrM/Qf6fw9k6NmF9j9kBd7/pZGzEn//b0uPHkqV1KiRPzZb4nfsT+u09eg5dR10t+Z8/yKGfM5+Rps23a3e7/02MKLyt+9Jt/x0k56Z7ezYW3mzu2v71K06oWzlrZun7xz7rX77XrOUPSww8vKBZzbZYWtwdKZu/VnrTaf312N2eOCZedLLjhGhb55QinlMO8gMjhzdqhOStZidI/C8/devaNNdvfX+fzr6Zd8dYVp9Ap/DBvZXX53TSW+UPhclzs9htU/oQ3vb0Uo75HT2cwSe1xQUa7Q9MMbffrRygAYtCf0clj6pRCN6ltr9fqOqxgEaZNQL/fTdYq3bUytdPy7mqFgA6IwIPdvdQBXMuVuDutRqz7p1Ko3nH8xueUGD+kt1exz/gtfuJip93ACpcpM+LN0R2PpF6YuqapTSx5kFtZtVtTYYmH5x6IjOK0XfaqPQ89Tim92jMcpmabdXUs5I48ODR6mukU6LVPaOT8opDHywyZ02VqlNe/W64wNp+fyNqlKOxidUH85ajCSkrpH/a93jCU5T9ahfd0nV1a6Rey9vMkdCeJRytiKwLcXTpC2B0XAede9t/d/OHdvco9/qPtTb1ZIyM+X6e7mzWvBD3dotdNTLqcX5LRgFs0h/MMKY8uK9ajQ+YPbt5ZGaPlC563jGvad56tNLkveAa7RO+XzneT6gZ8z7oRVqXzWXb3OMfPRp53Gf5Oluj2LM0GR7tV7n8/7ypt2qlEcjx4eGkBfPf8xdjnu0Rj+3P/yGfJj1VWi1Y5TQziNVanbcs22hsszx+jlcrUpJ6WnhR+dNmDgpEHiaI0dbR3919zTr7Anrg57/A+hv32sOnSapeSrMzwkzGnCR/hBmJGeryF+v8XZ46brnX8oPGQ3n12fFoUDg6ezjDnTNr1f0+B3OvcTw0h/1XpMdBm63Rtc1RFm3rPGdpxzXbI3Kj/ikbr1l/XpaqfzbPGp85ynX+Vq/Azy6dVpoCHnx/Md8wfEesUh/KPa6fjcFNO3VGsdowFN/+UCN8ijNzA3j4Rpl6dVjZdVStxzlmceMJaeHuuicPvyL48KXbdDk+eb4TUneUuUFtm9XuVfqMvi77qA174KGeiTvofZcqsOn91ZGv64h7/dh/9bwKPV0SeC5TO1Wr7cC91twf4n9rbFIH3glySfvX9poxkBCEvh94pH+tjv4N4iOO34fdPdogqQJE4erv2ocf6tIO3fs0gFfW/1ucvuzL85/ivndtfJK6n19PFPcI7v4EOl2PX5HtnRiq2tU5K7/WKP3fVL2Hc6/L1OkY1sC4WCK/o/WBB7TW/3u8JdVkU686Rg1+Zcntea9ZqXcOrl1pqRnd1eKUfP0978wVrZ/eYve90kpAycEzv+BodmS731tCfzh+3ttea9Z8nxHEwK/Jx7Q5FtT1PzeGsf+fq9fvHlCys4zfp8k9jkskQWMril4UFmpzar6szXKs2PMVd9RKTq//zeu2XW+9ZtUpxRlfc8olda4XwftUanSDjV+1Cyl9ghdJOlYqda9eVTnugzS3XMKdBFxPQC0O0LP9pQ2RtPmjFPf80e1dV2pov2eTZ/kKIw9aUDIL69213ei0lKl858eNxoi/IJsPKLGDl46t/Z0+HqYVQfdgcCpv9c7PohYoykaj/yPMRrpuBqapNReA1xbo9ulJ+c4/gXb/JrzZMTVh8Oz6wRGGCXnVHnMMeU3JCyJzKoXeWnIHZETEkC2qrKakBFvtad91gIpjlFhodbo1Gl71FCYUVqW3+sX5v3g/IoyHSsaswasNSLTDhGHZap/mD5SjQ5XBz98tqphmeovn/52xDhm/dnwYaa5KEXdh/rRc20VMMr62ePcdz97Sn/bBZ6S7uin3vaCPQ8MzZZOHNbvJfXvmRK6Wnn+vymnW+j7WVvqc8dQpcqrDyIEnCZ/KQgz8JSkXf9xf+h9H/gyPgjHtEYl92RbI+mkwGjOSIsYNf7dHRpZIzLtsGvBSGWF6RMInXplRHntt9CCkcoKF2Z560NCN0nS6Rr376eyWXo+L/Qax+P8kb+6p5V7z+i8uqqnecxY7MeNXvSEnooRmHoPhglCTQO+kkfXqd78kyPEXI34tnT+5I4WT20PaOHvk3B/a7hel031Cv1zKPG/NazR2G07tT3AM1yPLJyhzc4vZ4mSRH6f+Kq00/EPs6GP8WjCAE/IP+gG/uZpi99NpnNndF4DVHBTrFqMV6neJ3l6fWU2JC5qiJStu81/DPrpLcEyAndM0Hc8Zm1jSdqlnceaHf/YKUnN+j97Hb89zN8lkm4f+x2l6IQOu58Ae3EmOxi9GHc8rlfuskJa15T3EP6F6/xuV7+IibBjcbvZw5Rt/pzyjy5NUXf/jPcEPodJERYwcklR1tzg57URo1JUt81d8qvd3TJC6ZKa64MDVCxrdaZSUo8bXJ/Xzn+0I/4BNQ3vqnjdHtWqr8bNmaYxaWYHAOicCD3b0cCRg+SvmhWLeyr6JjWP+pVGG9MNOkLoL1G/Pm02ijM+K3XfdmvlXv9XtFpqLt76YLiVn6FU//RB1/4e061Rp0y2j5c3WVN+lWmtorp54Qy9OjHOnzNEhp41PtREq9PYudijKc0P/xehz4pDxnPurLNmObX4ZnuKorUy9JLtJ8IGm+XzramRypke2F+kAKZ9+XTWNT/awfUhqXVMSOsm/7R714dnVw24S0GGRuZ6ol+/1pDdXSm+s6rUAxqW7f9Aa33oC/lwm9NbqTFGNLY2a6RzuAAnnBzdept1zdrtHF/Kt153TV5V+Ud+Rv0HikiinHNgRGjr6fPt3oGg1vUe5Kop2smVbdDkvFJ51VWjFz2t7duf1vbtD+knZr9WM1cvTSlR2ZQROri5UFP+Fulvk9Z2EX9rOHXyvzWsUfeO8jd2+Q+jU+T3w4R+n3RTd4/9D7rG3ySumuNt6dwTmrK5UKWeX6lsSok2xww/W1tfDXctFHMiOM3c//Wf74dMD4+8UnxiQWX/ninhg9awdTTjk32XO7CtfzPMP+iGWen9btchd+nJv5yQPLdocmAKkjWq0/+PgpJ0e9/eklJ0y0+jBMUJfg6TfwGj80e1P1LmaS5ktHa/UiaVdIKFZ5v1eaRf1OYglRbrqkEjGe8J4NJA6NmOjv1pndat26PaLoN0d0L/QrZWVduOS6mj1NesndlpnIr8C7bN2QsBNO3VGke9tDXvmKMJInCGB/boPrP2WuAroWmjrT293RKsp2jVxErJndSC4NNaOKa/8cFmdXmc16zD2aMpW2nUlXNEWvD5turwhXgp31F/LfKIzmA9P2s16dTbHnMEn20zvf2iJDAiOF47G5pkLUZhfHi2v9psxGSrq9GW56waue1ZY876QNvfCgSCW63RLZFGAbYha6RzvKGfV2/lWTUNzdq4au3p7abTB/SHe+zfAd3GKj9KvdGExR36xs+abeBz1Qp2frVkBGfH2K75/nqexdWSMnVvmwWfa7Vgc6HyNx/UiHYLqS7ybw2nVv1boxNK6PdJk8767AXuwvyeaP3ayWF0XabNU0o04mSh8tsrRB9YoDl3DVLX80e1dV2MupIJc4yCjEPlp83hg9YWjby3uFZvn2osaqTggkcpJ7a6+m094e5mBZrOEPVuZRsLFFkjUpsd9TzDHzuxz2EDNWpQV52r+UhxPzO1T8i7v1nqXxBSO7PTaDwT/8hOk3+krKzSACxqBOBSQejZ7o6pdN1WHT3fVYPumqOChP6RLMq/3EmS5qpHuH9ar/1YzZJSekf/UPBF/anIIzZrd6ihUUofZP7r5USl3pgiVR50rfTXruzpiFVlLVsgI3dEjqR6nSpT1KlliWvt6e0mn1astYPPHgkODbGnplXua4cPE23ECmAci0K02DzlDvZITXtVlmC4UD7fDj6jhq9rVHKPHXwG7qu2md4e1eFqVcqjmwabAXmGhmVKzcdrotwLVp9Q1ofViPdfpGnslySfVqy169XNGt/udW/ra3dZ09/9YYIdmmSNCA3c24oVzuVoaNwh4hqV3GPXwlzkXpyldae3B/Xt5VHjaWtOtHW+CXrpgKrCLhYTaTqyk3+xGVOM3yttFWDPfibhf2DLuyNHXVSt8mjvhQsGKeapvvSCHXz20A0teY8+fpV8+ky9I1yyoLU6+HepS7+J+p7Z1Nou8m8Ntxj3RBi5RSe0JMHFtNrMRf0+MbXjNPYIvvftweqi4zr4idli+kq9PZLv9FVmQ0J6jpmmOeP6Wqthv/5u/KGa31926v/4pOyh5j+QWovhOUdBxqPVprEnwJpS36z334x2pv5ancHFmsL+jWROY48qzs9hF7WAUYyBIPYUdFPUz2EOX3wapqyY3/sHVacUpd1sfuazPiMmNJ3dyRXSx1EaAAA6EULPDvGp3n19nfZ8IvUdN0fTXFNawpmrrEkD3HUy7SAzGELOVdaSqWF/iUrH9Xmj1GXUVJl/nrrUntH5cEWuJUk7VLfnuNR/qmul9k5RtNuenu788J9bFOeUswVl9iIb/sUL1qikzCvlTO8k05GdMvSsYyVuSVJ6hm7ySM1nmpxbY6u3VtEMrpxqrUp96Uxvl04tLgkbpvRZUZbgh0J71GiYVXXd09vnqfANc1VdO+RwTbNfqfvMKbV2/UV/GNMxarSl3KeU3NtdIxVnTx2v/qrR2/4V1+t8qnPdG/ao4OBDHPx1ZsMsSqTg4lgtWYG9c6rRz9dXqFkZmmy+FttA77636/Zf58n/Oe72sd+Rju20/7HEvwib+V61UveFGXncKuwFg8wVrbWgLMrq7Yv0h5V71Sj3Cultwy57IVnXYVpOC/4xw7quqbc95PoZc4umK0te7fYvOhMSOtujAIMPcfDX+Q2zKJGCi+GEXNeL9MBQ+85xLfgRRf5M/fS2rjr/Tqn+y960/e9nJGUq1//8LnhI26eF/gtI3oonVGTcAz8ZkSnpjD5uSQ3K7dfqA5+Uc3OLPp63jYv5WyNEon9rdLbV2+P8fRKnl3dXqNkzXI/EqFfe4X58QTmS6j+50myJ28Dvz9Hdg7rq3NGtFzFSzp72nX23a6X22389T7d4YgWJYby8Re/7UnTLT59pnUWL4mAFrSn6zlj/P8lYs6Pc09srrX9Y7Rn+L5CAvzyp7Sek7LvinSUQ63NYT425Of4FjAL6LlPOKPdAECvIHKAe/s9Ot7yg0ZMi/GNH1M9hQf59ZhSYwaYkrVXt/mZ1GfWga7SpZ9ZUpeu4ahyL0cbrokN6AOhgV2RmZn5jbowlOztbtbW1unDhgtnUoTrreUXTc8w03Z1xUlv9v0T6LtOQuaPUxeh3fv9vXKumS6F967YVqrZ3sUbceEQHnzdXeg8NReu2FYYujhTyy/i4ji4PrsIes12SZ1aJBvXY7z4H+1ybwx0zCv+043Aa33lKz/s/gC4o05JpwbEnje88pdf1kObdVq+3AqvczlPhG2a9rNDVvyU79Aqpp+bsG+0DrtdxzFaWPkSvGvUQXQur2O11Za/p54c9Wjx3kkaqQqvXfqidw8Zrc35GsL/9vV9z+Tb9TrfrkdwmbfEvfhPmeAE+e792YBqp9labLvwS5jl13Rdhn0db016tCazYbu7Hq7fyDmjo9ulKde4vzPPuOp5fmOOGW8yl1ZjPbRQT7AV5AhzPY4DxvFeWvaYtaZP0yICq0L6y7zPHLpvLt+lHjg+9IceUeVw7WK3e7Vh9PlR891m0kLYmcG9b5+S416XAY9Md5x+2X+C1E9xfq7jjcb3y0+7aPvUXqvz1K/rZrSnSia367ad51v/73tdvzRHixnuf+f6TW3RCP4gwLC94T4be10Gh72ch+zRWkLfet53vvc7zDN3fxYr4e8Jc2d4+h3heiyH7dL1f2IzXeVVxtsq+fUjzBn8Q2jfkPSb0vSPkmDKPaz9P5s8VyexnrJp84e4b5aloe0HIiE1v8S8137g2eSue0GO3+SvhVev1vFLd8MZ8DTlSpMmLg8VPf1L0tO517tC1MrwVqm5ZlKtTxjF+UvS07u1l9JU0b+lpPT7mam0s6KZHHdtN879bomme/fqPt59o8WJGuUUn9INexnNsP7+Nzvsl1t8arsfYz7ns/Ya7/8L8roj0d4n1ugvf1ppmT52hyd3D/F4I83sm5L3d+H3i2pfr8cbfJ1LE9+54fq9drO/dVKxfDzql4s0PqchsdFj1YrWm90rTkz9MkbnUWVzSxmjaXYN0fk/kVcNv//Ur+tmt9do61bGSuoLTwfXeb4Mrtvtf4wEn3I+b/Yw23dVb7//n/XryLw/oGcfUcOs4stus7g88Y4aOkoyp5DHZ51n/Zpgp7QbrHIJ/YZ54c6oOD92ku3s63rP80+CdD5Ts6ezuWQHm/iRFeP8LCvkcpviep9DPQ5Zwn62uKSjWiFH+8zquo8s36VsP/0ppH4X5bBey39DPWQrZp70Ku+NzV6x2/+fCFOPzpfW4U45jDlTBnHHqcnRrK5dgAID2Q+gJAECn8ICe2ZSns8YHOcQpf70eXjRU3jYOhZKDFXr2eccdXHYuX+jt0lPKOd5HWQ+GncgptVLoictbXKFnXrMqftmg+jcydefvzEa0CWfdT1fwerseX/cz3eIxQt5WEjYIBQBcspjeDgBAp/B7HT6Rolvuaq8Jhkkmp7dSA/WZcem7RhvfvU4acEpv/9hsC/rIZ65pDbS2r7VhfoM8vjRtJPBsP9ndlSLpxAdmrLlLJ9ssjWzBAkYAgE6N0BMAgE7i92++r+bsu/XKr51LzzygZxJYjOay9VK+lrfy1Hl0rDVLe2njcSnnntPakGe2Wv7sOyV1HaV7rzdbgHjM1b2DUqS/H4w4ynPViyc11pOqjS2d1o6WOWHVnw9ZsGn2M9Y0/AQXbIrPMZWuW8dUbgBIIkxvBwCgMwlTw+xEHPXRgPhdCtPb/b7Whj+e1NAj/TR8aYQFZK5/QWWjrTp43n2FWhBzFW5grl6aMtWqa3suSnmEvGZV/PIzffB0L810Fp1F+wjz+1D8TgQAJIDQEwAAAAAAAEBSYXo7AAAAAAAAgKRC6AkAAAAAAAAgqSRV6HnixAmmtgMAAAAAAACXuaQKPQEAAAAAAACA0BMAAAAAAABAUiH0BAAAAAAAAJBUCD2d0sZo2pw5KhhoNhhueUGjlxQrva/ZMFHpD5do9JISZd1itgEAAAAAAABoD4SeDj1z+qnr+aPaf8xsAQAAAAAAAHCpIPQMGKhRg7rqXM1H+tRsitsO1T1fqH3LC1X1vtkGAAAAAAAAoD1cJqHnQBXEmrY+sL/66pxOelseebaaeKfZAwAAAAAAAAiR/KFn2hhNmzNOfVWryojT1ntqzM19pU8q9G6D2Sap7zINWWLV6hy9pESjJw0wOgRreVpfYep92vsYUjDRaJCuKSh2P6bhXVV8IvUdN0fTxvQ0egMAAAAAAACIJrlDz4EFmnPXIHU9f1Rb15UqYuaZdqP6dZFqT4TpccsLGj13lJq3WdPW9y0v1L5tx41OwWntoW222h1qaJS63DhR17gaJir1xhSpslR1tcGtx/60TluPnlPXQXdrzvcZ8gkAAAAAAADEK2lDz55jpmnOuL46d3Sr1r3+btQ6nZEXMJqo9HEDpMpNrVCjc4caP2qWUgcr1TkKtO9EpaVKdUfXOjZaPn23WOv21ErXj9Oce8eIMZ8AAAAAAABAbEkZeg78/hzdPairavesU/G70eJORV/AKEog2RJflJaqTilKuzk4xf2amweri47rTKRQ9Vip1r15VOe6DNLdcwrEmE8AAAAAAAAguuQLPdPGaPj15sYoBvZXX9WqImY42hrW6kylc4q7NbX9/P5N8pldw+qr4dT4BAAAAAAAAKJKvtCz4V0Vr7PqYfYdNydGPUz/AkaVket9tjLf0ePBKe59JyottVkNh3aY3YJcdUnjGbkKAAAAAP//9u4fNAqzjwP4t1MoiUGMNO+V1xojHlyFVlpCApl8FyNSF9MpUyBjXd100M217Sbc5NS4pJSkS50CSkDsUAO2SmhLrxaVoAmtU9/hLsnd5W9jjPby+UCGe54nzz3J+OV5fj8A2NtaL/Ss2VI9zI0aGCVJ5ecsJml/p77jeq3O53bduZG5+eoT97YP30/H/L3M1zUwqrdUlzS/TW9alxQAAAAAqGrZ0DPZvB5m8ePqDcrVDYyW1J6j951LZ22kc+RCerKYhaaVW1dtaNRx7FwKx9rzaPpSXjQvqatL+nx2IuVv1z0gAAAAANCktUPPLD13n04lhfQ2pJ7F9L6btRsY1Xl2/Wrm5o+mdHEy/Rcnc+jJ1dwev9e4qHA5x2vz/WeOJmlPz1jt8/nLtfqdK158fy8L+4+me/86DYxqdUm31ogJAAAAAKj31uHDh/9uHtzMkSNHUqlU8tdffzVP/XsUhzI6mEyXp3atnicAAAAA8Oq1/k3PNe1+AyMAAAAAYHfs3ZueAAAAAEBL2qM3PQEAAACAViX0BAAAAABaitATAAAAAGgpQk8AAAAAoKVsq5ERAAAAAMCbyk1PAAAAAKClCD0BAAAAgJYi9AQAAAAAWsprqelZPDWawc7ZTHx1K0+aJ980H32R/jNHVz4/vJHb16/VrwAAAAAA3iCv4aZnMb3vJpXvVweenSOT6T9/OW1N46/Vnc9y+8rp3L5yNXPzzZPbMZaei5M5PnSyeQIAAAAA2AG7Hnp2DXyQQip5eL95BgAAAADg5e1o6Nk1MJzRTwfS1TyxrCvHDu1LfnsYmefLK54a3eT/DQAAAAB7z47V9CyeGs3gu8nz2YmM32p+uF5THMroYEdmvx7Prce1scLlHB/rS0fT0mXzM7n7+aW8WB4YS8/Fc+le/vwgs1c+y7Pap86RyZRyI3efDOVEX3u1Bud37y1/x6NvTmfuTtI2NJ4Tx+7l7uc/p1C338LM1fwwdXN59xUn033+QnqerlfTsza/f2Wkfq+2ofHqedax6nu3Ukv04ECGPyllXyqZLk8JkgEAAABgZ0LPrgx8ejaljqQyXc7UBsnbZg2MOkcmUzrQHHLWqQWkqQsIO0cmU+pdCT6reyxm4elUfpg9kf4z/8nCfPJ4/MtkeCW0rA8hl4LQpaBx+XODjUPPzpHxvP3dcB5VagO1vVaFmbXQtn3V+Irq2ZK5a0v71YLetYLPFDM0OphCnjeGyQAAAACwR73k8/ZihkbPptRRyXR548BzowZGW9X5v750zM/kp7qw8Nn1G3mUozlU3xhof/L4u6VwsD358cuVMPLAew2NkhoCzjs3MjefdJfG6lZszbPrdYFnVvbqOHbyHzZmGkuhrz0LM3VnzrXMffMg6R1Kd6FxdXI/U+WJzC7sS+mT0QwVm+cBAAAAYG/Zfuh5cCDDo4MpLMxmYgtPq1++gdFYDvQmCz/ebLoF+iB/zicdXXVPwefvZb4ugFz8Y+0blcmDPG240Xkzfz5dHYxuT22vf+qjE+nOYh5/33TmytMspD1vrwo9k+RJbn1VzvRvSWFwNMMDqnwCAAAAsHdtO/QsflzKvubBdVUbGD2fndk0HF1X4b20J+nou5D+i5N1P411NF+bwuUcbzjXZEq9zYs21/bOf5K0p2esca/+jeqeNtlX6osLnwAAAADsVdsOPe9/W065PJ1KRylnR4czcLB5RZ1iX0odz/PrT9t92J6k8nMWaw1/bl85vfpnVa3LXbTUjOnhjYYzzT5sXri5F3/8nmQxc9fW+BuvrFVrNLW6qtVGUpXpcspbuHkLAAAAAK1q26Fn1dbqSRaPFJKFX/PjJk12XjxZTPYfWOdp+RrP2Hfcek/oN9b24fvpyGLmluuIbmSTv2PDZ+xrWaqr+jyzX29WVxUAAAAAWt9Lhp7ZvJ7kwYF8sMUGRtVbjk1NiZbdzKPpB0nvuRxfc/7ldY6cS3ce5Jd1uqqvp3ru9hz8cOlcJ9N9fr3n7bVan2s2JUpSuZRfHibdZ8bXnq+3VFc1lUyXdW4HAAAAgCR56/Dhw383D25X18Bwzh76NRNfrQScXQPDOVtayPQWn1y3DY3nRF/7ysD8TO5+fmnl5uXSU/KVFbXn4NXu6Z0jkykdqP3OR1+k/8zRWof2k+k+fyE9qc6l+Xuyxneltt+a4WVj5/fmcz/65nSelurOsvJrtVC0sRbpwszV/FAXtjbvl6w+X/HUaAY7Zxv+3wAAAACw1+1o6LlaVwY+PZv//jKR8VtvVixXDRV/z+yVz/KseRIAAAAA+NfageftG9iJBkYAAAAAAP/Aqw0970+lrNYkAAAAALCLXm3oCQAAAACwy15xTU8AAAAAgN3lpicAAAAA0FKEngAAAABASxF6AgAAAAAtRegJAAAAALQUoScAAAAA0FKEngAAAABASxF6AgAAAAAtRegJAAAAALQUoScAAAAA0FL+D45a5eytNOv8AAAAAElFTkSuQmCC;" vertex="1" parent="1">
          <mxGeometry x="150" y="240" width="1341" height="742" as="geometry" />
        </mxCell>
        <mxCell id="fMQ5LX_-kCNDXQKoMOGB-2" value="" style="endArrow=classic;html=1;rounded=0;strokeColor=#ff0000;" edge="1" parent="1">
          <mxGeometry width="50" height="50" relative="1" as="geometry">
            <mxPoint x="770" y="370" as="sourcePoint" />
            <mxPoint x="570" y="469" as="targetPoint" />
          </mxGeometry>
        </mxCell>
        <mxCell id="fMQ5LX_-kCNDXQKoMOGB-3" value="&lt;font color=&quot;#ffffff&quot; style=&quot;font-size: 20px;&quot;&gt;First, checks if the user is logged in or not.&lt;/font&gt;" style="text;html=1;align=center;verticalAlign=middle;whiteSpace=wrap;rounded=0;" vertex="1" parent="1">
          <mxGeometry x="770" y="360" width="220" height="30" as="geometry" />
        </mxCell>
        <mxCell id="fMQ5LX_-kCNDXQKoMOGB-4" value="" style="endArrow=classic;html=1;rounded=0;strokeColor=#ff0000;exitX=0;exitY=0.25;exitDx=0;exitDy=0;" edge="1" parent="1" source="fMQ5LX_-kCNDXQKoMOGB-5">
          <mxGeometry width="50" height="50" relative="1" as="geometry">
            <mxPoint x="650" y="410" as="sourcePoint" />
            <mxPoint x="450" y="509" as="targetPoint" />
          </mxGeometry>
        </mxCell>
        <mxCell id="fMQ5LX_-kCNDXQKoMOGB-5" value="&lt;font color=&quot;#ffffff&quot;&gt;&lt;span style=&quot;font-size: 20px;&quot;&gt;Sends the refresh token to the backend to be blacklisted, so that the refresh token cannot be used again&lt;/span&gt;&lt;/font&gt;" style="text;html=1;align=center;verticalAlign=middle;whiteSpace=wrap;rounded=0;" vertex="1" parent="1">
          <mxGeometry x="770" y="490" width="280" height="30" as="geometry" />
        </mxCell>
        <mxCell id="fMQ5LX_-kCNDXQKoMOGB-6" value="" style="labelPosition=right;align=left;strokeWidth=2;shape=mxgraph.mockup.markup.curlyBrace;html=1;shadow=0;dashed=0;strokeColor=#FF0000;direction=north;flipH=1;" vertex="1" parent="1">
          <mxGeometry x="770" y="580" width="20" height="130" as="geometry" />
        </mxCell>
        <mxCell id="fMQ5LX_-kCNDXQKoMOGB-7" value="&lt;font color=&quot;#ffffff&quot;&gt;&lt;span style=&quot;font-size: 20px;&quot;&gt;Based on the response, shows the message on the screen.&lt;/span&gt;&lt;/font&gt;" style="text;html=1;align=center;verticalAlign=middle;whiteSpace=wrap;rounded=0;" vertex="1" parent="1">
          <mxGeometry x="800" y="630" width="280" height="30" as="geometry" />
        </mxCell>
        <mxCell id="fMQ5LX_-kCNDXQKoMOGB-8" value="Text" style="text;html=1;align=center;verticalAlign=middle;resizable=0;points=[];autosize=1;strokeColor=none;fillColor=none;" vertex="1" parent="1">
          <mxGeometry x="985" y="648" width="50" height="30" as="geometry" />
        </mxCell>
      </root>
    </mxGraphModel>
  </diagram>
</mxfile>
